<svg width="64" height="80" viewBox="0 0 64 80" fill="none" xmlns="http://www.w3.org/2000/svg">
<path d="M28.4496 53.7603C25.0896 54.5903 22.1997 56.6002 20.1897 59.4902C32.2097 67.3002 44.5796 74.0303 57.0896 79.5603C57.8796 67.1303 56.6596 53.9403 53.4796 40.7903C48.2796 42.9003 43.2697 45.3902 38.4697 48.2402C33.0397 34.3702 27.5997 20.5001 22.1697 6.64014L20.8696 4.91016C14.0396 5.72016 7.53965 7.62027 1.59965 10.5303C1.10965 10.7703 0.589654 11.0501 0.429654 11.6501C0.269654 12.2301 0.489655 12.9601 0.719655 13.6301C3.44965 21.4901 8.43966 28.6201 13.4797 35.3901C20.0497 44.2001 21.4096 45.3801 28.5396 53.6301" fill="#FF6152"/>
<path d="M33.4106 50.7407C30.0506 51.5707 27.1606 53.5807 25.1506 56.4707C37.1706 64.2807 49.5406 71.0108 62.0506 76.5408C62.8406 64.1108 61.6206 50.9208 58.4406 37.7708C53.2406 39.8808 48.2306 42.3707 43.4306 45.2207C38.0006 31.3507 32.5606 17.4808 27.1306 3.62085L25.8306 1.89062C19.0006 2.70063 12.5006 4.60074 6.56059 7.51074C6.07059 7.75074 5.55059 8.04062 5.39059 8.63062C5.23059 9.21062 5.45059 9.94084 5.68059 10.6108C8.41059 18.4708 13.4006 25.6008 18.4406 32.3708C25.0106 41.1809 26.3706 42.3608 33.5006 50.6108" fill="white"/>
<path d="M33.0803 49.5297C29.3603 50.4997 26.3003 52.7198 24.0703 55.8298C23.6603 56.3998 23.9903 57.1997 24.5203 57.5397C36.2803 65.1697 48.6003 71.9298 61.4203 77.6098C62.3003 77.9998 63.2403 77.5397 63.3003 76.5297C64.1103 63.3997 62.7103 50.1996 59.6403 37.4296C59.5003 36.8296 58.7103 36.3097 58.1003 36.5597C52.8203 38.7197 47.7003 41.2396 42.7903 44.1396C43.4003 44.3896 44.0103 44.6396 44.6303 44.8896C41.4903 36.8796 38.3503 28.8598 35.2103 20.8498C33.6403 16.8398 32.0703 12.8398 30.5003 8.82976C30.1403 7.90976 29.7803 6.97974 29.4103 6.05974C29.0203 5.06974 28.7303 3.89967 28.2003 2.98967C27.8403 2.37967 27.3303 1.82969 26.9003 1.25969C26.6503 0.929692 26.2803 0.579575 25.8203 0.639575C20.3403 1.30957 14.9703 2.59961 9.85029 4.67961C8.66028 5.15961 7.48029 5.67967 6.32029 6.23967C5.30029 6.73967 4.42029 7.29966 4.15029 8.47966C3.90029 9.58966 4.39029 10.7497 4.76029 11.7697C5.25029 13.1097 5.81029 14.4197 6.41029 15.7197C8.69029 20.6397 11.6903 25.1998 14.8503 29.5898C17.6003 33.4098 20.4403 37.1898 23.4203 40.8398C26.3903 44.4698 29.5503 47.9497 32.6203 51.4997C33.6703 52.7197 35.4403 50.9397 34.3903 49.7297C29.2903 43.8297 24.1903 37.9997 19.5203 31.7397C16.5803 27.7997 13.7103 23.7997 11.2403 19.5497C10.0103 17.4297 8.88028 15.2497 7.92028 12.9897C7.47028 11.9297 6.93029 10.7896 6.68029 9.65959C6.51029 8.85959 6.72028 8.81967 7.38028 8.48967C7.97028 8.19967 8.58029 7.91958 9.18029 7.64958C14.4503 5.31958 20.1103 3.83957 25.8203 3.12957C25.4603 2.91957 25.1003 2.71969 24.7403 2.50969C25.2003 3.11969 25.7403 3.71958 26.0903 4.39958C27.0203 6.20958 27.6103 8.27961 28.3503 10.1796C29.8903 14.1096 31.4303 18.0397 32.9703 21.9697C36.0503 29.8297 39.1303 37.6897 42.2103 45.5497C42.5003 46.2897 43.2903 46.7397 44.0503 46.2997C48.7703 43.5097 53.6803 41.0497 58.7603 38.9697C58.2503 38.6797 57.7303 38.3898 57.2203 38.0998C60.2303 50.6698 61.5903 63.6197 60.7903 76.5397C61.4203 76.1797 62.0403 75.8196 62.6703 75.4596C49.8503 69.7796 37.5303 63.0196 25.7703 55.3896C25.9203 55.9596 26.0703 56.5298 26.2203 57.0998C28.0603 54.5198 30.6703 52.7496 33.7303 51.9496C35.3003 51.5296 34.6403 49.1197 33.0803 49.5297Z" fill="#FF9D91"/>
</svg>
