<svg width="70" height="135" viewBox="0 0 70 135" fill="none" xmlns="http://www.w3.org/2000/svg">
<path d="M54.3775 80.1957C59.5375 79.3757 64.7375 80.4657 69.2375 83.3057C57.1075 101.246 43.8575 117.876 29.6975 132.926C21.2875 116.096 15.2475 97.0257 11.9375 76.8557C20.4175 76.7457 28.8575 77.2557 37.2075 78.4057C36.6175 55.9157 36.0275 33.4257 35.4275 10.9357L36.2175 7.76572C46.1975 4.88572 56.3575 3.69574 66.3375 4.25574C67.1575 4.30574 68.0475 4.39573 68.6275 5.11573C69.1975 5.82573 69.3175 6.97572 69.3875 8.04572C70.2075 20.5857 67.4675 33.4457 64.4175 45.8257C60.4475 61.9357 59.2575 64.3857 54.1775 80.0557" fill="#FF6152"/>
<path d="M45.6978 78.9184C50.8578 78.0984 56.0578 79.1884 60.5578 82.0284C48.4278 99.9684 35.1778 116.598 21.0178 131.648C12.6078 114.818 6.56781 95.7484 3.25781 75.5784C11.7378 75.4684 20.1778 75.9784 28.5278 77.1284C27.9378 54.6384 27.3478 32.1484 26.7478 9.65839L27.5378 6.48838C37.5178 3.60838 47.6778 2.4184 57.6578 2.9784C58.4778 3.0284 59.3678 3.11838 59.9478 3.83838C60.5178 4.54838 60.6378 5.69838 60.7078 6.76838C61.5278 19.3084 58.7878 32.1684 55.7378 44.5484C51.7678 60.6584 50.5778 63.1084 45.4978 78.7784" fill="white"/>
<path d="M46.3694 81.3266C50.8994 80.6566 55.4394 81.7966 59.2994 84.1866C58.9994 83.0466 58.6994 81.9066 58.3994 80.7666C49.2194 94.3166 39.2694 107.347 28.4994 119.677C25.4794 123.137 22.3894 126.537 19.2494 129.887C20.5594 130.057 21.8694 130.227 23.1794 130.397C16.4794 116.957 11.5894 102.677 8.2394 88.0466C7.2494 83.6966 6.38939 79.3266 5.66939 74.9266C4.86939 75.9766 4.05942 77.0366 3.25942 78.0866C11.4794 77.9866 19.7194 78.4366 27.8694 79.5466C29.4094 79.7566 31.0794 78.9367 31.0294 77.1367C30.4994 57.1467 29.9794 37.1567 29.4494 17.1667C29.4094 15.7467 29.3794 14.3367 29.3394 12.9167C29.3194 12.2467 29.2994 11.5867 29.2894 10.9167C29.2894 10.8367 29.2294 9.87664 29.2194 10.2366C29.2194 10.3866 29.1994 10.2167 29.2094 10.1367C29.3494 9.14666 29.7094 8.13666 29.9494 7.16666C29.3694 7.74666 28.7894 8.32666 28.1994 8.91666C35.8094 6.73666 43.6294 5.48665 51.5494 5.37665C53.4294 5.34665 55.3094 5.37666 57.1794 5.47666C57.4694 5.49666 58.2394 5.73666 57.9694 5.41666C58.3694 5.89666 58.2194 7.17664 58.2494 7.73664C58.4494 11.6866 58.3094 15.6367 57.9294 19.5667C57.1894 27.3167 55.4894 34.9567 53.6494 42.5067C52.2394 48.3167 50.7694 54.1166 49.0194 59.8266C47.1494 65.9666 45.0494 72.0266 43.0694 78.1266C42.0794 81.1966 46.8994 82.5066 47.8894 79.4566C49.7694 73.6666 51.7494 67.9167 53.5494 62.0967C55.4194 56.0667 56.9794 49.9566 58.4694 43.8266C60.4694 35.5966 62.2394 27.2867 62.9894 18.8467C63.3494 14.7767 63.4894 10.6566 63.1694 6.58664C63.0094 4.57664 62.5994 2.49663 60.7694 1.32663C59.0894 0.256632 56.7394 0.43666 54.8194 0.38666C45.3794 0.16666 35.9194 1.50665 26.8494 4.09665C26.0294 4.33665 25.3194 4.99665 25.0994 5.84665C24.8794 6.73665 24.6594 7.62663 24.4294 8.51663C23.9594 10.3866 24.2894 12.5066 24.3394 14.4266C24.4694 19.5066 24.6094 24.5867 24.7394 29.6667C25.0094 39.7467 25.2694 49.8267 25.5394 59.9067C25.6894 65.6567 25.8394 71.3966 25.9894 77.1466C27.0394 76.3466 28.0994 75.5366 29.1494 74.7366C20.5494 73.5666 11.8994 72.9966 3.21938 73.0966C1.45938 73.1166 0.549409 74.6667 0.809409 76.2567C3.34941 91.6167 7.47943 106.737 13.4594 121.127C15.1194 125.117 16.8994 129.057 18.8294 132.927C19.5394 134.347 21.7094 134.547 22.7594 133.437C34.0894 121.377 44.6094 108.577 54.3494 95.1967C57.1994 91.2867 59.9794 87.3166 62.6894 83.3066C63.4594 82.1666 62.8794 80.5567 61.7894 79.8867C56.6994 76.7367 50.8994 75.6466 45.0094 76.5166C43.6694 76.7166 42.9394 78.4066 43.2594 79.5966C43.6794 81.0066 45.0194 81.5266 46.3694 81.3266Z" fill="#FF9D91"/>
</svg>
