<svg width="429" height="352" viewBox="0 0 429 352" fill="none" xmlns="http://www.w3.org/2000/svg">
<path d="M90.4886 115.657C82.7386 93.0269 76.9386 69.7869 73.1586 46.2569C94.5086 61.5769 114.639 78.4469 133.299 96.6969C137.409 89.1669 140.739 81.2569 143.219 73.1069C148.939 81.2569 154.039 89.8169 158.449 98.6769C161.009 94.7269 163.579 90.7669 166.139 86.8169C170.729 91.8969 175.889 96.4969 181.499 100.527C187.009 68.1969 212.579 41.8969 220.579 10.0469C224.319 36.9869 228.049 63.9269 231.789 90.8669C235.079 85.5069 239.439 80.7569 244.569 76.9469C248.389 85.2469 253.429 93.0369 259.499 100.017C269.989 93.0169 279.749 85.0069 288.569 76.1569L304.309 102.337C302.929 109.657 310.219 113.587 308.839 120.907C315.799 118.417 310.889 123.767 318.309 123.337C317.279 129.877 328.749 129.627 328.199 136.217C336.469 134.497 336.719 150.397 343.309 145.337C345.309 152.337 353.959 140.087 354.059 147.337C360.119 142.887 366.519 138.867 373.199 135.317L407.919 165.927C405.879 169.587 403.839 173.237 401.799 176.897C401.429 177.557 401.049 178.287 401.199 179.027C401.369 179.857 402.149 180.417 402.879 180.887C411.029 186.207 419.529 191.047 428.309 195.367C422.179 198.097 416.039 200.817 409.909 203.547C408.869 204.007 407.739 204.557 407.289 205.567C406.839 206.567 407.189 207.697 407.539 208.727C409.329 213.957 411.109 219.187 412.899 224.417L317.149 220.417L280.669 276.927C276.589 276.237 272.509 275.557 268.439 274.867C267.089 286.147 265.739 297.427 264.389 308.697C255.589 297.087 245.299 286.517 233.819 277.287C231.789 287.517 229.749 297.737 227.719 307.967C221.289 300.547 216.259 292.037 212.939 282.937C208.979 306.607 201.409 329.727 190.539 351.337C181.509 328.307 169.999 306.167 156.229 285.387C147.199 295.397 139.159 306.237 132.269 317.697C129.579 305.927 126.889 294.157 124.189 282.387C99.0186 297.917 73.8486 313.447 48.6786 328.977C60.6186 301.747 69.4186 273.257 74.8386 244.197C69.5486 244.027 64.2586 243.847 58.9586 243.677C66.1286 234.717 71.0486 224.117 73.1886 213.017C48.8986 209.867 24.5986 206.717 0.308594 203.557C15.6986 183.487 45.1186 178.107 63.4186 160.387C55.1486 155.527 47.5486 149.647 40.8486 142.937C50.8086 142.027 60.7586 141.117 70.7186 140.217C57.9486 127.497 45.1686 114.777 32.3986 102.057C49.2786 109.537 67.5286 114.177 86.0686 115.707" fill="#FF6152"/>
<path d="M402.728 212.897C401.058 207.767 399.388 202.637 397.708 197.517C397.378 196.507 397.048 195.387 397.468 194.417C397.888 193.427 398.948 192.887 399.928 192.437C405.668 189.767 411.418 187.087 417.158 184.417C408.938 180.177 400.978 175.437 393.338 170.217C392.658 169.747 391.918 169.197 391.758 168.397C391.618 167.677 391.968 166.957 392.318 166.307C394.228 162.717 396.898 155.417 398.808 151.837L359.808 128.837C353.548 132.317 353.278 132.957 347.598 137.327C347.508 130.217 343.688 124.697 341.808 117.837C335.628 122.807 331.118 124.737 323.378 126.427C323.898 119.957 322.848 115.257 323.808 108.837C316.858 109.257 311.758 108.967 305.238 111.397C306.528 104.227 306.518 103.007 307.808 95.837L281.808 73.837C273.538 82.517 268.848 84.067 259.018 90.927C253.338 84.087 248.608 76.447 245.038 68.307C240.238 72.047 236.148 76.707 233.068 81.957C229.568 55.537 226.068 29.117 222.568 2.70703C215.068 33.937 191.118 59.727 185.958 91.437C180.698 87.487 175.868 82.967 171.568 77.987C169.168 81.867 166.768 85.747 164.368 89.617C160.238 80.927 155.468 72.537 150.108 64.537C147.778 72.527 144.658 80.297 140.818 87.677C123.338 69.787 104.478 53.237 84.4783 38.217C88.0183 61.297 93.4483 84.087 100.708 106.277L96.5683 106.297C79.2083 104.797 62.1083 100.247 46.2983 92.917C58.2683 105.387 70.2283 117.867 82.1983 130.337C72.8683 131.227 63.5483 132.117 54.2183 133.007C60.4883 139.587 67.6183 145.357 75.3583 150.117C58.2183 167.487 30.6583 172.757 16.2383 192.447C38.9983 195.537 61.7583 198.627 84.5083 201.717C82.5083 212.597 77.8983 222.987 71.1783 231.777C76.1383 231.947 81.0883 232.117 86.0483 232.287C80.9683 260.787 72.7283 288.727 61.5383 315.427C85.1183 300.197 108.688 284.967 132.268 269.747C134.788 281.287 137.308 292.837 139.838 304.377C146.298 293.137 153.818 282.507 162.288 272.687C175.188 293.067 185.978 314.777 194.428 337.357C204.608 316.167 211.698 293.497 215.408 270.277C218.518 279.197 223.228 287.547 229.258 294.817C231.168 284.787 233.068 274.767 234.978 264.737C245.728 273.787 255.368 284.157 263.608 295.537C264.868 284.477 266.138 273.417 267.398 262.357C271.218 263.027 275.038 263.707 278.858 264.377" fill="white"/>
<path d="M405.138 212.227C404.098 209.057 403.068 205.877 402.028 202.707C401.548 201.237 401.068 199.777 400.598 198.307C400.208 197.117 399.288 195.737 400.458 194.947C401.728 194.097 403.398 193.557 404.788 192.907C406.228 192.237 407.658 191.567 409.098 190.907C412.208 189.457 415.318 188.007 418.438 186.567C420.128 185.787 420.018 183.067 418.438 182.247C410.668 178.227 403.118 173.777 395.858 168.887C395.628 168.737 394.248 167.777 394.288 167.977C394.218 167.637 395.028 166.527 395.198 166.157C395.858 164.767 396.458 163.357 397.058 161.947C398.318 158.977 399.488 155.947 400.988 153.087C401.618 151.887 401.298 150.377 400.088 149.667C387.288 142.117 374.618 134.237 361.648 126.997C361.468 126.897 361.288 126.757 361.098 126.667C359.048 125.747 357.058 127.487 355.358 128.517C352.158 130.457 349.318 132.877 346.368 135.157C347.618 135.877 348.878 136.597 350.128 137.317C349.918 130.077 346.178 123.967 344.248 117.157C343.688 115.197 341.498 114.917 340.068 116.057C334.838 120.217 329.228 122.567 322.738 123.997C323.788 124.797 324.848 125.607 325.898 126.407C326.298 120.777 325.468 115.097 326.238 109.487C326.448 107.997 325.628 106.217 323.828 106.327C317.288 106.697 310.828 106.727 304.598 108.977C305.628 110.007 306.648 111.027 307.678 112.057C308.178 109.247 308.628 106.427 309.068 103.597C309.258 102.337 309.458 101.087 309.668 99.8369C309.928 98.2869 310.838 96.0169 309.998 94.5669C309.158 93.1169 307.128 91.9569 305.878 90.9069C300.088 86.0069 294.288 81.0969 288.498 76.1969C286.868 74.8169 285.238 73.4369 283.608 72.0569C282.598 71.1969 281.068 71.0169 280.068 72.0569C276.848 75.4069 273.408 78.4369 269.558 81.0269C265.668 83.6569 261.638 86.0669 257.778 88.7469C258.788 88.8769 259.798 89.0069 260.808 89.1369C255.278 82.4269 250.738 74.9669 247.218 67.0169C246.498 65.3869 244.408 65.6269 243.288 66.5069C238.328 70.4269 234.168 75.2269 230.928 80.6669C232.478 81.0869 234.038 81.5069 235.588 81.9269C232.088 55.5069 228.588 29.0869 225.088 2.67691C224.748 0.116912 220.908 -0.983062 220.178 2.01694C214.188 26.5669 198.608 47.1569 189.378 70.4269C186.768 76.9969 184.728 83.7669 183.568 90.7469C184.788 90.2469 186.018 89.7469 187.238 89.2569C182.158 85.4069 177.528 80.9969 173.348 76.1969C172.258 74.9469 170.218 75.4169 169.418 76.7069C167.018 80.5869 164.618 84.4669 162.218 88.3369C163.658 88.3369 165.098 88.3369 166.538 88.3369C162.388 79.6469 157.628 71.2669 152.278 63.2569C151.098 61.4869 148.338 61.7169 147.708 63.8569C145.408 71.6569 142.398 79.1769 138.668 86.3969C139.978 86.2269 141.288 86.0569 142.598 85.8869C124.938 67.8469 105.928 51.2069 85.7483 36.0369C83.7883 34.5569 81.7883 36.9969 82.0783 38.8569C85.6383 61.9469 91.0683 84.7069 98.3083 106.917C99.1083 105.867 99.9183 104.807 100.718 103.757C92.7983 103.797 84.9683 102.507 77.2483 100.767C67.0383 98.4669 57.0783 95.1169 47.5683 90.7369C45.0783 89.5869 42.4683 92.5069 44.5383 94.6669C56.5083 107.137 68.4683 119.617 80.4383 132.087C81.0283 130.667 81.6183 129.237 82.2083 127.817C72.8783 128.707 63.5583 129.597 54.2283 130.487C52.1183 130.687 50.8683 133.097 52.4583 134.757C58.9083 141.477 66.1883 147.347 74.1083 152.257C73.9383 150.947 73.7683 149.637 73.5983 148.327C56.0983 165.887 29.2283 170.767 14.0883 191.167C13.2083 192.357 14.0683 194.637 15.5783 194.837C38.3383 197.927 61.0983 201.017 83.8483 204.107C83.2683 203.077 82.6883 202.057 82.0983 201.027C80.0683 211.767 75.6183 221.777 69.0183 230.497C67.8083 232.097 69.4783 234.197 71.1783 234.257C76.1383 234.427 81.0883 234.597 86.0483 234.767C85.2483 233.717 84.4383 232.657 83.6383 231.607C78.5283 260.117 70.2983 288.017 59.1283 314.747C58.2783 316.787 61.0883 318.677 62.7983 317.567C86.3783 302.337 109.948 287.107 133.528 271.887C132.308 271.387 131.078 270.887 129.858 270.397C132.378 281.937 134.898 293.487 137.428 305.027C137.898 307.157 140.958 307.427 141.998 305.627C148.378 294.567 155.738 284.127 164.058 274.447C162.748 274.277 161.438 274.107 160.128 273.937C172.898 294.157 183.608 315.627 192.018 338.017C192.698 339.827 195.578 340.737 196.588 338.617C206.838 317.187 214.028 294.397 217.818 270.947C216.208 270.947 214.608 270.947 212.998 270.947C216.308 280.317 221.188 288.917 227.488 296.587C228.648 297.997 231.328 297.247 231.668 295.487C233.578 285.457 235.478 275.437 237.388 265.407C235.998 265.777 234.598 266.147 233.208 266.507C243.788 275.447 253.308 285.597 261.448 296.797C262.958 298.877 265.818 298.047 266.108 295.537C267.368 284.477 268.638 273.417 269.898 262.357C268.848 263.157 267.788 263.967 266.738 264.767C270.558 265.437 274.378 266.117 278.198 266.787C281.348 267.337 282.698 262.527 279.528 261.967C275.708 261.297 271.888 260.617 268.068 259.947C266.338 259.637 265.098 260.647 264.908 262.357C263.648 273.417 262.378 284.477 261.118 295.537C262.668 295.117 264.228 294.697 265.778 294.277C257.378 282.717 247.678 272.197 236.758 262.967C235.448 261.867 232.958 262.067 232.578 264.067C230.668 274.097 228.768 284.117 226.858 294.147C228.248 293.777 229.648 293.407 231.038 293.047C225.308 286.077 220.838 278.117 217.828 269.607C217.088 267.527 213.438 266.947 213.008 269.607C209.288 292.617 202.338 315.057 192.278 336.087C193.798 336.287 195.328 336.487 196.848 336.687C188.288 313.897 177.458 292.007 164.458 271.417C163.658 270.147 161.618 269.637 160.528 270.907C151.938 280.907 144.278 291.677 137.688 303.097C139.208 303.297 140.738 303.497 142.258 303.697C139.738 292.157 137.218 280.607 134.688 269.067C134.348 267.527 132.328 266.727 131.018 267.577C107.438 282.807 83.8683 298.037 60.2883 313.257C61.5083 314.197 62.7383 315.137 63.9583 316.077C75.1283 289.347 83.3483 261.447 88.4683 232.937C88.7583 231.317 87.7883 229.837 86.0583 229.777C81.0983 229.607 76.1483 229.437 71.1883 229.267C71.9083 230.517 72.6283 231.777 73.3483 233.027C80.1683 224.017 84.8283 213.477 86.9283 202.367C87.1483 201.177 86.6083 199.487 85.1783 199.287C62.4183 196.197 39.6583 193.107 16.9083 190.017C17.4083 191.237 17.9083 192.467 18.3983 193.687C25.6183 183.957 36.3883 177.837 46.8083 172.127C57.4783 166.287 68.4483 160.567 77.1283 151.857C78.2883 150.697 77.9883 148.777 76.6183 147.927C69.0483 143.237 62.1483 137.627 55.9783 131.207C55.3883 132.627 54.7983 134.057 54.2083 135.477C63.5383 134.587 72.8583 133.697 82.1883 132.807C84.2983 132.607 85.5483 130.197 83.9583 128.537C71.9883 116.067 60.0283 103.587 48.0583 91.1169C47.0483 92.4269 46.0383 93.7369 45.0283 95.0469C54.9283 99.6069 65.2583 103.187 75.8983 105.587C84.0283 107.417 92.3583 108.797 100.698 108.757C102.258 108.747 103.618 107.157 103.108 105.597C95.8683 83.3869 90.4383 60.6269 86.8783 37.5369C85.6583 38.4769 84.4283 39.4169 83.2083 40.3569C103.038 55.2669 121.698 71.6969 139.038 89.4269C140.118 90.5369 142.228 90.3569 142.968 88.9169C146.898 81.3269 150.098 73.3769 152.518 65.1869C150.998 65.3869 149.468 65.5869 147.948 65.7869C153.298 73.7969 158.058 82.1669 162.208 90.8669C163.048 92.6369 165.608 92.3469 166.528 90.8669C168.928 86.9869 171.328 83.1069 173.728 79.2369C172.418 79.4069 171.108 79.5769 169.798 79.7469C174.278 84.8869 179.268 89.4669 184.698 93.5869C185.918 94.5069 188.128 93.5769 188.368 92.0969C192.548 67.0869 207.948 46.2369 217.968 23.4469C220.828 16.9469 223.298 10.2769 224.978 3.36691C223.338 3.14691 221.708 2.92694 220.068 2.70694C223.568 29.1269 227.068 55.5469 230.568 81.9569C230.878 84.2669 233.838 85.5469 235.228 83.2169C238.258 78.1269 242.158 73.7469 246.808 70.0669C245.498 69.8969 244.188 69.7269 242.878 69.5569C246.588 77.9169 251.438 85.6369 257.258 92.6869C257.908 93.4769 259.448 93.6569 260.288 93.0769C264.278 90.3069 268.458 87.8169 272.478 85.0769C276.528 82.3169 280.198 79.1369 283.588 75.5969C282.408 75.5969 281.228 75.5969 280.048 75.5969C288.718 82.9269 297.378 90.2669 306.048 97.5969C305.838 96.7869 305.618 95.9769 305.408 95.1669C304.488 100.347 303.768 105.557 302.838 110.727C302.538 112.427 303.958 114.507 305.918 113.807C311.748 111.697 317.708 111.677 323.818 111.327C323.018 110.277 322.208 109.217 321.408 108.167C320.568 114.247 321.318 120.317 320.888 126.417C320.768 128.117 322.578 129.157 324.048 128.827C331.438 127.187 337.658 124.317 343.588 119.597C342.198 119.227 340.798 118.857 339.408 118.497C341.198 124.797 344.918 130.647 345.108 137.327C345.158 139.017 347.278 140.717 348.868 139.487C352.858 136.407 356.668 133.457 361.078 130.997C360.238 130.997 359.398 130.997 358.558 130.997C369.938 137.707 381.318 144.417 392.698 151.137C394.318 152.087 395.938 153.047 397.558 153.997C397.258 152.857 396.958 151.717 396.658 150.577C394.938 153.867 393.628 157.357 392.168 160.757C390.838 163.837 387.658 167.907 390.428 171.017C391.848 172.617 394.048 173.717 395.818 174.877C397.908 176.247 400.028 177.577 402.158 178.877C406.648 181.607 411.228 184.167 415.898 186.577C415.898 185.137 415.898 183.697 415.898 182.257C412.308 183.927 408.718 185.597 405.128 187.267C403.218 188.157 401.298 189.047 399.388 189.937C398.038 190.567 396.678 191.197 395.768 192.437C393.608 195.367 395.628 199.207 396.608 202.207C397.838 205.987 399.078 209.777 400.308 213.557C401.318 216.607 406.148 215.297 405.138 212.227Z" fill="#FF9D91"/>
</svg>
