<svg width="613" height="395" viewBox="0 0 613 395" fill="none" xmlns="http://www.w3.org/2000/svg">
<path d="M218.691 358.027C206.951 361.537 195.781 366.767 183.871 369.747C180.921 370.487 178.311 371.047 175.451 371.147C172.401 371.247 172.391 375.997 175.451 375.897C181.281 375.697 187.071 373.937 192.591 372.177C198.961 370.147 205.211 367.777 211.501 365.497C214.301 364.477 217.111 363.467 219.961 362.607C222.881 361.737 221.631 357.157 218.691 358.027Z" fill="#1223AA"/>
<path d="M20.8513 320.988C21.6613 313.998 22.7213 306.988 23.0413 299.958C23.3213 293.868 23.1513 287.318 25.6913 281.628C26.2113 280.458 26.0313 279.078 24.8413 278.378C23.8313 277.788 22.1213 278.049 21.5913 279.229C18.7913 285.509 18.6213 292.348 18.3313 299.108C18.0213 306.428 16.9413 313.709 16.1013 320.979C15.9513 322.259 17.3013 323.358 18.4813 323.358C19.8813 323.358 20.7013 322.268 20.8513 320.988Z" fill="#1223AA"/>
<path d="M24.8904 278.019C22.5804 276.329 21.1904 273.639 19.9504 271.129C18.2904 267.769 16.7104 264.379 15.1004 260.999C11.7904 254.079 8.48039 247.149 5.17039 240.229C4.70039 241.389 4.22038 242.559 3.75038 243.719C20.2004 240.209 36.1504 234.429 50.9104 226.329C55.1604 223.999 59.3004 221.479 63.3404 218.789C65.8704 217.099 63.5004 212.989 60.9404 214.689C47.1904 223.849 32.1704 230.909 16.3304 235.619C11.7604 236.979 7.14039 238.139 2.48039 239.139C0.870388 239.479 0.440374 241.329 1.06037 242.629C4.51037 249.849 7.97039 257.069 11.4204 264.289C13.0304 267.659 14.5804 271.079 16.2904 274.409C17.8404 277.419 19.7404 280.109 22.4904 282.119C23.5304 282.879 25.1404 282.299 25.7404 281.269C26.4504 280.069 25.9304 278.779 24.8904 278.019Z" fill="#1223AA"/>
<path d="M46.5388 306.479C43.9188 301.909 41.2988 297.339 38.6888 292.759C38.0688 291.679 36.5088 291.219 35.4388 291.909C34.3488 292.609 33.9288 294.009 34.5888 295.159C37.2088 299.729 39.8288 304.299 42.4388 308.879C43.0588 309.959 44.6188 310.419 45.6888 309.729C46.7788 309.019 47.1988 307.629 46.5388 306.479Z" fill="#1223AA"/>
<path d="M187.72 353.828C182.3 350.368 176.34 347.788 170.34 345.538C163.6 343.008 156.69 340.948 149.75 339.038C136.47 335.388 122.94 332.528 109.81 328.338C104.19 326.538 98.6998 324.228 93.1698 322.158C85.1798 319.168 77.1898 316.188 69.1998 313.198C63.1598 310.938 56.9898 309.058 50.8698 307.058C49.0998 306.478 47.3298 305.898 45.5598 305.328C42.6498 304.378 41.3998 308.958 44.2998 309.908C51.6098 312.298 59.0598 314.458 66.2698 317.158C73.6698 319.928 81.0698 322.688 88.4698 325.458C94.7898 327.818 101.09 330.248 107.43 332.548C112.1 334.238 117 335.438 121.8 336.698C128.72 338.518 135.68 340.218 142.6 342.038C155.82 345.508 169.47 349.118 181.54 355.688C182.83 356.388 184.1 357.138 185.34 357.928C187.91 359.578 190.3 355.478 187.72 353.828Z" fill="#1223AA"/>
<path d="M60.259 280.94C59.299 277.92 60.749 274.95 62.129 272.31C63.719 269.26 65.129 266.31 65.509 262.85C65.879 259.5 65.499 256.12 65.809 252.76C66.119 249.41 66.979 246.12 68.179 242.97C68.639 241.77 67.669 240.37 66.519 240.05C65.179 239.68 64.059 240.51 63.599 241.71C62.299 245.12 61.489 248.66 61.109 252.29C60.739 255.8 61.209 259.35 60.759 262.84C60.329 266.16 58.409 268.91 57.039 271.88C55.539 275.11 54.559 278.69 55.679 282.2C56.599 285.11 61.189 283.87 60.259 280.94Z" fill="#1223AA"/>
<path d="M175.46 370.9C144.93 360.94 114.39 351.04 83.9403 340.85C70.9703 336.51 58.0403 332.05 45.1003 327.63C36.8203 324.8 28.5803 321.87 20.3303 318.94C19.1203 318.51 17.7303 319.43 17.4103 320.6C17.0503 321.91 17.8603 323.09 19.0703 323.52C33.2203 328.53 47.4003 333.42 61.6003 338.27C81.9603 345.22 102.37 352 122.81 358.7C139.94 364.31 157.07 369.89 174.21 375.48C177.11 376.43 178.36 371.84 175.46 370.9Z" fill="#1223AA"/>
<path d="M215.96 264.028C211.02 262.488 206.08 260.948 201.14 259.408C189.87 255.898 178.61 252.388 167.34 248.878C154.79 244.968 142.23 241.058 129.68 237.138C121.12 234.468 112.56 231.808 104 229.138C92.8496 225.668 81.8896 221.578 70.9496 217.498C68.2196 216.478 65.4896 215.458 62.7596 214.438C61.5596 213.988 60.1596 214.938 59.8396 216.098C59.4696 217.428 60.2896 218.568 61.4996 219.018C74.6496 223.918 87.7796 229.048 101.19 233.228C108.89 235.628 116.6 238.028 124.3 240.428C136.64 244.278 148.99 248.118 161.33 251.968C173.05 255.618 184.78 259.278 196.5 262.928C202.46 264.788 208.4 266.898 214.43 268.518C214.52 268.538 214.6 268.568 214.69 268.598C217.62 269.528 218.87 264.938 215.96 264.028Z" fill="#1223AA"/>
<path d="M43.2885 305.618C39.4185 307.758 35.4385 309.708 31.4585 311.648C29.1685 312.758 26.8785 313.858 24.5585 314.918C23.5785 315.358 22.6085 315.798 21.6185 316.218C21.4885 316.278 21.2785 316.358 20.7985 316.558C20.4185 316.708 20.0385 316.858 19.6485 316.998C18.4385 317.438 17.6285 318.618 17.9885 319.918C18.3085 321.078 19.6985 322.018 20.9085 321.578C25.2485 320.008 29.4185 317.908 33.5585 315.888C37.6285 313.908 41.7085 311.908 45.6685 309.718C48.3685 308.248 45.9785 304.148 43.2885 305.618Z" fill="#1223AA"/>
<path d="M203.312 286.356L218.403 383.576L280.693 369.156L339.453 392.056L371.763 343.166L390.602 315.546L469.393 197.196L483.372 168.856L474.773 109.076L448.292 3.51562L340.763 73.8456L203.312 286.356Z" fill="#FF9D91"/>
<path d="M479.078 129.027C479.598 145.557 485.088 163.377 481.148 180.117Z" fill="#FF9D91"/>
<path d="M476.58 129.028C477.15 145.768 482.58 162.758 478.74 179.458C478.02 182.588 482.84 183.928 483.56 180.788C487.53 163.538 482.17 146.318 481.58 129.028C481.47 125.818 476.47 125.808 476.58 129.028Z" fill="white"/>
<path d="M341.631 391.91C334.211 389.12 326.791 386.33 319.371 383.54C307.581 379.11 293.201 377.09 283.391 369.23" fill="#FF9D91"/>
<path d="M342.302 389.499C333.872 386.329 325.492 382.899 316.952 380.039C309.832 377.659 302.482 375.969 295.502 373.189C291.862 371.739 288.252 369.909 285.172 367.469C284.112 366.629 282.672 366.439 281.632 367.469C280.762 368.339 280.572 370.159 281.632 371.009C287.762 375.859 295.072 378.599 302.472 380.879C306.162 382.009 309.892 383.039 313.572 384.209C317.662 385.499 321.652 387.079 325.662 388.579C330.762 390.499 335.862 392.419 340.962 394.329C342.222 394.809 343.702 393.799 344.042 392.579C344.432 391.169 343.572 389.979 342.302 389.499Z" fill="white"/>
<path d="M282.88 369.008C278.43 372.748 272.45 374.018 266.73 375.148C250.29 378.418 233.85 381.688 217.41 384.968C219.02 352.048 214.71 319.978 203.82 288.828" fill="#FF9D91"/>
<path d="M281.111 367.237C278.351 369.507 274.89 370.687 271.47 371.557C267.35 372.607 263.141 373.318 258.981 374.148C250.031 375.928 241.071 377.707 232.121 379.497C226.991 380.517 221.861 381.537 216.741 382.557C217.791 383.357 218.851 384.167 219.901 384.967C221.121 359.407 218.771 333.677 212.461 308.857C210.681 301.867 208.59 294.967 206.22 288.157C205.78 286.887 204.511 286.037 203.141 286.407C201.901 286.747 200.951 288.197 201.391 289.487C209.681 313.267 214.291 338.187 215.091 363.357C215.321 370.557 215.241 377.767 214.901 384.967C214.821 386.697 216.561 387.677 218.061 387.377C227.341 385.527 236.621 383.688 245.901 381.838C250.461 380.928 255.021 380.027 259.571 379.117C263.851 378.267 268.161 377.527 272.391 376.477C276.841 375.377 281.071 373.708 284.631 370.768C285.671 369.908 285.521 368.117 284.631 367.227C283.611 366.207 282.161 366.377 281.111 367.237Z" fill="white"/>
<path d="M332.04 348.617C324.22 350.777 316.4 352.937 308.59 355.087Z" fill="#FF9D91"/>
<path d="M331.369 346.208C323.549 348.368 315.729 350.528 307.919 352.678C304.819 353.528 306.139 358.358 309.249 357.498C317.069 355.338 324.889 353.178 332.699 351.028C335.799 350.168 334.479 345.348 331.369 346.208Z" fill="white"/>
<path d="M450.473 3.36719C451.383 17.9072 453.893 32.3872 457.773 49.7872C459.313 56.6872 465.553 71.7472 467.353 79.8872C471.213 97.3472 478.013 112.147 479.073 129.017" fill="#FF9D91"/>
<path d="M447.972 3.36719C448.532 12.0972 449.652 20.7772 451.142 29.3972C451.942 34.0472 452.852 38.6872 453.812 43.2972C454.592 47.0272 455.322 50.7772 456.452 54.4172C458.572 61.2872 461.222 67.9772 463.362 74.8272C464.472 78.3672 465.222 81.9872 466.142 85.5772C467.312 90.1372 468.662 94.6472 470.012 99.1572C472.942 108.927 475.892 118.777 476.572 129.017C476.662 130.367 477.662 131.517 479.072 131.517C480.352 131.517 481.662 130.367 481.572 129.017C480.962 119.817 478.712 110.907 476.112 102.097C474.792 97.6372 473.412 93.1872 472.162 88.7072C471.032 84.6672 470.202 80.5572 469.082 76.5272C467.152 69.5872 464.502 62.8772 462.232 56.0572C459.672 48.3872 458.222 40.3772 456.742 32.4372C454.952 22.8172 453.592 13.1272 452.972 3.36719C452.882 2.01719 451.882 0.867188 450.472 0.867188C449.192 0.867188 447.892 2.01719 447.972 3.36719Z" fill="white"/>
<path d="M355.61 65.457C358.83 65.457 358.83 60.457 355.61 60.457C352.4 60.457 352.39 65.457 355.61 65.457Z" fill="white"/>
<path d="M459.259 157.234C433.139 181.194 409.949 233.284 390.709 262.974L349.869 320.534C338.429 338.194 343.549 330.294 332.109 347.954" fill="#FF9D91"/>
<path d="M457.5 155.466C450.16 162.226 443.93 170.146 438.19 178.276C431.73 187.426 425.88 197.006 420.26 206.696C414.59 216.456 409.15 226.356 403.63 236.196C398.82 244.786 394.1 253.566 388.57 261.716C383.58 269.056 378.29 276.196 373.16 283.436C365.7 293.946 358.24 304.466 350.78 314.976C345.1 322.976 339.92 331.326 334.59 339.556C333.05 341.936 331.51 344.316 329.96 346.696C328.21 349.406 332.53 351.916 334.28 349.216C337.93 343.586 341.58 337.946 345.23 332.316C347.97 328.076 350.63 323.786 353.55 319.666C360.48 309.906 367.41 300.136 374.34 290.376C380.4 281.846 386.45 273.306 392.51 264.776C396.72 258.846 400.23 252.326 403.83 246.016C409.32 236.386 414.63 226.666 420.1 217.026C425.7 207.146 431.45 197.346 437.7 187.866C443.26 179.446 449.21 171.206 456.15 163.856C457.72 162.186 459.35 160.566 461.04 159.016C463.4 156.816 459.86 153.296 457.5 155.466Z" fill="white"/>
<path d="M298.522 319.057C294.062 319.467 289.812 317.077 286.352 314.257C282.882 311.437 279.802 308.067 275.882 305.917C271.602 303.567 266.642 302.837 261.932 301.557C255.282 299.747 248.952 296.767 243.332 292.797" fill="#FF9D91"/>
<path d="M298.52 316.556C290.62 317.136 285.23 309.306 279.44 305.206C272.71 300.446 264.06 300.086 256.54 297.146C252.31 295.486 248.301 293.246 244.591 290.636C243.481 289.856 241.81 290.436 241.17 291.536C240.44 292.786 240.96 294.176 242.07 294.956C249.08 299.866 256.88 302.956 265.16 304.936C269.1 305.876 273 306.876 276.4 309.166C279.68 311.376 282.37 314.326 285.49 316.746C289.21 319.626 293.68 321.916 298.52 321.556C299.87 321.456 301.02 320.476 301.02 319.056C301.02 317.786 299.88 316.456 298.52 316.556Z" fill="white"/>
<path d="M442.424 101.609C427.264 96.129 412.094 90.6491 396.934 85.1591C392.924 83.7091 388.794 82.1891 385.684 79.2891" fill="#FF9D91"/>
<path d="M443.092 99.1983C433.242 95.6383 423.392 92.0782 413.552 88.5182C408.702 86.7682 403.862 85.0183 399.012 83.2583C394.992 81.8083 390.682 80.4582 387.462 77.5182C385.082 75.3582 381.542 78.8882 383.922 81.0582C386.672 83.5582 389.922 85.1482 393.362 86.4882C397.032 87.9182 400.772 89.1982 404.482 90.5382C412.372 93.3882 420.272 96.2482 428.162 99.0982C432.692 100.738 437.232 102.378 441.762 104.018C443.032 104.478 444.502 103.498 444.842 102.268C445.222 100.878 444.362 99.6583 443.092 99.1983Z" fill="white"/>
<path d="M480.401 180.895C473.261 191.915 466.111 202.945 458.971 213.965C437.021 247.845 415.061 281.725 392.781 315.395L362.541 360.695C352.601 375.515 352.531 375.465 342.461 390.195" fill="#FF9D91"/>
<path d="M478.241 179.636C464.891 200.236 451.551 220.846 438.181 241.446C424.851 261.986 411.481 282.506 398.011 302.956C392.461 311.376 386.871 319.766 381.271 328.156C375.151 337.326 369.031 346.496 362.901 355.666C356.861 364.706 350.751 373.696 344.601 382.666C343.171 384.756 341.731 386.846 340.301 388.936C339.541 390.046 340.091 391.706 341.201 392.356C342.441 393.076 343.861 392.576 344.621 391.456C351.761 381.016 358.931 370.606 365.951 360.086C371.701 351.476 377.451 342.866 383.201 334.256C387.941 327.156 392.701 320.056 397.411 312.936C410.911 292.506 424.291 271.996 437.631 251.466C451.001 230.886 464.331 210.296 477.671 189.696C479.301 187.186 480.921 184.676 482.551 182.166C484.321 179.456 479.991 176.946 478.241 179.636Z" fill="white"/>
<path d="M450.47 3.36719C442.54 9.84719 433.92 15.4972 424.79 20.1772C402.02 31.8772 366.82 52.9772 345.5 70.7872C344.5 71.6172 343.64 72.5972 342.94 73.6972L238.74 238.367C223.87 260.677 219.31 266.937 203.82 288.827" fill="#FF9D91"/>
<path d="M448.709 1.6072C443.959 5.4772 438.949 9.02719 433.749 12.2572C429.059 15.1672 424.169 17.6672 419.299 20.2472C410.349 24.9772 401.559 29.9972 392.879 35.2072C383.429 40.8872 374.119 46.7972 365.039 53.0572C360.799 55.9772 356.609 58.9772 352.509 62.0972C350.479 63.6372 348.469 65.1972 346.479 66.7972C344.429 68.4472 342.409 70.0372 340.929 72.2572C339.019 75.1072 337.249 78.0672 335.409 80.9672C330.709 88.3872 326.009 95.8172 321.309 103.237C314.839 113.457 308.379 123.667 301.909 133.887C294.759 145.177 287.619 156.467 280.469 167.767C273.739 178.397 267.019 189.027 260.289 199.657C255.079 207.887 249.879 216.117 244.669 224.337C242.079 228.427 239.489 232.527 236.899 236.617C228.829 249.377 219.979 261.697 211.259 274.017C208.059 278.537 204.859 283.057 201.659 287.577C200.879 288.677 201.459 290.357 202.559 290.997C203.809 291.727 205.199 291.207 205.979 290.097C217.639 273.627 229.239 257.127 240.439 240.337C242.429 237.357 244.299 234.277 246.219 231.247C250.879 223.877 255.539 216.517 260.199 209.147C266.649 198.947 273.109 188.757 279.559 178.557C286.709 167.267 293.849 155.977 300.999 144.687C307.739 134.047 314.469 123.397 321.209 112.757C326.419 104.517 331.639 96.2772 336.849 88.0372C339.489 83.8772 342.119 79.7072 344.759 75.5472C344.879 75.3572 344.999 75.1672 345.119 74.9872C346.489 72.8872 348.709 71.3872 350.649 69.8372C352.489 68.3672 354.349 66.9372 356.229 65.5272C364.789 59.1072 373.679 53.1272 382.709 47.3872C391.809 41.6072 401.069 36.0772 410.459 30.7872C419.469 25.7272 428.869 21.2972 437.609 15.7572C442.699 12.5272 447.579 8.9672 452.259 5.1572C453.309 4.3072 453.149 2.50719 452.259 1.61719C451.209 0.567191 449.759 0.747197 448.709 1.6072Z" fill="white"/>
<path d="M332.043 348.617C334.023 356.327 339.143 380.667 339.833 388.587Z" fill="#FF9D91"/>
<path d="M329.622 349.276C332.352 359.956 334.512 370.846 336.342 381.716C336.572 383.056 336.782 384.396 336.982 385.746C337.002 385.916 337.122 386.726 337.092 386.506C337.052 386.236 337.152 386.976 337.162 387.086C337.222 387.586 337.272 388.086 337.322 388.586C337.442 389.926 338.382 391.086 339.822 391.086C341.082 391.086 342.442 389.936 342.322 388.586C341.862 383.446 340.842 378.336 339.882 373.276C338.732 367.246 337.492 361.226 336.152 355.236C335.612 352.796 335.062 350.366 334.442 347.946C333.652 344.836 328.832 346.156 329.622 349.276Z" fill="white"/>
<path d="M469.33 263.327C464.8 262.687 460.44 265.767 457.8 269.497C455.16 273.227 454.13 277.877 453.76 282.437C453.49 285.767 453.61 289.367 455.55 292.097C457.25 294.487 460.06 295.797 462.81 296.797C466.25 298.047 469.96 298.967 473.56 298.297C479.49 297.197 484.01 291.717 485.04 285.777C486.06 279.837 484.02 273.667 480.55 268.737C479.11 266.697 477.29 264.727 474.88 264.067L469.33 263.327Z" fill="#FF9D91"/>
<path d="M469.33 260.078C460.09 258.978 453.27 268.218 451.42 276.208C450.45 280.408 449.93 285.098 450.87 289.348C451.86 293.818 455.11 297.028 459.2 298.828C463.43 300.698 468.21 302.218 472.88 301.658C477.01 301.168 480.81 299.178 483.55 296.028C489.56 289.118 489.62 279.748 485.98 271.688C484.06 267.448 480.73 262.278 475.94 261.008C474.11 260.518 472.08 260.458 470.2 260.208C468.46 259.978 466.71 260.628 466.2 262.478C465.78 263.988 466.72 266.238 468.47 266.478C470.06 266.688 471.65 266.908 473.24 267.118C475.45 267.418 476.84 269.038 478.1 270.918C480.01 273.758 481.47 277.048 481.92 280.408C482.32 283.398 481.82 286.628 480.55 289.028C479.22 291.528 477.53 293.318 474.91 294.548C475.21 294.408 474.36 294.758 474.23 294.798C473.9 294.908 473.56 294.998 473.21 295.078C472.43 295.258 471.64 295.308 470.84 295.298C468.98 295.278 467.18 294.828 465.41 294.278C463.74 293.758 462.34 293.258 460.92 292.468C459.59 291.738 458.62 291.008 457.92 289.808C456.45 287.268 456.79 283.658 457.2 280.598C457.65 277.228 458.8 273.348 460.92 270.758C462.08 269.338 463.28 268.268 464.84 267.418C466.27 266.638 467.62 266.398 469.34 266.608C471.09 266.818 472.59 264.968 472.59 263.358C472.58 261.398 471.08 260.278 469.33 260.078Z" fill="#1223AA"/>
<path d="M472.68 240.188C483.43 243.658 493.75 248.438 503.36 254.368C503.95 250.698 505.76 247.348 507.62 244.128C534.42 197.618 574.34 160.358 608.77 119.168C609.19 118.658 609.64 118.078 609.58 117.418C609.53 116.818 609.06 116.338 608.61 115.938C604.58 112.308 599.64 109.898 594.88 107.308C576.75 97.478 560.32 84.508 546.54 69.168C530.85 129.268 505.06 186.708 470.57 238.368" fill="#FF9D91"/>
<path d="M471.821 243.316C482.311 246.726 492.331 251.386 501.721 257.176C503.371 258.196 506.141 257.306 506.491 255.236C507.201 251.136 509.341 247.606 511.411 244.066C513.541 240.426 515.761 236.826 518.051 233.286C522.541 226.326 527.321 219.556 532.291 212.936C542.241 199.696 553.011 187.096 563.981 174.706C575.081 162.166 586.421 149.826 597.491 137.256C600.291 134.076 603.071 130.876 605.821 127.656C607.151 126.106 608.471 124.546 609.791 122.986C611.411 121.056 613.481 118.986 612.631 116.216C611.951 113.996 609.631 112.506 607.871 111.196C606.171 109.926 604.361 108.816 602.511 107.766C598.901 105.716 595.191 103.836 591.611 101.746C577.391 93.4462 564.371 83.1862 552.951 71.3162C551.551 69.8562 550.181 68.3762 548.831 66.8762C547.181 65.0462 543.991 66.0262 543.401 68.3062C537.281 91.7062 529.651 114.706 520.561 137.126C511.521 159.416 500.991 181.106 489.131 202.036C482.431 213.856 475.301 225.426 467.761 236.736C466.791 238.196 467.471 240.336 468.931 241.186C470.521 242.116 472.401 241.486 473.381 240.016C486.881 219.766 499.071 198.646 509.831 176.816C520.611 154.936 529.991 132.356 537.871 109.276C542.281 96.3462 546.221 83.2562 549.671 70.0362C547.861 70.5162 546.051 70.9962 544.241 71.4662C555.231 83.6762 567.881 94.3962 581.701 103.286C585.161 105.506 588.691 107.616 592.291 109.596C595.881 111.576 599.581 113.386 602.991 115.666C603.731 116.166 604.461 116.676 605.151 117.236C605.491 117.516 605.831 117.796 606.151 118.086C606.271 118.196 606.561 118.436 606.561 118.436C606.521 118.456 606.461 116.876 606.461 116.866C606.261 116.826 604.831 118.816 604.641 119.036C603.931 119.876 603.231 120.706 602.521 121.546C599.871 124.656 597.191 127.756 594.501 130.826C583.611 143.266 572.421 155.436 561.441 167.796C550.401 180.206 539.591 192.826 529.471 205.996C524.471 212.506 519.651 219.156 515.091 225.986C512.831 229.376 510.631 232.806 508.511 236.276C506.331 239.836 504.041 243.426 502.311 247.226C501.391 249.246 500.621 251.306 500.241 253.496C501.831 252.846 503.421 252.206 505.011 251.556C495.151 245.486 484.561 240.616 473.551 237.046C471.881 236.506 470.001 237.676 469.551 239.316C469.071 241.076 470.151 242.776 471.821 243.316Z" fill="#1223AA"/>
<path d="M338.26 199.166C340.51 198.976 342.73 199.266 344.93 200.066C347.13 200.856 349.26 202.136 351.31 203.896C353.47 205.746 355.099 207.736 356.219 209.866C357.329 211.996 357.939 214.186 358.039 216.426C358.139 218.666 357.74 220.916 356.83 223.196C355.92 225.466 354.56 227.666 352.74 229.786C350.8 232.056 348.75 233.786 346.59 234.986C344.43 236.186 342.229 236.886 339.979 237.086C337.729 237.286 335.51 236.986 333.31 236.186C331.11 235.396 328.98 234.116 326.93 232.356C324.77 230.506 323.14 228.516 322.02 226.386L338.26 199.166ZM332.4 212.366C331.38 213.556 330.599 214.786 330.049 216.056C329.499 217.326 329.19 218.586 329.12 219.846C329.06 221.096 329.259 222.286 329.729 223.406C330.199 224.526 330.96 225.536 332.02 226.446C334.01 228.146 336.2 228.866 338.59 228.606C340.98 228.346 343.4 226.776 345.87 223.906C347.99 221.426 349.12 218.926 349.27 216.396C349.41 213.876 348.4 211.686 346.25 209.836C345.29 209.016 344.27 208.406 343.19 208.006C342.11 207.606 340.969 207.496 339.789 207.666C338.609 207.836 337.389 208.296 336.159 209.046C334.909 209.786 333.66 210.896 332.4 212.366Z" fill="#1223AA"/>
<path d="M317.512 210.787L305.252 203.227L297.902 215.127L290.422 210.507L309.052 180.297L316.542 184.917L309.532 196.277L321.792 203.847L328.802 192.487L336.292 197.097L317.652 227.307L310.172 222.687L317.512 210.787Z" fill="#1223AA"/>
<path d="M387.341 199.077L393.24 194.627L393.031 194.367L376.99 195.997L375.85 194.567L380.711 178.917L380.451 178.597L375.07 183.577L366.73 190.227L370.3 179.527C370.39 179.247 370.561 178.997 370.771 178.787L385.151 165.477L390.85 172.617L385.87 188.107L386.04 188.317L401.91 186.477L407.651 193.667L379.91 215.807L374.641 209.197L387.341 199.077Z" fill="#1223AA"/>
<path d="M384.7 230.509L387.02 223.499L386.7 223.399L374.43 233.869L372.69 233.339L367.78 217.709L367.39 217.589L365.81 224.749L361.1 240.379L353.59 238.119L363.81 204.129L372.56 206.769L377.27 222.339L377.53 222.419L389.53 211.869L398.34 214.529L388.12 248.509L380.02 246.069L384.7 230.509Z" fill="#1223AA"/>
<path d="M297.061 189.346C296.571 191.206 294.671 192.316 292.811 191.826C290.951 191.336 289.841 189.436 290.331 187.576C290.821 185.716 292.721 184.606 294.591 185.096C296.441 185.576 297.551 187.486 297.061 189.346Z" fill="#FF6152"/>
<path d="M353.719 162.088C352.429 163.518 350.229 163.628 348.799 162.348C347.369 161.058 347.259 158.858 348.539 157.428C349.829 155.998 352.029 155.888 353.459 157.168C354.889 158.458 355.009 160.658 353.719 162.088Z" fill="#FF6152"/>
<path d="M350.309 246.518C349.019 247.948 346.819 248.068 345.389 246.778C343.959 245.488 343.849 243.288 345.129 241.858C346.419 240.428 348.619 240.308 350.049 241.598C351.479 242.878 351.599 245.088 350.309 246.518Z" fill="#FF6152"/>
<path d="M370.472 173.039L361.872 169.759L349.142 179.419L348.892 179.319L345.312 163.449L343.342 162.699C343.302 164.549 342.952 166.409 342.222 168.289C341.342 170.579 340.012 172.799 338.232 174.939C336.322 177.229 334.302 178.999 332.162 180.229C330.972 180.919 329.772 181.429 328.552 181.799L324.152 193.359L331.482 196.149L337.292 180.889L339.392 173.859L339.772 174.009L343.542 189.949L345.252 190.599L358.232 181.039L358.552 181.159L355.732 187.989L349.942 203.179L357.842 206.189L370.472 173.039Z" fill="#1223AA"/>
<path d="M307.92 150.067C309.83 147.777 311.85 146.007 313.99 144.777C316.13 143.537 318.32 142.807 320.57 142.587C322.81 142.357 325.04 142.627 327.25 143.387C329.46 144.147 331.61 145.397 333.69 147.127C335.88 148.947 337.54 150.917 338.68 153.027C339.82 155.147 340.46 157.327 340.6 159.557C340.73 161.787 340.36 164.057 339.49 166.337C338.61 168.627 337.28 170.847 335.5 172.987C333.59 175.277 331.57 177.047 329.43 178.277C327.29 179.507 325.1 180.247 322.85 180.467C320.61 180.697 318.38 180.427 316.17 179.667C313.96 178.907 311.81 177.657 309.73 175.927C307.55 174.107 305.89 172.137 304.74 170.027C303.6 167.907 302.96 165.727 302.83 163.497C302.69 161.257 303.06 158.997 303.94 156.717C304.8 154.437 306.14 152.217 307.92 150.067ZM314.89 155.867C313.89 157.067 313.12 158.307 312.59 159.587C312.06 160.867 311.76 162.127 311.72 163.387C311.68 164.637 311.89 165.827 312.38 166.937C312.86 168.047 313.64 169.047 314.72 169.947C316.73 171.617 318.93 172.307 321.32 172.017C323.7 171.727 326.11 170.127 328.53 167.207C330.62 164.697 331.71 162.177 331.82 159.647C331.93 157.117 330.89 154.947 328.7 153.127C327.73 152.317 326.7 151.727 325.61 151.347C324.52 150.967 323.39 150.867 322.2 151.047C321.02 151.237 319.81 151.707 318.59 152.477C317.36 153.247 316.13 154.377 314.89 155.867Z" fill="#1223AA"/>
<path d="M247.559 225.976C257.279 230.746 267.209 235.086 277.099 239.496C282.069 241.716 287.029 243.956 291.959 246.266C297.049 248.656 302.049 251.216 307.149 253.586C317.859 258.576 329.089 262.316 339.809 267.286C350.419 272.206 360.819 277.706 370.999 283.466C372.119 284.106 372.739 284.726 373.289 285.896C373.969 287.346 374.529 288.856 375.139 290.336C376.439 293.486 377.739 296.636 379.049 299.796C381.719 306.256 384.389 312.716 387.049 319.166C387.569 320.416 388.709 321.306 390.129 320.916C391.309 320.596 392.389 319.096 391.879 317.836C389.469 311.996 387.049 306.146 384.639 300.306C383.459 297.466 382.289 294.616 381.109 291.776C379.959 288.986 378.909 286.106 377.609 283.376C376.329 280.666 374.029 279.426 371.509 278.056C368.859 276.606 366.219 275.166 363.559 273.736C358.389 270.956 353.189 268.226 347.909 265.636C342.439 262.956 336.889 260.446 331.239 258.156C325.749 255.926 320.179 253.896 314.739 251.546C309.279 249.196 303.989 246.526 298.639 243.936C293.769 241.576 288.849 239.326 283.909 237.106C272.599 232.016 261.199 227.116 250.069 221.646C248.859 221.056 247.369 221.316 246.649 222.546C246.019 223.656 246.349 225.386 247.559 225.976Z" fill="white"/>
<path d="M321.089 108.418C337.289 116.728 353.589 124.838 369.999 132.728C386.409 140.618 402.909 148.308 419.519 155.768C428.859 159.968 438.229 164.098 447.629 168.168C448.869 168.708 450.309 168.538 451.049 167.268C451.669 166.208 451.399 164.388 450.149 163.848C433.439 156.618 416.819 149.178 400.299 141.528C383.779 133.878 367.359 126.008 351.039 117.928C341.859 113.388 332.719 108.768 323.609 104.098C320.759 102.628 318.219 106.948 321.089 108.418Z" fill="white"/>
</svg>
