<svg width="101" height="120" viewBox="0 0 101 120" fill="none" xmlns="http://www.w3.org/2000/svg">
<path d="M93.3174 76.3485L93.8373 107.369L73.7074 106.208L56.6773 116.469L44.0173 103.009L36.6873 95.4286L0.0273438 54.8086L2.08734 1.55859L39.2573 17.6686L93.3174 76.3485Z" fill="#FF6152"/>
<path d="M1.52833 43.4909C2.24833 48.8309 1.50832 54.3709 3.61832 59.4809C4.00832 60.4209 4.85832 61.0809 5.92832 60.7909C6.80832 60.5509 7.62833 59.4309 7.23833 58.4809C5.14833 53.4309 5.86832 47.8009 5.14832 42.4909C5.00832 41.4909 3.72832 40.9409 2.83832 41.1809C1.75832 41.4809 1.38833 42.4809 1.52833 43.4909Z" fill="white"/>
<path d="M61.0367 118.94C64.1267 117.13 67.1767 115.22 70.3867 113.64C73.2167 112.25 76.1467 110.86 78.2967 108.49C79.9167 106.71 77.2767 104.05 75.6467 105.84C73.6567 108.03 70.8667 109.23 68.2567 110.52C65.1267 112.07 62.1567 113.94 59.1467 115.71C57.0667 116.93 58.9467 120.17 61.0367 118.94Z" fill="white"/>
<path d="M76.1786 108.69C79.3386 110.38 83.2186 110.01 86.6786 110.1C90.5586 110.2 94.4387 110.3 98.3187 110.4C99.5887 110.43 100.379 109.18 100.129 108.03C97.9887 98.3101 97.5987 88.2601 99.2087 78.4301C99.5987 76.0701 95.9786 75.0501 95.5886 77.4301C93.8586 87.9601 94.2186 98.6001 96.5086 109.03C97.1086 108.24 97.7187 107.45 98.3187 106.66C94.7687 106.57 91.2187 106.47 87.6687 106.38C85.9387 106.33 84.1987 106.29 82.4687 106.24C80.9687 106.2 79.4287 106.18 78.0687 105.45C75.9487 104.31 74.0486 107.55 76.1786 108.69Z" fill="white"/>
<path d="M60.7562 105.228C63.2962 105.478 65.8462 105.738 68.3862 105.988C69.3662 106.088 70.3062 105.058 70.2662 104.108C70.2162 103.008 69.4362 102.338 68.3862 102.228C65.8462 101.978 63.2962 101.718 60.7562 101.468C59.7762 101.368 58.8362 102.398 58.8762 103.348C58.9362 104.458 59.7162 105.128 60.7562 105.228Z" fill="white"/>
<path d="M3.63834 2.41907C4.31834 8.94907 4.22834 15.5791 3.14834 22.0591C2.60834 25.2891 2.44835 28.5391 2.06835 31.7891C1.62835 35.5191 1.09834 39.239 1.46834 42.999C1.56834 44.009 2.25835 44.879 3.34835 44.879C4.28835 44.879 5.31834 44.019 5.22834 42.999C4.85834 39.239 5.38834 35.5191 5.82834 31.7891C6.19834 28.6291 6.36834 25.479 6.89834 22.339C7.99834 15.779 8.09834 9.03907 7.39834 2.41907C7.28834 1.40907 6.60835 0.539062 5.51835 0.539062C4.57835 0.539062 3.52834 1.40907 3.63834 2.41907Z" fill="white"/>
<path d="M38.1667 17.7383C40.5767 17.7383 40.5867 13.9883 38.1667 13.9883C35.7567 13.9883 35.7467 17.7383 38.1667 17.7383Z" fill="#1223AA"/>
<path d="M10.0577 52.3196C15.6577 55.9696 20.1177 61.3397 24.3477 66.4297C28.4277 71.3397 32.1977 76.6297 36.6377 81.2397C41.4077 86.1897 46.3877 90.9497 51.2477 95.7897C54.0577 98.5897 56.6777 101.58 59.3677 104.49C61.0077 106.27 63.6577 103.61 62.0177 101.84C59.5177 99.1296 57.0977 96.3196 54.4877 93.7196C51.8377 91.0796 49.1877 88.4397 46.5377 85.7997C44.1777 83.4497 41.7877 81.1197 39.4577 78.7497C35.4377 74.6497 32.0277 69.9096 28.3977 65.4696C23.5377 59.5296 18.4377 53.3096 11.9477 49.0796C9.91774 47.7596 8.03774 50.9996 10.0577 52.3196Z" fill="white"/>
<path d="M69.5988 94.2596C71.4788 94.0496 73.0087 93.1496 74.2887 91.7496C75.3887 90.5496 76.2388 89.0297 77.6588 88.1697C79.1288 87.2797 80.8087 86.7697 82.3087 85.9197C83.8987 85.0197 85.3687 83.8796 86.6687 82.5996C88.3887 80.8996 85.7388 78.2496 84.0188 79.9496C82.9288 81.0196 81.7388 81.9296 80.4088 82.6896C78.9888 83.4996 77.4088 83.9897 75.9888 84.7997C74.5388 85.6297 73.4887 86.8096 72.4688 88.0996C71.7788 88.9596 70.7688 90.3796 69.5988 90.5096C68.5888 90.6196 67.7188 91.2896 67.7188 92.3896C67.7188 93.3096 68.5788 94.3796 69.5988 94.2596Z" fill="white"/>
<path d="M14.2077 34.1307C17.1677 32.4507 20.1277 30.7606 23.0877 29.0806C24.5477 28.2506 26.0077 27.4206 27.4577 26.5906C28.7577 25.8506 30.0677 25.0506 31.0177 23.8706C31.6477 23.0806 31.7877 21.9906 31.0177 21.2206C30.3577 20.5606 29.0077 20.4306 28.3677 21.2206C27.5377 22.2606 26.4277 22.8607 25.2877 23.5107C23.8277 24.3407 22.3777 25.1706 20.9177 26.0006C18.0477 27.6306 15.1877 29.2607 12.3177 30.8907C10.2177 32.0907 12.1077 35.3307 14.2077 34.1307Z" fill="white"/>
<path d="M4.36625 60.5093C19.3462 76.7393 34.3563 92.9493 49.5563 108.979C52.4863 112.069 55.4463 115.119 58.4163 118.169C60.0963 119.899 62.7463 117.249 61.0663 115.519C48.8263 102.909 36.8062 90.0892 24.8662 77.1892C18.9062 70.7492 12.9663 64.2993 7.01626 57.8593C5.38626 56.0793 2.73625 58.7293 4.36625 60.5093Z" fill="white"/>
<path d="M4.55927 4.03748C10.6093 7.41748 17.3893 9.0974 23.8293 11.5774C27.0293 12.8074 30.1993 14.1275 33.3193 15.5575C34.7793 16.2275 36.2393 16.9275 37.6693 17.6675C38.8793 18.2875 40.3893 18.8774 41.3593 19.8374C44.0793 22.5474 46.5493 25.5874 49.1293 28.4374C54.5193 34.3974 59.8993 40.3674 65.2893 46.3274C69.9893 51.5374 74.6993 56.7474 79.3993 61.9474C83.6093 66.6074 87.9493 71.1175 92.3993 75.5575C93.6293 76.7875 94.8593 78.0174 96.0993 79.2474C97.8093 80.9574 100.459 78.3074 98.7493 76.5974C93.4593 71.3174 88.1493 66.0474 83.1393 60.4974C78.7293 55.6174 74.3193 50.7374 69.9193 45.8574C64.4293 39.7874 58.9493 33.7075 53.4593 27.6375C50.3593 24.2075 47.3093 20.7174 44.1493 17.3374C42.9593 16.0674 41.2693 15.3175 39.7393 14.5175C36.7493 12.9675 33.6793 11.5875 30.5793 10.2775C27.4193 8.94747 24.2293 7.68747 20.9993 6.52747C17.9693 5.43747 14.8493 4.55746 11.8493 3.38746C9.98928 2.65746 8.20927 1.76749 6.46927 0.797489C4.34927 -0.382511 2.45927 2.85748 4.55927 4.03748Z" fill="white"/>
<path d="M58.8882 103.36C58.7182 105.49 58.6482 107.641 58.5882 109.781C58.5282 111.911 58.4282 114.07 58.5982 116.2C58.6782 117.21 59.3982 118.08 60.4782 118.08C61.4282 118.08 62.4382 117.22 62.3582 116.2C62.1882 114.07 62.2882 111.911 62.3482 109.781C62.4082 107.641 62.4782 105.5 62.6482 103.36C62.7282 102.35 61.7282 101.48 60.7682 101.48C59.6782 101.48 58.9682 102.35 58.8882 103.36Z" fill="white"/>
</svg>
