<svg width="78" height="106" viewBox="0 0 78 106" fill="none" xmlns="http://www.w3.org/2000/svg">
<path d="M27.2677 5.69733C32.2077 6.52733 37.1577 7.35732 42.0977 8.18732C43.3177 8.38732 44.5277 8.58743 45.7477 8.79743C45.8377 8.81743 46.5677 8.97733 46.5877 8.94733C46.5877 8.94733 45.7977 7.82735 45.8177 7.83735C45.8277 7.83735 45.3877 8.85737 45.3277 8.98737C44.3277 11.1374 43.3477 13.2974 42.3877 15.4674C38.4477 24.3474 34.8277 33.3574 31.5277 42.4974C29.6477 47.7074 27.8877 52.9574 26.2277 58.2374C25.2577 61.3174 30.0877 62.6273 31.0477 59.5673C34.1777 49.6073 37.6877 39.7573 41.5877 30.0773C43.5177 25.2873 45.5477 20.5373 47.6677 15.8273C48.1877 14.6773 48.7177 13.5174 49.2477 12.3774C49.7277 11.3374 50.3577 10.2674 50.6377 9.15741C50.9177 8.03741 50.8877 6.79743 50.2577 5.79743C49.4177 4.45743 48.0277 4.15742 46.5877 3.91742C40.5877 2.90742 34.5877 1.9074 28.5877 0.897404C27.2577 0.677404 25.8977 1.2474 25.5077 2.6474C25.1877 3.8174 25.9277 5.47733 27.2677 5.69733Z" fill="white"/>
<path d="M24.7783 4.08768C21.9283 13.6077 19.0783 23.1277 16.2283 32.6477C14.8083 37.4077 13.3783 42.1678 11.9583 46.9278C11.6283 48.0378 11.2983 49.1477 10.9583 50.2577C10.6083 51.4377 9.98828 52.7777 10.0083 54.0277C10.0583 56.5377 12.5483 57.9477 14.7483 58.3877C15.7483 58.5877 16.7783 58.5878 17.7783 58.7978C18.8883 59.0378 19.9183 59.5577 20.9783 59.9777C23.1183 60.8277 25.3083 61.4978 27.5383 62.0478C30.6683 62.8078 31.9983 57.9877 28.8683 57.2277C27.0083 56.7777 25.1683 56.2377 23.3683 55.5677C21.7083 54.9577 20.1283 54.1177 18.3683 53.8577C17.5483 53.7377 16.7082 53.7078 15.9082 53.5378C15.5882 53.4678 15.2583 53.3877 14.9583 53.2377C14.4983 53.0177 14.3383 52.6477 14.7883 53.4777C15.2283 54.2877 15.1183 53.7877 15.2783 53.2577C15.9383 51.0377 16.6083 48.8177 17.2683 46.5977C19.8783 37.8677 22.4883 29.1478 25.0983 20.4178C26.5983 15.4178 28.0883 10.4178 29.5883 5.42777C30.5183 2.32777 25.6983 1.00768 24.7783 4.08768Z" fill="white"/>
<path d="M8.55957 64.6665C6.12957 65.7465 4.69957 68.5264 3.49957 70.7664C2.33957 72.9464 1.34958 75.2165 1.00958 77.6765C0.699583 79.9265 0.899593 82.3664 2.26959 84.2764C4.00959 86.7064 6.76957 87.4764 9.61957 87.7364C14.6696 88.1864 20.0696 86.3865 22.9596 82.0465C25.7296 77.8865 25.3996 72.0564 21.5096 68.7064C19.4496 66.9364 16.9396 65.8764 14.4196 64.9664C13.3596 64.5864 12.1896 64.2864 11.0496 64.3164C10.9896 64.3164 10.9196 64.3264 10.8596 64.3264C10.6296 64.3564 10.3996 64.3865 10.1696 64.4165C10.8196 64.3565 10.9996 64.3264 10.6996 64.3264C10.4196 64.2864 10.1096 64.3264 9.82959 64.3264C6.60959 64.3264 6.60959 69.3264 9.82959 69.3264C10.3996 69.3264 10.9296 69.3164 11.4896 69.2364C10.4796 69.3764 10.8596 69.2865 11.1496 69.3065C11.2196 69.3165 11.3296 69.3164 11.3996 69.3164C11.7496 69.2864 10.9296 69.1964 11.5696 69.3364C13.4496 69.7564 14.9396 70.4064 16.4996 71.2664C17.2796 71.6964 17.7896 72.0364 18.2696 72.4964C18.4296 72.6464 18.5796 72.8064 18.7296 72.9664C19.0396 73.2764 18.9196 73.1764 18.8396 73.0664C18.9996 73.2764 19.1496 73.5064 19.2796 73.7364C19.3196 73.8064 19.6195 74.4464 19.4695 74.0664C19.6295 74.4564 19.7296 74.8765 19.7996 75.2865C19.7296 74.8965 19.7996 75.3064 19.7996 75.3764C19.8096 75.6364 19.8196 75.8864 19.8196 76.1364C19.7996 76.6764 19.6795 77.3764 19.3495 78.2464C19.4995 77.8364 19.1696 78.6164 19.1796 78.6064C19.0996 78.7664 19.0196 78.9164 18.9296 79.0664C18.8196 79.2564 18.6996 79.4364 18.5796 79.6164C18.3196 80.0064 18.9496 79.2164 18.4196 79.8364C17.7796 80.5764 17.2896 80.9864 16.5196 81.4464C15.0296 82.3264 13.3296 82.7264 11.6496 82.7764C9.9196 82.8364 8.05958 82.8264 6.75958 81.8564C6.99958 82.0364 6.15959 81.1065 6.45959 81.5565C6.36959 81.4265 6.30954 81.2965 6.21954 81.1665C5.86954 80.6465 6.27956 81.5265 6.10956 80.9265C6.06956 80.7765 6.01955 80.6364 5.97955 80.4864C5.98955 80.5164 5.8496 79.7664 5.8996 80.1264C5.9496 80.4864 5.87958 79.7064 5.87958 79.7464C5.86958 79.4964 5.86958 79.2564 5.87958 79.0064C5.90958 78.2164 6.03957 77.6065 6.36957 76.5565C6.71957 75.4565 6.91958 75.0364 7.50958 73.8864C8.06958 72.7964 8.67955 71.7364 9.34955 70.7064C9.51955 70.4464 9.69958 70.1765 9.87958 69.9165C10.1396 69.5465 9.79958 69.9264 10.1296 69.6064C10.2496 69.4964 10.3596 69.3664 10.4896 69.2664C10.1996 69.4864 10.9896 69.0364 11.0896 68.9864C12.3196 68.4364 12.6096 66.6364 11.9896 65.5664C11.2396 64.2864 9.79957 64.1165 8.55957 64.6665Z" fill="white"/>
<path d="M64.6796 67.8273C66.1496 69.4573 67.6196 71.0873 69.0796 72.7173C69.7896 73.4973 70.4896 74.2873 71.1996 75.0673C71.7996 75.7373 72.7796 76.5573 73.1396 77.3273C73.0296 76.9073 72.9096 76.4873 72.7996 76.0673C72.7896 75.5373 73.7696 74.8173 72.7796 75.3273C72.4296 75.5073 72.0796 75.6773 71.7396 75.8473C71.1096 76.1673 70.4896 76.4774 69.8696 76.7974C68.5496 77.4774 67.2396 78.1573 65.9396 78.8573C63.2596 80.2873 60.6096 81.7774 57.9896 83.2974C52.8096 86.3074 47.7296 89.5074 42.7696 92.8674C40.1196 94.6574 42.6196 98.9973 45.2896 97.1873C52.7696 92.1273 60.5096 87.4374 68.4696 83.1774C70.3896 82.1474 72.3296 81.1374 74.2696 80.1574C76.2996 79.1274 78.8296 77.4774 77.4696 74.7974C76.9796 73.8274 76.1196 73.0474 75.3996 72.2474C74.6396 71.3974 73.8796 70.5573 73.1196 69.7073C71.4896 67.8973 69.8596 66.0874 68.2296 64.2774C66.0496 61.8874 62.5296 65.4373 64.6796 67.8273Z" fill="white"/>
<path d="M64.2005 64.3471C56.9705 69.3871 49.7505 74.4171 42.5205 79.4571C40.7505 80.6871 38.9605 81.9072 37.2005 83.1672C36.1205 83.9372 35.1505 84.6872 35.0605 86.1372C35.0105 86.9872 35.2905 87.7672 35.5705 88.5572C36.1905 90.2972 37.0305 91.5271 38.3005 92.8471C39.5605 94.1471 40.3505 95.7972 41.7105 97.0272C44.0905 99.1872 47.6405 95.6572 45.2505 93.4872C43.9405 92.2972 43.1705 90.7171 41.9605 89.4371C41.4705 88.9171 40.9905 88.5372 40.6705 87.8872C40.4405 87.4172 40.0205 86.5772 40.0605 86.1272C39.9505 86.5472 39.8305 86.9672 39.7205 87.3872C39.7405 87.3472 40.6905 86.7972 40.9505 86.6172C41.5605 86.1872 42.1805 85.7571 42.7905 85.3371C43.8805 84.5771 44.9705 83.8172 46.0605 83.0572C48.3805 81.4372 50.7005 79.8271 53.0105 78.2071C57.5805 75.0271 62.1405 71.8372 66.7105 68.6572C67.8205 67.8872 68.3305 66.4672 67.6105 65.2372C66.9805 64.1472 65.3105 63.5671 64.2005 64.3471Z" fill="white"/>
<path d="M33.3097 89.9481C31.7597 88.3281 29.4597 88.7882 27.5197 89.3082C26.1097 89.6882 24.8797 90.4382 23.6297 91.1582C22.1697 92.0082 20.7397 93.2081 19.9197 94.7181C18.8997 96.6081 18.8797 98.8781 20.0597 100.708C21.9997 103.718 25.7097 105.958 29.3197 105.888C33.5097 105.808 37.4397 102.598 37.2697 98.1782C37.1897 96.0382 36.2497 94.0081 35.1197 92.2181C34.6197 91.4181 33.9197 90.6881 33.3097 89.9481C32.4697 88.9381 30.6297 89.0181 29.7697 89.9481C28.7797 91.0281 28.8797 92.4081 29.7697 93.4881C30.1497 93.9381 30.5197 94.3981 30.8997 94.8481C30.9597 94.9181 31.0297 94.9981 31.0897 95.0681C31.0397 94.9881 30.6797 94.4581 30.9197 94.9381C30.9797 95.0681 31.0697 95.1882 31.1397 95.3082C31.3197 95.6182 31.4897 95.9382 31.6597 96.2582C31.7197 96.3882 31.7797 96.5182 31.8497 96.6482C32.1197 97.1682 31.7597 96.3381 31.9297 96.8381C32.0397 97.1681 32.1597 97.4981 32.2297 97.8381C32.2597 97.9581 32.3097 98.1181 32.3097 98.2481C32.3097 97.6781 32.2897 98.0981 32.2797 98.1981C32.2697 98.3681 32.2697 98.5481 32.2697 98.7181C32.2797 99.0681 32.4497 98.1882 32.2497 98.7882C32.2097 98.9282 32.1697 99.0681 32.1297 99.2081C32.0297 99.4781 32.0297 99.4881 32.1197 99.2481C32.0797 99.3181 32.0497 99.3881 32.0097 99.4581C31.9297 99.5881 31.8397 99.7281 31.7597 99.8581C31.5897 100.158 32.1597 99.4781 31.7397 99.8681C31.5597 100.038 31.3997 100.248 31.1897 100.388C31.7297 100.048 30.8497 100.548 30.7397 100.608C30.4697 100.768 30.7097 100.728 30.8097 100.588C30.7597 100.658 30.3097 100.748 30.2197 100.778C30.0597 100.818 29.8897 100.848 29.7297 100.888C29.3597 100.988 30.3297 100.878 29.7097 100.888C29.4497 100.898 29.1897 100.908 28.9397 100.898C28.9097 100.898 28.2797 100.868 28.6997 100.888C29.1097 100.918 28.4997 100.848 28.4597 100.838C28.1497 100.768 27.8397 100.688 27.5297 100.578C27.5097 100.568 26.9297 100.338 27.2897 100.498C27.6497 100.658 27.0797 100.388 27.0597 100.378C26.8297 100.258 26.5997 100.128 26.3797 99.9981C26.2697 99.9281 25.4397 99.3381 25.9197 99.7181C25.6597 99.5181 25.4197 99.2981 25.1797 99.0781C24.9397 98.8481 24.7197 98.5981 24.4897 98.3581C24.3997 98.2681 24.2597 97.9881 24.4897 98.3681C24.4197 98.2581 24.3397 98.1182 24.2597 98.0182C23.9097 97.5682 24.2897 98.2681 24.2097 97.9581C24.1797 97.8481 24.0397 97.5881 24.0797 97.4881C24.0697 97.5181 24.1497 98.1082 24.1197 97.6282C24.0897 97.0982 23.9697 98.1181 24.1097 97.6181C24.1397 97.5081 24.1697 97.3982 24.1997 97.2882C24.3297 96.7582 23.9997 97.6081 24.1797 97.3281C24.2597 97.2081 24.3297 97.0681 24.3997 96.9481C24.6097 96.5681 24.3697 96.9482 24.3297 97.0182C24.4797 96.7682 24.7597 96.5281 24.9597 96.3381C25.0497 96.2481 25.1497 96.1681 25.2397 96.0881C25.7097 95.6681 24.8197 96.3682 25.3397 96.0082C25.9197 95.6082 26.5397 95.2881 27.1497 94.9381C27.3597 94.8181 27.5497 94.6881 27.7597 94.5681C27.8297 94.5281 27.8997 94.4781 27.9797 94.4381C28.3797 94.2181 28.0097 94.3081 27.9097 94.4481C28.0197 94.2981 28.5797 94.2182 28.7697 94.1682C29.0597 94.0882 29.3597 94.0181 29.6597 93.9581C29.7797 93.9281 29.9097 93.9082 30.0297 93.8882C30.1497 93.8682 30.2797 93.8481 30.3997 93.8281C30.2997 93.8381 30.1997 93.8581 30.0997 93.8681C30.2097 93.8081 30.3997 93.8581 30.5297 93.8281C30.7197 93.8281 30.6397 93.8082 30.2897 93.7782C30.0897 93.7282 29.9197 93.6382 29.7597 93.5082C30.6697 94.4582 32.3897 94.4882 33.2997 93.5082C34.2397 92.4682 34.2797 90.9581 33.3097 89.9481Z" fill="white"/>
</svg>
