<svg width="396" height="256" viewBox="0 0 396 256" fill="none" xmlns="http://www.w3.org/2000/svg">
<path d="M3.54827 222.128C33.5283 237.718 66.1683 247.858 99.6283 252.418C132.948 256.958 166.908 256.069 199.948 249.809C233.088 243.529 265.258 231.728 294.358 214.638C322.118 198.328 347.128 176.789 365.878 150.509C375.078 137.609 382.648 123.489 387.848 108.499C390.388 101.169 392.338 93.6385 393.618 85.9885C394.268 82.1085 394.758 78.1985 395.068 74.2785C395.228 72.3185 395.338 70.3484 395.398 68.3884C395.458 66.5584 395.008 65.6686 393.588 64.5886C388.348 60.5886 382.118 57.8486 376.138 55.0986C368.958 51.7986 361.628 48.8485 354.168 46.2485C338.628 40.8185 322.578 36.8584 306.338 34.1684C273.298 28.6984 239.458 28.2486 206.288 32.8486C175.008 37.1786 143.958 46.0685 116.638 62.1885C90.0983 77.8485 67.5783 99.4284 48.9883 123.878C29.8283 149.088 14.8683 177.309 3.00827 206.609C2.00827 209.079 -0.171731 212.478 0.618269 215.138C1.16827 216.988 1.80827 218.808 2.39827 220.638C3.38827 223.688 8.21827 222.379 7.21827 219.309C6.59827 217.399 6.02827 215.479 5.36827 213.589C5.33827 213.489 5.31826 213.369 5.26826 213.279C5.34826 213.419 5.08827 214.118 5.54827 213.678C6.07827 213.168 6.34827 211.638 6.61827 210.938C7.37827 209.018 8.14827 207.108 8.93827 205.208C11.9983 197.788 15.2883 190.459 18.7983 183.229C25.6983 168.999 33.4683 155.179 42.2183 141.999C59.3983 116.139 80.6383 92.6186 106.198 74.8186C118.918 65.9686 132.638 58.5084 147.078 52.8884C161.968 47.0984 177.528 42.9485 193.218 40.0085C226.138 33.8385 260.158 33.1086 293.368 37.2886C325.648 41.3586 357.858 50.2984 386.538 65.8884C388.398 66.8984 389.978 68.0886 391.648 69.3586C391.238 68.6386 390.818 67.9185 390.408 67.1985C389.618 97.3185 377.798 125.798 360.148 149.908C342.068 174.608 318.128 194.859 291.808 210.329C264.408 226.429 234.308 237.699 203.198 244.089C171.968 250.509 139.718 251.938 108.028 248.468C76.5183 245.008 45.4183 236.539 16.6983 223.089C13.1083 221.409 9.55827 219.649 6.04827 217.819C3.21827 216.329 0.688269 220.638 3.54827 222.128Z" fill="#1223AA"/>
<path d="M201.628 225.365C249.931 225.365 289.088 186.208 289.088 137.905C289.088 89.6024 249.931 50.4453 201.628 50.4453C153.325 50.4453 114.168 89.6024 114.168 137.905C114.168 186.208 153.325 225.365 201.628 225.365Z" stroke="#1223AA" stroke-width="6" stroke-miterlimit="10"/>
<path d="M207.226 129.856C214.216 121.986 220.286 113.276 224.896 103.796C229.366 94.6156 232.526 84.8456 234.416 74.8056C235.546 68.8156 236.256 62.7455 236.636 56.6655C236.836 53.4555 231.836 53.4655 231.636 56.6655C230.396 76.5655 225.006 95.9355 214.086 112.736C210.976 117.526 207.486 122.036 203.686 126.306C201.566 128.726 205.086 132.276 207.226 129.856Z" fill="#1223AA"/>
<path d="M209.54 135.626C214.31 134.516 218.85 132.596 222.93 129.866C226.95 127.176 230.53 123.906 234.08 120.636C242.65 112.746 249.78 103.636 256.84 94.4056C260.63 89.4456 264.33 84.4056 266.28 78.3956C267.28 75.3256 262.45 74.0158 261.46 77.0658C259.84 82.0558 256.71 86.3757 253.57 90.5157C250.28 94.8457 246.98 99.1658 243.51 103.356C239.99 107.606 236.3 111.726 232.27 115.506C228.93 118.636 225.57 121.846 221.85 124.536C217.7 127.546 213.19 129.636 208.2 130.806C205.08 131.536 206.41 136.356 209.54 135.626Z" fill="#1223AA"/>
<path d="M208.877 135.717C213.857 135.177 218.897 135.007 223.817 134.037C229.437 132.937 234.997 131.077 240.457 129.337C251.027 125.957 261.357 121.627 270.137 114.727C274.757 111.097 278.787 106.757 281.917 101.777C283.637 99.0473 279.307 96.5373 277.597 99.2573C272.427 107.477 264.517 113.487 255.947 117.837C250.967 120.367 245.747 122.347 240.447 124.087C235.187 125.817 229.837 127.517 224.447 128.797C219.327 130.017 214.077 130.157 208.867 130.727C207.527 130.877 206.367 131.767 206.367 133.227C206.377 134.447 207.527 135.857 208.877 135.717Z" fill="#1223AA"/>
<path d="M206.448 141.738C227.888 147.818 250.938 147.908 272.448 142.128C278.598 140.478 284.598 138.308 290.418 135.738C291.658 135.188 291.938 133.388 291.318 132.318C290.578 131.048 289.137 130.878 287.897 131.418C268.387 140.038 246.537 143.078 225.397 140.508C219.447 139.788 213.548 138.548 207.778 136.918C204.678 136.038 203.348 140.868 206.448 141.738Z" fill="#1223AA"/>
<path d="M205.306 141.529C212.356 150.149 219.586 158.869 229.026 164.989C233.906 168.159 239.276 170.469 244.696 172.529C250.136 174.589 255.666 176.659 261.306 178.079C267.656 179.689 274.496 180.309 280.736 177.899C281.996 177.409 282.866 176.219 282.486 174.819C282.156 173.619 280.676 172.589 279.406 173.069C274.326 175.029 268.966 174.729 263.746 173.509C258.286 172.239 252.986 170.249 247.736 168.319C242.616 166.439 237.556 164.329 232.886 161.489C228.436 158.779 224.476 155.389 220.826 151.699C216.556 147.379 212.696 142.679 208.856 137.979C207.996 136.929 206.206 137.089 205.316 137.979C204.266 139.029 204.446 140.479 205.306 141.529Z" fill="#1223AA"/>
<path d="M199.628 145.449C204.578 156.249 211.108 166.219 218.058 175.829C221.438 180.509 224.888 185.139 228.398 189.729C231.508 193.789 234.738 197.809 238.558 201.249C242.798 205.059 247.718 208.129 253.338 209.369C256.478 210.069 257.808 205.249 254.668 204.549C245.268 202.459 238.598 194.819 232.958 187.519C226.108 178.639 219.368 169.589 213.368 160.109C209.878 154.589 206.678 148.879 203.948 142.939C203.388 141.709 201.608 141.409 200.528 142.039C199.268 142.759 199.068 144.209 199.628 145.449Z" fill="#1223AA"/>
<path d="M199.547 144.309C198.637 155.389 198.897 166.558 199.577 177.638C200.217 187.998 200.917 198.589 203.907 208.589C205.587 214.209 208.037 219.639 211.537 224.359C212.337 225.439 213.707 225.989 214.957 225.259C216.027 224.639 216.657 222.929 215.857 221.839C209.937 213.849 207.357 204.108 206.057 194.378C204.657 183.878 204.137 173.159 204.007 162.569C203.927 156.479 204.057 150.379 204.557 144.309C204.667 142.959 203.327 141.809 202.057 141.809C200.607 141.809 199.657 142.959 199.547 144.309Z" fill="#1223AA"/>
<path d="M192.976 142.336C180.866 160.256 172.906 181.006 169.916 202.426C169.066 208.526 168.576 214.666 168.496 220.836C168.456 224.056 173.456 224.056 173.496 220.836C173.736 199.846 178.826 178.946 188.276 160.206C190.946 154.906 193.966 149.786 197.286 144.866C199.106 142.186 194.776 139.676 192.976 142.336Z" fill="#1223AA"/>
<path d="M139.358 197.159C150.848 180.589 165.348 165.549 182.008 154.129C186.628 150.959 191.458 148.089 196.488 145.609C197.698 145.019 198.028 143.289 197.388 142.189C196.668 140.949 195.188 140.699 193.968 141.289C175.208 150.499 158.968 164.999 145.578 180.889C141.858 185.299 138.328 189.889 135.038 194.629C134.268 195.739 134.838 197.409 135.938 198.049C137.178 198.779 138.578 198.269 139.358 197.159Z" fill="#1223AA"/>
<path d="M118.218 162.638C134.918 151.188 154.108 144.938 173.928 141.508C179.578 140.528 185.258 139.768 190.958 139.128C192.298 138.978 193.458 138.088 193.458 136.628C193.458 135.398 192.308 133.978 190.958 134.128C170.358 136.448 149.788 140.348 130.998 149.438C125.678 152.008 120.568 154.988 115.698 158.318C114.588 159.078 114.088 160.518 114.798 161.738C115.448 162.838 117.098 163.408 118.218 162.638Z" fill="#1223AA"/>
<path d="M207.948 127.828C208.398 122.178 208.858 116.518 209.308 110.868C209.758 105.268 210.388 99.6376 210.418 94.0176C210.448 88.5376 209.798 82.9876 208.928 77.5876C208.088 72.4176 206.768 67.3675 204.928 62.4575C203.038 57.3975 200.548 52.7675 196.988 48.6775C196.098 47.6575 194.358 47.7675 193.448 48.6775C192.438 49.6875 192.558 51.1875 193.448 52.2175C199.528 59.2175 202.338 68.7975 203.908 77.7575C204.788 82.7775 205.358 87.9476 205.418 93.0476C205.478 98.4176 204.878 103.797 204.448 109.147C203.948 115.377 203.448 121.598 202.948 127.828C202.838 129.178 204.178 130.328 205.448 130.328C206.898 130.328 207.848 129.178 207.948 127.828Z" fill="#1223AA"/>
<path d="M156.417 64.548C164.307 69.828 171.497 76.198 177.277 83.768C180.107 87.478 182.597 91.3479 184.417 95.6579C186.237 99.9679 187.627 104.458 188.947 108.948C190.697 114.928 190.817 121.098 190.877 127.288C190.907 130.508 195.907 130.508 195.877 127.288C195.817 121.408 195.717 115.448 194.327 109.698C193.167 104.898 191.547 100.108 189.727 95.528C185.967 86.068 179.687 77.848 172.337 70.848C168.207 66.918 163.677 63.4079 158.937 60.2379C156.257 58.4379 153.757 62.768 156.417 64.548Z" fill="#1223AA"/>
<path d="M129.4 88.6272C148.16 94.1472 165.94 103.257 180.33 116.647C184.44 120.477 188.26 124.617 191.76 129.017C192.6 130.077 194.42 129.897 195.3 129.017C196.34 127.977 196.14 126.537 195.3 125.477C182.64 109.577 165.84 97.5472 147.17 89.6572C141.81 87.3872 136.32 85.4473 130.74 83.8073C127.63 82.8873 126.31 87.7172 129.4 88.6272Z" fill="#1223AA"/>
<path d="M114.988 128.049C134.698 126.199 154.518 126.929 173.558 132.719C179.058 134.389 184.448 136.429 189.698 138.789C190.928 139.339 192.388 139.149 193.118 137.889C193.748 136.819 193.458 135.029 192.218 134.469C182.788 130.229 172.988 126.899 162.848 124.859C153.008 122.879 142.968 122.029 132.928 122.089C126.938 122.129 120.948 122.479 114.988 123.039C113.648 123.169 112.488 124.099 112.488 125.539C112.488 126.799 113.638 128.169 114.988 128.049Z" fill="#1223AA"/>
<path d="M119.958 27.7281C104.718 33.8681 90.8585 42.6782 78.1585 53.0482C65.4385 63.4382 53.9585 75.2782 43.0385 87.5182C36.8285 94.4782 30.7885 101.578 24.7685 108.708C23.8985 109.738 23.7585 111.228 24.7685 112.248C25.6585 113.138 27.4285 113.288 28.3085 112.248C38.8085 99.8281 49.3785 87.4382 60.7885 75.8282C72.0085 64.4182 84.0585 53.7382 97.5185 45.0282C105.038 40.1682 112.978 35.8982 121.298 32.5482C122.548 32.0482 123.428 30.8781 123.048 29.4681C122.708 28.2881 121.218 27.2181 119.958 27.7281Z" fill="#1223AA"/>
<path d="M107.357 18.0079C88.1972 21.6179 69.2871 26.4679 50.7571 32.5179C47.7071 33.5079 49.0171 38.338 52.0871 37.338C70.6171 31.288 89.5372 26.438 108.687 22.828C110.017 22.578 110.767 20.9779 110.437 19.7479C110.047 18.3679 108.687 17.7579 107.357 18.0079Z" fill="#1223AA"/>
<path d="M97.1094 2.76726C82.7994 0.527258 68.3094 -0.172703 53.8594 0.807297C52.5094 0.897297 51.3594 1.8873 51.3594 3.3073C51.3594 4.5873 52.5094 5.8973 53.8594 5.8073C67.8394 4.8573 81.9294 5.40733 95.7794 7.58733C97.1094 7.79733 98.4694 7.24733 98.8594 5.83733C99.1894 4.65733 98.4594 2.97726 97.1094 2.76726Z" fill="#1223AA"/>
</svg>
