<svg width="392" height="334" viewBox="0 0 392 334" fill="none" xmlns="http://www.w3.org/2000/svg">
<path d="M0.429688 149.489C4.81969 183.819 13.5797 203.509 34.8197 231.819C52.8197 255.819 86.8197 289.819 107.82 300.819C124.18 309.389 163.49 326.899 194.82 330.819C234.82 335.819 310.64 339.189 389.82 298.819L386.82 290.819C371.82 244.819 359.72 212.789 329.82 176.819C299.92 140.849 252.78 113.189 207.88 100.079C139.6 80.1489 64.5497 103.419 6.53967 144.589L0.429688 149.489Z" fill="white"/>
<path d="M64.4416 73.8689C54.6116 63.2789 47.3216 50.409 43.3216 36.529C42.6316 34.149 41.0416 30.2489 42.2516 27.8289C43.3916 25.5489 46.4216 27.939 47.6416 29.169C50.1016 31.639 51.9015 34.9489 53.6015 37.9589C55.4115 41.1589 57.0116 44.479 58.3416 47.899C61.4016 55.759 63.2316 64.0589 63.6716 72.4789C63.9116 71.8889 64.1616 71.2989 64.4016 70.7089C63.2316 71.7689 62.0616 72.8189 60.8916 73.8789C58.5016 76.0389 62.0416 79.569 64.4316 77.419C65.1116 76.809 65.7816 76.1989 66.4616 75.5889C67.4316 74.7089 68.6216 73.9389 68.6816 72.4789C68.7716 70.1489 68.3116 67.6689 68.0016 65.3589C67.6916 63.0789 67.3016 60.799 66.8016 58.549C64.7816 49.419 61.2016 40.589 56.2716 32.639C54.0216 29.009 51.5016 24.829 47.5116 22.889C45.5516 21.929 43.3616 21.5389 41.2816 22.3789C39.2816 23.1989 37.8716 24.8889 37.2716 26.9489C36.1216 30.9289 37.7516 35.469 38.9016 39.269C40.2316 43.629 41.8916 47.899 43.8016 52.039C48.1016 61.329 53.9216 69.909 60.8816 77.409C63.1016 79.769 66.6316 76.2289 64.4416 73.8689Z" fill="#1223AA"/>
<path d="M179.201 44.4794C174.031 34.0394 171.801 22.2495 172.741 10.6495C172.871 9.03947 173.421 6.75943 174.691 5.73943C174.951 5.52943 174.991 5.48942 175.251 5.47942C174.761 5.50942 175.161 5.55939 175.171 5.56939C175.801 6.30939 175.951 7.31946 176.161 8.26946C177.461 14.1995 178.051 20.2694 177.991 26.3394C177.931 33.1994 176.991 39.9994 175.241 46.6294C174.421 49.7394 179.241 51.0694 180.061 47.9594C181.881 41.0694 182.881 33.9395 182.981 26.7995C183.081 19.8495 182.521 12.5495 180.711 5.8095C179.971 3.0495 177.991 0.379474 174.831 0.529474C171.951 0.669474 169.941 3.16944 168.881 5.61944C167.651 8.45944 167.601 11.6095 167.541 14.6595C167.481 18.0895 167.691 21.5095 168.141 24.9095C169.161 32.6195 171.441 40.0394 174.891 46.9994C176.311 49.8794 180.621 47.3494 179.201 44.4794Z" fill="#1223AA"/>
<path d="M330.83 151.081C344.55 143.881 360.7 141.091 376.03 143.491C379.13 143.981 383.24 144.341 385.65 146.591C386.51 147.401 387.04 148.561 386.92 149.721C386.81 150.761 385.96 151.261 384.79 151.501C382.86 151.891 380.77 151.771 378.81 151.851C376.57 151.941 374.34 152.021 372.1 152.081C367.63 152.221 363.16 152.321 358.68 152.381C348.49 152.521 338.3 152.461 328.11 152.201C328.91 153.251 329.72 154.311 330.52 155.361C331 153.431 331.49 151.511 331.97 149.581C332.75 146.461 327.93 145.131 327.15 148.251C326.67 150.181 326.18 152.101 325.7 154.031C325.3 155.631 326.46 157.151 328.11 157.191C338.05 157.441 347.99 157.501 357.93 157.381C362.9 157.321 367.87 157.211 372.84 157.051C375.32 156.971 377.81 156.881 380.29 156.781C382.44 156.691 384.76 156.771 386.84 156.131C390.92 154.861 392.87 150.661 391.46 146.661C390.06 142.701 386.34 140.661 382.47 139.671C374.13 137.541 365.11 137.211 356.58 138.161C346.69 139.261 337.12 142.141 328.3 146.761C325.45 148.261 327.98 152.571 330.83 151.081Z" fill="#1223AA"/>
<path d="M192.921 302.049C241.224 302.049 280.381 262.892 280.381 214.589C280.381 166.286 241.224 127.129 192.921 127.129C144.618 127.129 105.461 166.286 105.461 214.589C105.461 262.892 144.618 302.049 192.921 302.049Z" fill="#FF6152"/>
<path d="M267.53 79.2181C272.96 65.2381 282.95 53.0181 295.51 44.8481C297.09 43.8181 298.71 42.8381 300.37 41.9481C300.71 41.7681 301.06 41.5781 301.44 41.5081C301.58 41.4781 302.24 41.4981 301.84 41.4381C302 41.4581 302.13 41.5382 302.28 41.5582C302.22 41.5482 301.95 41.3982 302.18 41.5382C301.92 41.3682 302.53 41.8981 302.28 41.6081C302.34 41.6781 302.42 41.8081 302.45 41.8981C302.59 42.2581 302.34 41.5481 302.48 41.9381C302.58 42.2081 302.65 42.4881 302.71 42.7681C302.71 42.7681 302.78 43.1781 302.75 42.9481C302.71 42.6781 302.77 43.2181 302.77 43.2781C302.78 43.6481 302.79 44.0181 302.77 44.3881C302.72 45.3381 302.35 46.8581 301.97 47.6981C300.48 50.9581 298.15 54.0681 295.96 56.8881C293.58 59.9381 290.94 62.7981 288.12 65.4381C281.84 71.3081 274.54 75.9881 266.62 79.3281C267.63 79.4581 268.64 79.5881 269.65 79.7181C268.74 78.7381 267.82 77.7582 266.91 76.7882C264.71 74.4282 261.18 77.9781 263.37 80.3281C264.28 81.3081 265.2 82.2881 266.11 83.2581C266.94 84.1481 268.12 84.0781 269.14 83.6481C277.02 80.3181 284.28 75.6281 290.63 69.9081C293.8 67.0581 296.72 63.9381 299.37 60.5881C301.89 57.3881 304.55 53.9381 306.28 50.2281C307.65 47.2881 308.41 43.5381 307.23 40.4081C306.6 38.7481 305.44 37.3982 303.74 36.7982C301.58 36.0382 299.44 36.7881 297.52 37.8381C290.18 41.8481 283.48 47.2181 277.86 53.4081C271.34 60.5781 266.24 68.8681 262.73 77.8981C262.24 79.1581 263.27 80.6381 264.48 80.9781C265.87 81.3481 267.04 80.4781 267.53 79.2181Z" fill="#1223AA"/>
</svg>
