<svg width="565" height="432" viewBox="0 0 565 432" fill="none" xmlns="http://www.w3.org/2000/svg">
<path d="M15.4078 175.806C14.0178 157.466 12.6978 139.116 11.4378 120.756C11.2878 118.556 11.1177 116.356 10.9877 114.146C10.8777 112.226 10.7478 110.156 11.4778 108.326C12.5278 105.716 15.1778 104.206 17.6978 103.296C21.2278 102.026 25.0178 101.436 28.6978 100.766C32.9778 99.9964 37.2777 99.3364 41.5877 98.8064C59.1877 96.6464 76.9678 96.2964 94.6678 97.0364C112.428 97.7764 130.128 99.5864 147.768 101.766C152.178 102.306 156.588 102.876 160.998 103.456C165.238 104.016 169.528 104.456 173.748 105.166C174.268 105.256 175.118 105.316 175.478 105.756C175.778 106.126 175.798 106.876 175.868 107.326C176.128 109.016 176.368 110.556 177.368 111.996C179.168 114.576 182.328 116.176 185.488 116.076C187.088 116.026 188.678 115.576 190.008 114.666C188.788 113.726 187.558 112.786 186.338 111.846C184.668 116.276 186.638 121.756 190.758 124.106C194.868 126.446 200.598 125.426 203.568 121.716C202.258 121.546 200.948 121.376 199.638 121.206C203.538 128.356 214.398 129.776 220.028 123.906C218.608 123.316 217.178 122.726 215.758 122.136C216.688 141.646 217.008 161.176 216.698 180.706C216.608 186.276 216.468 191.836 216.278 197.406C216.168 200.626 221.168 200.616 221.278 197.406C221.938 177.886 221.988 158.356 221.408 138.836C221.238 133.266 221.028 127.706 220.758 122.146C220.658 120.056 218.058 118.746 216.488 120.376C213.058 123.946 206.358 123.086 203.948 118.686C203.238 117.386 201.028 116.926 200.018 118.176C198.438 120.156 195.588 121.096 193.268 119.786C190.948 118.476 190.248 115.556 191.148 113.176C191.908 111.166 189.218 109.166 187.478 110.356C185.698 111.566 183.268 111.226 181.748 109.526C181.518 109.276 181.238 108.786 181.138 108.536C180.838 107.706 180.808 106.796 180.668 105.936C180.358 103.996 179.448 102.206 177.678 101.216C175.968 100.256 173.878 100.186 171.968 99.9264C169.668 99.6164 167.368 99.3064 165.068 99.0064C160.588 98.4064 156.098 97.8264 151.608 97.2564C133.728 94.9964 115.798 93.0664 97.7977 92.1864C79.8577 91.3164 61.8278 91.5064 43.9678 93.5364C39.4478 94.0464 34.9378 94.6764 30.4478 95.4164C26.4278 96.0864 22.3378 96.7264 18.4078 97.8264C15.1478 98.7464 11.8077 100.126 9.39774 102.586C6.55774 105.476 5.77775 109.326 5.93775 113.266C6.31775 122.496 7.18775 131.726 7.83775 140.936C8.49775 150.236 9.17775 159.536 9.87775 168.836C10.0478 171.156 10.2277 173.486 10.3977 175.806C10.4977 177.156 11.4777 178.306 12.8977 178.306C14.1777 178.306 15.5078 177.166 15.4078 175.806Z" fill="white"/>
<path d="M10.0508 200.708C10.0708 209.548 10.3508 218.388 10.8708 227.218C11.0608 230.418 16.0608 230.438 15.8708 227.218C15.3508 218.388 15.0708 209.548 15.0508 200.708C15.0408 197.498 10.0408 197.488 10.0508 200.708Z" fill="#1223AA"/>
<path d="M4.97944 193.316C6.34944 187.136 11.7194 182.676 17.8294 181.506C21.1294 180.876 24.1494 181.666 27.2694 182.996C29.4694 183.936 31.6494 184.766 34.0794 184.846C36.0794 184.916 38.1094 184.456 39.9494 183.706C43.8594 182.116 47.0394 179.436 50.4894 177.076C53.2994 175.156 56.9094 173.266 60.4294 173.666C63.5594 174.026 64.9094 176.666 66.3194 179.126C67.8494 181.806 69.7094 184.826 72.9494 185.556C75.4394 186.116 77.7894 185.266 79.8994 183.956C82.1094 182.586 84.2694 181.166 86.5694 179.946C91.0894 177.526 95.8495 175.646 100.779 174.256C99.8395 173.876 98.8994 173.486 97.9594 173.106C102.159 182.866 115.089 186.916 124.649 183.186C127.479 182.086 130.039 180.416 132.009 178.076C130.619 177.706 129.219 177.336 127.829 176.976C131.479 185.816 136.329 193.986 142.379 201.406C143.019 202.196 144.579 202.386 145.409 201.796C150.689 198.056 155.019 193.166 157.919 187.366C156.779 187.666 155.639 187.966 154.499 188.266C158.189 190.486 161.879 192.716 165.569 194.936C167.419 196.046 169.259 197.166 171.109 198.276C172.849 199.316 174.629 200.256 176.679 200.456C178.809 200.666 180.769 199.856 182.659 198.996C184.579 198.116 186.479 197.226 188.389 196.336C192.299 194.526 196.199 192.706 200.109 190.896C198.859 190.176 197.599 189.456 196.349 188.736C196.289 194.156 199.609 199.276 204.619 201.346C209.619 203.416 215.679 202.006 219.379 198.096C221.589 195.756 218.059 192.216 215.839 194.556C213.509 197.016 209.759 198.046 206.549 196.766C203.339 195.486 201.309 192.116 201.349 188.726C201.369 186.686 199.239 185.796 197.589 186.566C194.049 188.206 190.519 189.856 186.979 191.496C185.209 192.316 183.439 193.136 181.669 193.956C180.219 194.636 178.489 195.736 176.809 195.456C175.279 195.206 173.849 194.086 172.559 193.306C170.859 192.276 169.149 191.256 167.449 190.226C163.969 188.126 160.489 186.036 157.019 183.936C155.919 183.276 154.199 183.636 153.599 184.836C151.099 189.846 147.469 194.226 142.879 197.466C143.889 197.596 144.899 197.726 145.909 197.856C140.449 191.166 135.939 183.616 132.649 175.636C132.009 174.076 129.819 172.936 128.469 174.536C121.549 182.736 106.559 180.516 102.269 170.576C101.839 169.586 100.409 169.156 99.4494 169.426C94.8294 170.726 90.3394 172.456 86.0394 174.586C83.9494 175.616 81.9194 176.756 79.9394 177.976C78.3694 178.946 76.3994 180.836 74.4294 180.736C74.0894 180.716 74.2994 180.786 73.8994 180.616C73.8594 180.596 73.7494 180.566 73.4494 180.386C73.2294 180.256 73.2494 180.276 72.9394 179.976C72.6994 179.746 72.3694 179.366 72.2394 179.196C71.4394 178.146 70.6794 176.636 69.9394 175.386C68.0694 172.216 65.5694 169.456 61.7694 168.816C57.6294 168.116 53.4494 169.506 49.8694 171.536C46.2394 173.596 43.1794 176.536 39.4394 178.446C37.8294 179.266 36.0794 179.846 34.2594 179.816C32.1094 179.786 30.1094 178.766 28.1694 177.956C24.5394 176.436 20.8694 175.926 16.9694 176.566C9.06943 177.866 1.89942 184.046 0.149418 191.946C-0.540582 195.126 4.27944 196.466 4.97944 193.316Z" fill="white"/>
<path d="M6.91932 200.607C9.90932 199.227 13.9193 197.827 17.0093 198.837C18.2493 199.237 19.0793 200.277 19.4693 201.627C19.9293 203.237 19.9493 204.737 20.1593 206.447C20.3893 208.337 20.7193 210.277 21.8793 211.847C23.2993 213.777 25.5393 214.767 27.9293 214.657C30.7493 214.527 33.5893 213.477 36.3093 212.767C39.0093 212.057 41.7193 211.347 44.4193 210.637C50.7793 208.967 57.1393 207.297 63.4993 205.637C62.5593 205.257 61.6193 204.867 60.6793 204.487C62.8093 208.017 65.2093 211.377 67.8493 214.547C69.0193 215.957 70.2393 217.507 71.9293 218.307C73.9593 219.267 76.1093 218.937 77.9993 217.787C79.7693 216.717 81.3493 215.247 82.9793 213.967C84.7993 212.537 86.6093 211.107 88.4293 209.677C91.9293 206.927 95.4293 204.167 98.9293 201.417C97.7493 201.417 96.5693 201.417 95.3893 201.417C98.8393 204.187 102.279 206.947 105.729 209.717C107.419 211.077 109.089 212.447 110.799 213.777C112.349 214.987 113.999 216.117 115.989 216.417C119.339 216.927 121.759 214.797 123.929 212.567C124.339 212.137 124.749 211.717 125.189 211.317C125.559 210.977 125.809 210.777 126.029 210.677C125.819 210.767 126.679 210.607 126.069 210.657C126.149 210.647 126.419 210.597 126.159 210.657C125.879 210.727 126.189 210.607 126.249 210.717C126.099 210.457 126.279 210.847 126.319 210.927C126.469 211.237 126.659 211.527 126.799 211.837C128.879 216.417 130.639 221.167 132.549 225.827C133.149 227.297 134.689 228.207 136.219 227.317C144.869 222.327 154.099 218.537 163.759 216.017C162.819 215.637 161.879 215.247 160.939 214.867C163.209 219.117 165.479 223.357 167.749 227.607C168.559 229.127 170.499 229.097 171.679 228.117C176.229 224.287 181.009 220.197 186.749 218.297C191.409 216.747 197.249 216.607 201.289 219.807C202.349 220.647 203.789 220.837 204.829 219.807C205.699 218.937 205.889 217.117 204.829 216.267C199.539 212.067 192.539 211.357 186.159 213.237C179.239 215.277 173.579 220.017 168.159 224.577C169.469 224.747 170.779 224.917 172.089 225.087C169.819 220.837 167.549 216.597 165.279 212.347C164.759 211.367 163.499 210.927 162.459 211.197C152.409 213.827 142.719 217.817 133.729 223.007C134.949 223.507 136.179 224.007 137.399 224.497C135.669 220.287 133.939 216.077 132.199 211.867C131.409 209.937 130.749 207.797 128.939 206.557C127.709 205.717 126.149 205.447 124.719 205.867C122.039 206.657 120.569 209.257 118.479 210.897C118.399 210.957 118.259 211.057 117.999 211.217C117.909 211.267 117.359 211.517 117.659 211.407C117.029 211.637 116.509 211.507 115.899 211.217C114.099 210.367 112.549 208.817 111.009 207.577C106.989 204.347 102.969 201.127 98.9493 197.897C97.7993 196.967 96.5793 196.977 95.4093 197.897C89.3093 202.697 83.2193 207.487 77.1193 212.287C76.3993 212.847 75.1393 214.187 74.1393 213.847C73.6193 213.667 73.1693 213.067 72.8093 212.677C72.2193 212.027 71.6593 211.357 71.0993 210.677C68.8493 207.937 66.8293 205.007 64.9993 201.967C64.4193 201.007 63.2593 200.537 62.1793 200.817C56.5393 202.297 50.8893 203.777 45.2493 205.257C42.4693 205.987 39.6793 206.717 36.8993 207.447C34.1493 208.167 31.3593 209.137 28.5493 209.587C27.7993 209.707 26.8193 209.687 26.3193 209.337C25.9493 209.077 25.7093 208.627 25.5293 208.047C25.0393 206.447 25.0493 204.967 24.8293 203.207C24.2993 198.997 22.4893 195.147 18.0793 193.927C13.5193 192.667 8.52932 194.387 4.41932 196.287C3.18932 196.857 2.88929 198.627 3.51929 199.707C4.23929 200.967 5.68932 201.177 6.91932 200.607Z" fill="white"/>
<path d="M505.18 350.705C502.97 344.835 498.2 340.155 492.69 337.175C487.18 334.185 480.941 332.755 474.711 332.005C462.491 330.525 449.97 331.565 438.16 335.035L435.98 332.995C438.34 327.215 440.92 321.485 444.5 316.375C449.4 309.365 454.3 302.365 460.82 296.825C465.59 292.775 474.61 290.045 480.82 290.825" fill="#FF6152"/>
<path d="M507.59 350.046C504.11 341.036 496.15 335.116 487.2 332.116C482.26 330.466 477.06 329.666 471.89 329.206C466.47 328.726 461 328.726 455.58 329.226C449.46 329.776 443.4 330.906 437.5 332.626C438.31 332.836 439.12 333.056 439.93 333.266C439.2 332.586 438.47 331.906 437.75 331.226C437.96 332.036 438.18 332.846 438.39 333.656C440.09 329.486 441.93 325.366 444.21 321.476C446.45 317.636 449.14 314.006 451.8 310.446C456.41 304.256 461.69 297.726 469.16 295.016C472.88 293.666 476.87 292.866 480.83 293.326C482.17 293.486 483.33 292.066 483.33 290.826C483.33 289.346 482.18 288.486 480.83 288.326C476.98 287.886 472.94 288.566 469.26 289.716C465.42 290.916 461.78 292.706 458.72 295.346C455.16 298.406 452.07 301.966 449.2 305.666C446.27 309.446 443.37 313.346 440.83 317.396C437.89 322.106 435.66 327.206 433.57 332.326C433.25 333.106 433.63 334.206 434.21 334.756C434.94 335.436 435.64 336.146 436.39 336.796C437.86 338.046 439.48 337.236 441.1 336.806C442.47 336.446 443.85 336.106 445.24 335.816C450.74 334.636 456.33 333.996 461.95 333.876C472.36 333.666 484.04 334.676 493.08 340.306C497.27 342.926 500.96 346.716 502.76 351.376C503.25 352.636 504.44 353.506 505.84 353.126C507.05 352.796 508.08 351.316 507.59 350.046Z" fill="#FF6152"/>
<path d="M403.099 267.168C398.729 279.098 399.729 292.888 405.789 304.058C410.149 312.108 415.219 322.418 421.829 329.828L424.029 329.098C425.539 311.418 430.089 293.998 437.409 277.828C438.829 274.678 440.509 271.418 443.469 269.628" fill="#FF6152"/>
<path d="M400.688 266.497C397.498 275.327 397.098 285.087 399.328 294.197C400.438 298.717 402.328 302.887 404.518 306.977C406.638 310.947 408.728 314.927 411.018 318.807C413.668 323.307 416.588 327.677 420.058 331.587C420.618 332.217 421.698 332.497 422.488 332.227C423.218 331.987 423.958 331.737 424.688 331.497C425.818 331.117 426.418 330.237 426.528 329.087C427.948 312.717 431.998 296.487 438.538 281.407C439.998 278.037 441.468 273.837 444.728 271.777C447.438 270.067 444.938 265.737 442.208 267.457C438.888 269.557 436.928 272.887 435.328 276.377C433.488 280.417 431.808 284.547 430.298 288.727C427.348 296.937 425.088 305.387 423.538 313.967C422.638 318.967 421.968 324.017 421.528 329.077C422.138 328.277 422.748 327.467 423.368 326.667C422.638 326.907 421.898 327.157 421.168 327.397C421.978 327.607 422.788 327.827 423.598 328.037C417.858 321.557 413.808 313.737 409.758 306.147C407.798 302.477 405.888 298.887 404.698 294.867C403.478 290.717 402.878 286.437 402.918 282.107C402.958 277.207 403.848 272.417 405.518 267.807C405.978 266.537 404.998 265.067 403.768 264.727C402.378 264.367 401.148 265.227 400.688 266.497Z" fill="#FF6152"/>
<path d="M369.327 275.828C370.367 285.638 372.467 295.418 375.987 304.658C377.747 309.278 379.837 313.798 382.507 317.958C385.077 321.958 388.277 325.428 391.657 328.748C395.577 332.598 399.487 336.408 403.057 340.598C403.937 341.628 405.697 341.498 406.597 340.598C407.617 339.578 407.477 338.098 406.597 337.058C403.457 333.368 400.077 329.938 396.607 326.568C393.527 323.588 390.397 320.568 387.927 317.048C382.477 309.278 379.237 300.088 377.007 290.938C375.797 285.968 374.887 280.918 374.347 275.828C374.207 274.488 373.297 273.328 371.847 273.328C370.577 273.328 369.177 274.468 369.327 275.828Z" fill="#FF6152"/>
<path d="M455.979 370.446C455.709 366.716 452.989 363.636 450.089 361.286C447.189 358.936 443.899 356.926 441.699 353.906L441.819 352.826C454.469 352.176 468.769 354.226 477.849 363.066C486.919 371.906 492.089 384.626 491.769 397.286" fill="#FF6152"/>
<path d="M458.48 370.446C458.09 366.326 455.8 362.956 452.75 360.266C449.85 357.706 446.21 355.776 443.86 352.636C443.97 353.056 444.09 353.476 444.2 353.896C444.24 353.536 444.28 353.176 444.32 352.816C443.49 353.646 442.65 354.486 441.82 355.316C450.96 354.866 460.71 355.616 468.99 359.836C477.31 364.076 483.32 372.256 486.5 380.906C488.43 386.166 489.38 391.676 489.26 397.276C489.19 400.496 494.19 400.496 494.26 397.276C494.49 386.546 491.07 375.716 484.65 367.106C481.52 362.906 477.85 359.166 473.31 356.506C468.92 353.926 463.99 352.286 459 351.356C453.34 350.296 447.56 350.026 441.81 350.316C440.35 350.386 439.46 351.416 439.31 352.816C439.25 353.396 439.12 353.976 439.28 354.566C439.59 355.676 440.74 356.746 441.53 357.546C443.09 359.126 444.9 360.446 446.67 361.786C449.47 363.896 453.11 366.656 453.46 370.446C453.59 371.786 454.52 372.946 455.96 372.946C457.24 372.946 458.61 371.806 458.48 370.446Z" fill="#FF6152"/>
<path d="M319.328 144.777C321.708 126.377 324.088 107.977 326.468 89.5774C328.848 71.1774 331.228 52.7774 333.608 34.3774C334.958 23.9774 336.298 13.5874 337.648 3.18739C336.398 3.90739 335.138 4.62739 333.888 5.34739C352.448 13.8074 371.048 22.3074 388.648 32.6474C397.338 37.7574 405.808 43.2974 413.758 49.4974C421.898 55.8474 429.278 63.0674 437.148 69.7374C441.088 73.0674 445.158 76.2674 449.498 79.0674C453.968 81.9574 458.688 84.4474 463.438 86.8374C465.858 88.0474 468.288 89.2374 470.708 90.4474C471.818 90.9974 472.918 91.5474 474.018 92.1174C474.468 92.3474 474.908 92.6274 475.358 92.8474C475.888 93.1074 475.388 93.0074 475.498 92.8874C474.148 94.4174 472.078 95.4274 470.378 96.5274C468.148 97.9674 465.898 99.3874 463.638 100.777C445.918 111.667 427.258 121.057 407.918 128.717C398.318 132.517 388.508 135.737 378.758 139.117C369.098 142.457 359.458 146.087 350.508 151.067C348.318 152.287 346.188 153.587 344.098 154.967C341.428 156.737 343.928 161.067 346.618 159.287C364.078 147.717 384.788 142.857 404.148 135.527C424.218 127.927 443.628 118.577 462.068 107.587C466.628 104.867 471.128 102.047 475.568 99.1274C477.708 97.7174 480.258 96.0774 480.498 93.2474C480.728 90.4374 478.578 88.8474 476.338 87.7074C466.678 82.7874 456.738 78.3474 447.928 71.9574C439.478 65.8274 432.078 58.3974 424.168 51.6074C416.178 44.7474 407.628 38.5674 398.728 32.9474C381.158 21.8474 362.338 12.9174 343.478 4.26738C341.128 3.18738 338.778 2.11738 336.418 1.04738C334.558 0.197376 332.908 1.24738 332.658 3.20738C330.278 21.6074 327.898 40.0074 325.518 58.4074C323.138 76.8074 320.758 95.2074 318.378 113.607C317.028 124.007 315.688 134.397 314.338 144.797C314.168 146.137 315.608 147.297 316.838 147.297C318.328 147.277 319.158 146.117 319.328 144.777Z" fill="#1223AA"/>
<path d="M324.308 147.626C332.878 129.686 340.258 111.176 346.358 92.2556C344.718 92.0356 343.088 91.8156 341.448 91.5956C341.678 104.016 340.338 116.396 337.418 128.476C336.838 130.896 339.778 132.666 341.598 130.906C349.208 123.566 357.088 116.496 365.208 109.726C363.898 108.716 362.588 107.706 361.278 106.696C356.738 115.706 352.198 124.716 347.658 133.736C346.508 136.026 348.808 138.266 351.078 137.156C358.348 133.616 366.248 131.266 374.288 130.326C373.868 128.776 373.448 127.216 373.028 125.666C361.188 133.606 349.378 141.576 337.578 149.586C334.928 151.386 337.428 155.716 340.098 153.906C351.888 145.906 363.708 137.926 375.548 129.986C376.478 129.366 377.008 128.276 376.698 127.166C376.428 126.196 375.358 125.206 374.288 125.326C365.318 126.376 356.688 128.876 348.558 132.836C349.698 133.976 350.838 135.116 351.978 136.256C356.518 127.246 361.058 118.236 365.598 109.216C366.908 106.616 363.848 104.366 361.668 106.186C353.548 112.956 345.668 120.026 338.058 127.366C339.448 128.176 340.848 128.986 342.238 129.796C345.258 117.306 346.678 104.436 346.448 91.5857C346.398 88.7257 342.398 88.2456 341.538 90.9256C335.568 109.446 328.378 127.546 319.988 145.106C319.408 146.326 319.648 147.806 320.888 148.526C321.978 149.166 323.728 148.856 324.308 147.626Z" fill="#1223AA"/>
<path d="M434.79 85.0382C433.59 89.0082 432.39 92.9782 431.19 96.9482C431.99 96.3382 432.8 95.7282 433.6 95.1082C424.85 95.0082 416.4 98.1682 409.76 103.828C408.73 104.708 408.86 106.458 409.76 107.368C410.78 108.388 412.27 108.248 413.3 107.368C418.92 102.568 426.23 100.018 433.6 100.108C434.72 100.118 435.69 99.3182 436.01 98.2682C437.21 94.2982 438.41 90.3282 439.61 86.3582C440.55 83.2782 435.72 81.9582 434.79 85.0382Z" fill="#1223AA"/>
<path d="M387.011 42.2971C387.741 45.0571 388.461 47.8171 389.191 50.5771C389.291 50.9471 389.731 51.9471 389.601 52.3471C389.691 52.0671 389.491 52.3071 389.241 52.4171C388.101 52.9371 387.011 53.8971 386.031 54.6671C382.211 57.6571 379.121 61.5771 377.091 65.9871C376.521 67.2171 376.741 68.6771 377.991 69.4071C379.071 70.0371 380.841 69.7371 381.411 68.5071C383.511 63.9471 386.761 59.9771 390.981 57.2271C392.061 56.5271 393.251 55.8671 393.941 54.7271C394.791 53.2971 394.641 51.7171 394.261 50.1771C393.491 47.0971 392.641 44.0371 391.841 40.9771C391.011 37.8571 386.181 39.1771 387.011 42.2971Z" fill="#1223AA"/>
<path d="M326.701 170.825C327.861 177.215 328.351 183.705 328.241 190.195C328.181 193.415 333.181 193.415 333.241 190.195C333.361 183.255 332.761 176.325 331.521 169.495C331.281 168.165 329.661 167.415 328.441 167.745C327.051 168.135 326.461 169.495 326.701 170.825Z" fill="#1223AA"/>
<path d="M305.519 152.997C287.429 154.367 271.259 163.218 257.249 174.268C253.279 177.398 249.469 180.737 245.759 184.188C243.399 186.388 246.939 189.917 249.299 187.727C261.579 176.287 275.529 165.647 291.779 160.657C296.249 159.287 300.849 158.358 305.509 158.008C306.859 157.908 308.009 156.928 308.009 155.508C308.019 154.228 306.879 152.897 305.519 152.997Z" fill="#1223AA"/>
<path d="M309.398 167.469C307.428 170.929 305.788 174.579 304.478 178.339C304.048 179.579 304.968 181.129 306.228 181.419C307.618 181.739 308.838 180.999 309.308 179.669C309.618 178.769 309.958 177.869 310.308 176.979C310.378 176.799 310.448 176.619 310.528 176.449C310.578 176.329 310.628 176.209 310.678 176.099C310.548 176.399 310.538 176.429 310.648 176.169C310.828 175.759 311.008 175.349 311.188 174.939C311.958 173.259 312.808 171.609 313.718 169.999C314.368 168.859 314.028 167.209 312.818 166.579C311.638 165.939 310.098 166.249 309.398 167.469Z" fill="#1223AA"/>
<path d="M46.8403 98.7891C48.1303 117.059 49.4103 135.339 50.7003 153.609C51.0703 158.819 51.4303 164.029 51.8003 169.239C51.8903 170.589 52.8803 171.739 54.3003 171.739C55.5803 171.739 56.9003 170.589 56.8003 169.239C55.5103 150.969 54.2303 132.689 52.9403 114.419C52.5703 109.209 52.2103 103.999 51.8403 98.7891C51.7503 97.4391 50.7603 96.2891 49.3403 96.2891C48.0603 96.2891 46.7503 97.4291 46.8403 98.7891Z" fill="white"/>
<path d="M107.8 97.7787C109.59 102.279 110.14 107.029 110.34 111.839C110.55 117.079 110.6 122.329 110.71 127.569C110.94 138.359 111.18 149.139 111.41 159.929C111.54 166.069 111.68 172.209 111.81 178.349C111.88 181.559 116.88 181.569 116.81 178.349C116.34 156.559 116.09 134.759 115.37 112.969C115.19 107.379 114.7 101.689 112.61 96.4487C112.11 95.1987 110.94 94.3187 109.53 94.6987C108.35 95.0287 107.3 96.5087 107.8 97.7787Z" fill="white"/>
<path d="M162.099 102.888C162.729 125.308 163.359 147.728 163.999 170.158C164.179 176.468 164.359 182.778 164.529 189.088C164.619 192.298 169.619 192.308 169.529 189.088C168.899 166.668 168.269 144.248 167.629 121.818C167.449 115.508 167.269 109.198 167.099 102.888C167.009 99.6778 162.009 99.6678 162.099 102.888Z" fill="white"/>
<path d="M10.7305 145.957C37.9405 147.317 65.1405 148.867 92.3305 150.597C119.52 152.327 146.7 154.247 173.86 156.347C189.1 157.527 204.33 158.757 219.56 160.057C220.91 160.167 222.06 158.827 222.06 157.557C222.06 156.107 220.91 155.167 219.56 155.057C192.41 152.747 165.25 150.627 138.08 148.687C110.9 146.747 83.7205 144.997 56.5205 143.427C41.2605 142.547 26.0005 141.727 10.7405 140.957C7.52046 140.797 7.52048 145.797 10.7305 145.957Z" fill="white"/>
<path d="M97.9787 112.438C98.1287 116.918 98.0788 121.388 97.8288 125.868C97.7688 126.908 97.6987 127.958 97.6187 128.998C97.5687 129.598 97.5187 130.188 97.4687 130.778C97.4487 131.008 97.4988 131.808 97.3388 131.938C97.4288 131.868 96.3587 132.147 96.2187 132.177C95.2687 132.397 94.3188 132.498 93.3488 132.528C90.1388 132.628 90.1288 137.628 93.3488 137.528C95.7088 137.458 98.7687 137.217 100.659 135.657C102.679 133.987 102.479 130.938 102.659 128.558C103.059 123.198 103.159 117.818 102.989 112.448C102.879 109.238 97.8787 109.218 97.9787 112.438Z" fill="white"/>
<path d="M140.88 111.047C142.76 111.447 144.64 111.837 146.52 112.237C147.46 112.437 148.4 112.637 149.34 112.827C150.03 112.977 151.12 113.017 151.68 113.407C151.38 113.107 151.08 112.807 150.78 112.507C151.2 113.067 151.03 114.637 151.08 115.377C151.16 116.617 151.25 117.857 151.33 119.097C151.49 121.407 151.64 123.717 151.8 126.027C151.96 128.337 152.11 130.647 152.27 132.957C152.35 134.117 152.43 135.267 152.5 136.427C152.54 137.087 152.59 137.747 152.63 138.407C152.65 138.737 152.67 139.067 152.7 139.397C152.74 139.727 152.73 139.787 152.68 139.587C152.89 139.217 153.11 138.847 153.32 138.487C153.68 138.057 153.97 138.407 153.56 138.287C153.23 138.197 152.74 138.317 152.38 138.327C151.59 138.347 150.8 138.337 150.02 138.317C148.44 138.277 146.87 138.147 145.31 137.957C143.97 137.797 142.81 139.227 142.81 140.457C142.81 141.947 143.96 142.797 145.31 142.957C147.66 143.237 150.02 143.377 152.38 143.327C154.74 143.277 157.47 142.887 157.69 139.987C157.86 137.707 157.42 135.247 157.27 132.967C157.1 130.487 156.94 128.017 156.77 125.537C156.6 123.057 156.44 120.587 156.27 118.107C156.19 116.947 156.11 115.797 156.04 114.637C155.96 113.397 156 112.057 155.58 110.877C154.66 108.297 151.56 108.187 149.27 107.707C146.92 107.217 144.57 106.717 142.22 106.227C140.9 105.947 139.52 106.617 139.14 107.977C138.79 109.217 139.55 110.767 140.88 111.047Z" fill="white"/>
<path d="M180.528 161.016C177.468 162.116 176.038 165.016 175.598 168.076C175.058 171.866 175.128 175.626 175.708 179.406C175.908 180.706 177.608 181.536 178.788 181.156C180.198 180.696 180.748 179.466 180.538 178.076C180.368 176.976 180.248 175.456 180.218 174.086C180.188 172.576 180.258 171.066 180.418 169.566C180.438 169.416 180.448 169.276 180.468 169.126C180.428 169.366 180.438 169.356 180.478 169.096C180.528 168.826 180.568 168.556 180.628 168.276C180.688 168.006 180.758 167.736 180.838 167.466C180.858 167.396 181.118 166.686 180.998 166.986C180.878 167.286 181.188 166.616 181.228 166.556C181.308 166.416 181.818 165.836 181.398 166.256C181.518 166.136 182.108 165.686 181.598 166.006C181.728 165.926 182.438 165.626 181.868 165.826C183.098 165.386 184.048 164.106 183.618 162.746C183.208 161.556 181.848 160.546 180.528 161.016Z" fill="white"/>
<path d="M16.8995 109.296C15.1095 113.946 15.0996 119.346 16.8796 123.996C17.3396 125.216 18.5895 126.186 19.9595 125.746C21.1495 125.366 22.1995 123.976 21.7095 122.666C21.3195 121.636 21.0095 120.576 20.7995 119.496C20.7795 119.406 20.6395 118.456 20.7095 118.996C20.6795 118.766 20.6596 118.526 20.6396 118.296C20.5896 117.746 20.5696 117.196 20.5696 116.646C20.5696 116.096 20.5995 115.546 20.6495 114.996C20.6495 114.956 20.7396 114.186 20.6696 114.726C20.7096 114.416 20.7695 114.106 20.8295 113.796C21.0395 112.716 21.3496 111.656 21.7496 110.626C22.2196 109.406 21.2296 107.826 19.9996 107.546C18.5396 107.226 17.3995 107.986 16.8995 109.296Z" fill="white"/>
<path d="M367.431 175.168C368.331 166.198 379.071 161.798 386.601 159.788C396.871 157.038 409.851 155.428 418.051 163.788C421.561 167.358 423.781 172.408 422.491 177.418C421.681 180.548 426.311 181.798 427.311 178.748C429.601 171.748 435.351 166.618 441.611 163.088C448.121 159.418 455.581 157.108 463.061 156.798C470.361 156.488 478.011 158.148 483.661 163.008C489.361 167.908 492.701 175.218 493.451 182.638C494.461 192.608 491.321 202.428 486.601 211.098C485.311 213.458 487.811 215.468 490.021 214.518C496.221 211.848 502.791 209.108 509.601 208.658C515.781 208.248 521.531 210.088 526.101 214.308C530.381 218.268 533.391 223.378 535.971 228.548C538.691 234.008 541.391 240.538 539.891 246.738C538.331 253.178 532.541 257.388 527.461 261.058C525.701 262.328 525.921 264.898 528.061 265.628C536.531 268.508 542.931 276.108 544.981 284.728C547.051 293.418 543.891 302.418 537.581 308.588C533.981 312.108 529.501 314.528 524.571 315.528C522.821 315.878 522.491 317.838 523.081 319.198C526.311 326.748 530.281 335.808 527.801 344.138C526.091 349.878 520.361 355.958 513.851 354.448C511.851 353.988 509.771 356.208 511.031 358.118C514.631 363.608 512.771 371.768 506.891 375.018C504.071 376.578 506.591 380.898 509.411 379.338C517.511 374.868 520.431 363.348 515.351 355.588C514.411 356.808 513.471 358.038 512.531 359.258C519.391 360.848 525.751 357.118 529.651 351.628C534.151 345.288 534.161 337.278 532.311 330.008C531.141 325.408 529.261 321.028 527.401 316.678C526.901 317.898 526.401 319.128 525.911 320.348C536.241 318.258 544.751 310.488 548.621 300.808C552.641 290.758 550.301 279.398 543.731 271.008C540.041 266.288 535.071 262.728 529.391 260.798C529.591 262.318 529.791 263.848 529.991 265.368C535.341 261.508 541.021 257.298 543.691 251.038C546.771 243.818 544.821 236.098 541.801 229.218C539.121 223.128 535.721 217.078 531.121 212.228C526.221 207.068 519.831 203.898 512.681 203.608C503.881 203.248 495.421 206.788 487.501 210.198C488.641 211.338 489.781 212.478 490.921 213.618C495.651 204.928 498.951 195.158 498.621 185.158C498.341 176.458 495.211 167.698 489.151 161.338C476.791 148.338 456.221 150.198 441.421 157.538C433.031 161.708 425.471 168.298 422.481 177.418C424.091 177.858 425.691 178.308 427.301 178.748C428.761 173.098 427.121 167.248 423.631 162.668C419.841 157.698 414.411 154.478 408.301 153.268C401.361 151.898 394.241 152.778 387.431 154.418C382.111 155.698 376.791 157.518 372.181 160.528C366.951 163.948 363.041 168.808 362.411 175.178C362.281 176.528 363.661 177.678 364.911 177.678C366.391 177.668 367.291 176.518 367.431 175.168Z" fill="white"/>
<path d="M518.28 137.348C517.03 135.998 518.36 133.498 519.36 132.278C521.04 130.238 523.39 128.718 525.92 127.958C527.09 127.608 528.48 127.228 529.69 127.528C530.55 127.738 530.97 128.208 531.34 128.908C532.26 130.638 532.19 133.098 532.08 135.158C531.97 137.188 534.99 138.638 536.35 136.928C537.4 135.608 538.8 135.238 540.44 135.568C542.48 135.978 543.89 137.358 544.87 139.148C545.96 141.128 546.45 143.468 546.72 145.688C546.87 146.888 547.08 148.378 546.57 149.528C546.41 149.898 545.86 150.708 545.37 150.628C543.77 150.338 542.24 151.298 542.21 153.038C542.11 158.868 540.23 165.138 534.69 167.958C530.27 170.218 524.31 168.228 523.58 162.948C523.4 161.638 521.66 160.838 520.5 161.198C515.09 162.898 508.13 161.988 505.62 156.188C504.65 153.958 504.7 151.338 506.23 149.378C507.63 147.588 509.95 146.538 512.14 147.128C513.56 147.508 515.49 146.368 515.3 144.718C515.14 143.278 516.05 141.928 517.59 141.948C520.81 141.998 520.81 136.998 517.59 136.948C513.54 136.878 509.84 140.598 510.3 144.718C511.35 143.918 512.41 143.108 513.46 142.308C509.65 141.278 505.53 142.688 502.91 145.588C500.14 148.648 499.28 152.908 500.54 156.838C503.42 165.788 513.5 168.638 521.81 166.018C520.78 165.438 519.76 164.858 518.73 164.268C519.22 167.798 521.77 170.908 524.9 172.508C528.42 174.308 532.41 174.328 536.03 172.798C543.89 169.488 547.05 161.028 547.19 153.028C546.14 153.828 545.08 154.638 544.03 155.438C548.44 156.228 551.49 152.648 551.81 148.508C552.09 144.828 551.11 140.608 549.52 137.288C548.03 134.158 545.34 131.588 541.91 130.768C538.69 130.008 534.94 130.668 532.8 133.378C534.22 133.968 535.65 134.558 537.07 135.148C537.24 131.978 537.1 128.318 535.18 125.638C532.59 122.028 528.11 121.978 524.2 123.258C520.43 124.488 516.88 126.918 514.66 130.248C512.51 133.478 511.94 137.868 514.73 140.888C516.93 143.258 520.46 139.708 518.28 137.348Z" fill="white"/>
<path d="M530.378 393.758C529.448 391.468 530.138 389.088 531.938 387.438C533.828 385.698 536.668 385.078 539.178 385.208C544.518 385.488 543.888 391.978 543.398 395.818C543.138 397.868 545.668 398.708 547.158 397.978C549.638 396.768 552.548 395.248 555.378 395.988C558.258 396.748 558.628 399.838 559.098 402.378C559.598 405.118 559.748 408.458 558.028 410.828C556.958 412.298 554.628 413.818 552.828 413.048C551.978 412.688 551.148 412.548 550.308 413.048C549.618 413.448 548.958 414.368 549.068 415.208C549.688 420.048 546.358 425.228 541.348 425.988C536.538 426.718 531.368 422.688 530.888 417.838C530.738 416.288 529.408 414.908 527.728 415.428C523.628 416.678 518.868 416.548 515.718 413.298C514.608 412.148 513.688 410.518 513.748 409.058C513.768 408.498 513.968 407.768 514.338 407.248C514.378 407.198 514.708 406.878 514.728 406.868C514.798 406.828 515.088 406.868 514.778 406.818C517.268 407.268 518.878 404.598 517.208 402.638C515.978 401.198 514.348 399.348 514.378 397.338C514.398 395.808 515.588 394.578 516.958 393.998C520.448 392.528 523.678 395.598 525.098 398.508C525.688 399.718 527.418 400.048 528.518 399.408C529.758 398.688 530.008 397.208 529.418 395.988C526.678 390.378 520.058 386.708 514.138 389.828C511.498 391.218 509.568 393.918 509.398 396.928C509.198 400.538 511.468 403.568 513.678 406.168C514.488 404.778 515.298 403.378 516.108 401.988C512.818 401.398 510.328 403.388 509.228 406.398C508.178 409.268 508.968 412.468 510.648 414.928C514.758 420.928 522.408 422.268 529.048 420.238C527.998 419.438 526.938 418.628 525.888 417.828C526.638 425.398 533.708 431.878 541.518 430.958C548.968 430.088 555.048 422.748 554.078 415.188C552.828 415.908 551.568 416.628 550.318 417.348C554.178 418.978 558.388 417.858 561.218 414.778C564.458 411.248 564.768 406.408 564.088 401.888C563.418 397.488 562.088 393.128 557.568 391.418C553.138 389.748 548.628 391.698 544.648 393.638C545.898 394.358 547.158 395.078 548.408 395.798C548.808 392.608 548.978 389.138 547.768 386.088C546.248 382.258 542.838 380.238 538.758 380.178C534.888 380.118 530.698 381.448 527.988 384.298C525.328 387.098 524.078 391.408 525.558 395.078C526.068 396.328 527.228 397.208 528.638 396.828C529.818 396.508 530.888 395.018 530.378 393.758Z" fill="white"/>
<path d="M444.421 201.787C444.491 200.487 446.071 199.357 447.211 199.647C448.481 199.977 449.121 201.537 448.821 202.627C448.241 204.717 450.621 206.567 452.491 205.447C453.781 204.677 455.391 203.567 456.971 203.717C458.061 203.817 458.951 204.527 459.651 205.377C461.641 207.787 462.271 211.237 462.181 214.267C462.081 217.487 467.081 217.487 467.181 214.267C467.321 209.747 466.021 204.637 462.741 201.357C461.191 199.807 459.171 198.797 456.971 198.717C454.431 198.627 452.081 199.877 449.961 201.137C451.181 202.077 452.411 203.017 453.631 203.957C454.701 200.127 452.261 195.587 448.251 194.757C443.801 193.837 439.641 197.347 439.421 201.777C439.351 203.127 440.621 204.277 441.921 204.277C443.331 204.287 444.351 203.137 444.421 201.787Z" fill="white"/>
<path d="M399.919 224.209C401.259 224.219 402.519 224.669 403.689 225.559C404.919 226.489 405.799 227.699 406.529 229.169C407.149 230.429 407.629 232.539 407.759 234.229C407.939 236.379 407.849 238.539 407.729 240.679C407.649 242.029 408.929 243.179 410.229 243.179C411.649 243.179 412.649 242.029 412.729 240.679C413.009 235.779 412.989 230.579 410.589 226.139C408.469 222.219 404.469 219.239 399.919 219.199C396.699 219.189 396.699 224.189 399.919 224.209Z" fill="white"/>
<path d="M348.468 315.507C350.698 316.667 352.938 317.827 355.168 318.987C356.368 319.607 357.879 319.297 358.589 318.087C359.339 316.797 358.768 315.487 357.688 314.667C356.658 313.877 355.628 313.087 354.598 312.297C353.758 313.737 352.918 315.177 352.078 316.617C355.968 319.497 360.559 321.417 365.339 322.167C366.449 322.337 367.558 322.047 368.158 321.017C368.668 320.137 368.628 318.657 367.768 317.987C366.288 316.827 364.769 315.837 363.029 315.097C362.389 316.617 361.748 318.147 361.098 319.667C366.308 320.787 371.399 322.357 376.339 324.357C378.999 325.427 380.688 321.147 378.268 319.787C375.708 318.347 373.158 316.907 370.598 315.467C369.518 314.857 368.118 315.117 367.368 316.107C366.698 317.007 366.578 318.607 367.568 319.387C370.448 321.677 373.328 323.957 376.208 326.247C377.268 327.087 378.708 327.277 379.748 326.247C380.628 325.367 380.798 323.567 379.748 322.707C376.808 320.317 373.548 318.527 369.918 317.407C367.208 316.577 365.518 320.597 367.988 321.977C371.548 323.967 375.118 325.967 378.678 327.957C381.138 329.337 383.738 326.077 381.708 324.027C380.808 323.117 379.908 322.217 379.008 321.307C377.998 322.617 376.988 323.927 375.978 325.237C379.998 327.407 384.028 329.577 388.048 331.747C389.138 332.337 390.519 332.117 391.279 331.107C391.959 330.197 392.068 328.617 391.078 327.827C389.998 326.957 388.919 326.087 387.839 325.207C386.829 326.517 385.818 327.827 384.808 329.137C387.478 330.507 390.038 332.087 392.468 333.857C393.458 334.577 395.008 334.127 395.698 333.217C396.498 332.137 396.298 330.947 395.498 329.937C395.068 329.387 394.628 328.837 394.198 328.287C393.188 329.597 392.178 330.907 391.168 332.217C392.618 333.087 393.928 334.057 395.168 335.207C397.518 337.387 401.048 333.897 398.708 331.667C393.759 326.957 388.248 322.837 382.308 319.447C379.998 318.127 377.878 320.687 378.888 322.867C379.428 324.027 380.348 324.957 381.468 325.577C383.628 326.777 386.178 324.347 384.888 322.157C383.148 319.197 380.998 316.487 378.478 314.147C376.318 312.127 373.388 314.647 374.548 317.177C375.868 320.057 377.588 322.677 379.608 325.127C380.388 326.077 381.998 326.037 382.888 325.327C383.918 324.507 384.079 323.267 383.529 322.097C381.849 318.517 379.978 315.037 377.918 311.667C376.238 308.927 371.988 311.387 373.598 314.187C375.478 317.457 377.598 320.537 379.908 323.507C380.658 324.477 382.318 324.397 383.188 323.707C384.228 322.877 384.358 321.647 383.828 320.477C381.998 316.437 379.888 312.547 377.488 308.817C376.048 309.657 374.608 310.497 373.168 311.337C375.018 314.047 376.868 316.747 378.718 319.457C379.418 320.477 380.649 321.007 381.839 320.477C382.879 320.017 383.738 318.707 383.288 317.527C381.398 312.637 379.188 307.887 376.638 303.297C376.098 302.337 374.868 301.857 373.818 302.147C372.688 302.457 372.098 303.447 371.978 304.557C371.698 307.237 372.278 309.827 373.448 312.237C373.978 313.347 375.518 313.727 376.568 313.257C377.748 312.737 378.268 311.557 378.018 310.307C377.008 305.337 375.618 300.467 373.858 295.707C373.388 294.437 372.169 293.577 370.779 293.957C369.519 294.307 368.609 295.747 369.029 297.037C370.529 301.597 372.018 306.167 373.518 310.727C374.518 313.767 379.239 312.517 378.339 309.397C376.799 304.037 375.258 298.687 373.708 293.327C372.898 290.517 369.008 291.237 368.798 293.987C368.618 296.367 368.788 298.707 369.228 301.047C369.738 303.807 374.308 303.187 374.138 300.387C373.878 296.017 373.608 291.657 373.348 287.287C371.708 287.507 370.078 287.727 368.438 287.947C369.658 290.957 370.348 294.067 370.428 297.307C370.458 298.547 371.358 299.617 372.598 299.767C373.718 299.897 375.139 299.217 375.339 297.977C375.809 295.127 375.968 292.287 375.678 289.407C375.558 288.167 374.818 287.107 373.508 286.947C372.318 286.807 371.068 287.507 370.768 288.737C370.378 290.337 369.979 291.937 369.589 293.537C371.229 293.757 372.858 293.977 374.498 294.197C374.458 291.387 374.188 288.607 373.738 285.837C373.318 283.227 369.608 283.697 368.918 285.837C368.208 288.017 367.508 290.207 366.798 292.387C368.438 292.607 370.068 292.827 371.708 293.047C371.908 291.247 372.108 289.457 372.298 287.657C372.588 285.037 368.848 284.477 367.638 286.397C365.138 290.357 363.088 294.547 361.418 298.927C360.418 301.547 364.888 303.467 365.988 300.857C367.318 297.717 368.638 294.567 369.968 291.427C370.488 290.187 370.338 288.747 369.068 288.007C367.828 287.287 366.419 287.787 365.649 288.907C364.299 290.877 363.289 293.047 362.589 295.337C361.769 298.047 365.778 299.737 367.158 297.267C368.988 293.987 370.539 290.567 371.839 287.037C370.229 286.597 368.628 286.147 367.018 285.707C366.238 287.847 365.458 289.997 364.678 292.137C363.678 294.897 367.778 296.357 369.248 294.067C370.538 292.037 371.578 289.897 372.458 287.657C373.498 285.007 369.208 283.267 367.888 285.727C366.398 288.507 364.908 291.297 363.418 294.077C361.898 296.907 366.098 299.387 367.738 296.597C368.098 295.977 368.468 295.357 368.828 294.737C367.388 293.897 365.948 293.057 364.508 292.217C361.708 298.107 358.048 303.507 353.558 308.237C354.868 309.247 356.178 310.257 357.488 311.267C358.938 308.707 360.389 306.157 361.839 303.597C363.239 301.127 359.958 298.557 357.908 300.567C355.768 302.667 353.968 305.097 352.618 307.777C351.378 310.217 354.488 312.937 356.548 310.807C357.698 309.617 358.858 308.417 360.008 307.227C358.618 306.417 357.218 305.607 355.828 304.797C354.808 307.527 353.448 310.107 351.848 312.547C353.288 313.387 354.728 314.227 356.168 315.067C356.808 313.887 357.458 312.707 358.098 311.527C359.248 309.417 356.868 306.717 354.678 308.107C353.088 309.117 352.038 310.487 351.428 312.257C350.598 314.677 353.908 316.377 355.608 314.687C358.198 312.097 360.458 309.187 362.328 306.027C360.888 305.187 359.448 304.347 358.008 303.507C356.198 307.487 355.138 311.627 354.878 315.997C354.758 318.027 357.809 319.487 359.149 317.767C361.799 314.367 363.808 310.657 365.098 306.537C365.818 304.227 362.558 302.197 360.918 304.107C358.608 306.797 357.708 310.317 358.668 313.767C359.188 315.617 361.478 316.147 362.848 314.867C366.318 311.617 368.308 307.227 368.688 302.517C368.888 300.047 365.139 299.107 364.029 301.257C361.799 305.587 360.809 310.467 361.399 315.327C361.519 316.337 361.928 317.207 362.938 317.607C363.778 317.947 365.048 317.877 365.668 317.087C369.228 312.557 371.068 306.877 370.328 301.107C370.008 298.597 367.218 297.767 365.668 299.847C363.328 302.997 362.208 307.037 362.578 310.947C362.778 313.077 365.178 314.277 366.848 312.717C370.098 309.677 371.368 304.837 369.988 300.597C369.088 297.847 365.308 298.467 365.078 301.257C364.708 305.717 365.908 310.257 368.418 313.957C369.358 315.357 371.908 315.797 372.738 313.957C374.668 309.667 374.478 304.647 371.758 300.707C370.518 298.917 367.888 299.187 367.188 301.307C365.518 306.357 366.368 312.167 369.508 316.467C370.548 317.897 372.868 318.267 373.828 316.467C375.788 312.797 375.068 307.867 371.698 305.237C370.248 304.107 368.098 304.377 367.518 306.337C366.548 309.637 366.898 312.917 368.228 316.047C368.888 317.587 371.118 317.537 372.158 316.557C374.028 314.777 374.378 311.767 372.818 309.667C371.218 307.527 368.319 307.107 366.029 308.327C364.959 308.897 364.718 310.067 364.878 311.147C365.388 314.667 367.688 317.797 370.788 319.487C372.808 320.597 375.778 318.197 374.208 316.067C371.908 312.947 367.528 311.757 364.158 314.007C362.028 315.427 362.938 318.457 365.418 318.667C369.368 319.007 371.258 314.707 371.388 311.407C371.558 307.097 370.168 302.617 368.248 298.817C366.808 299.657 365.368 300.497 363.928 301.337C364.348 302.027 364.768 302.707 365.188 303.397C366.208 305.047 369.418 305.047 369.758 302.797C370.118 300.397 370.078 298.137 369.538 295.767C369.258 294.567 367.968 293.797 366.798 293.977C365.498 294.167 364.748 295.157 364.628 296.437C364.398 299.037 365.708 301.257 367.728 302.777C368.728 303.537 370.639 303.007 371.149 301.877C372.269 299.387 371.968 296.517 369.878 294.617C367.938 292.857 365.278 294.627 365.698 297.047C366.468 301.477 369.128 305.157 371.948 308.537C374.548 311.657 377.618 314.707 379.178 318.527C380.698 317.887 382.228 317.247 383.748 316.597C383.168 315.747 382.578 314.907 381.998 314.057C381.238 312.947 379.808 312.447 378.578 313.157C377.448 313.817 376.948 315.437 377.678 316.577C379.648 319.647 382.048 322.407 384.878 324.707C385.848 325.487 387.118 325.727 388.158 324.907C389.038 324.207 389.568 322.687 388.798 321.677C387.198 319.577 385.479 317.617 383.529 315.837C382.609 315.007 381.248 314.847 380.248 315.637C379.358 316.347 378.858 317.847 379.608 318.857C381.298 321.147 382.988 323.447 384.668 325.737C385.608 324.517 386.548 323.287 387.488 322.067C386.278 321.827 385.068 321.587 383.858 321.347C381.438 320.867 379.658 323.627 381.428 325.527C383.258 327.487 385.388 329.157 387.728 330.467C389.598 331.517 392.029 329.777 391.399 327.647C391.089 326.587 390.538 325.617 389.668 324.917C388.488 326.097 387.308 327.277 386.128 328.457C390.498 331.857 395.038 335.007 399.788 337.857C400.628 336.417 401.468 334.977 402.308 333.537C394.908 329.737 388.468 324.237 383.688 317.427C382.918 316.327 381.498 315.807 380.268 316.527C379.178 317.167 378.588 318.837 379.368 319.947C384.638 327.457 391.609 333.657 399.779 337.857C402.629 339.327 405.078 335.207 402.298 333.537C397.918 330.917 393.679 328.057 389.649 324.927C388.589 324.097 387.148 323.887 386.108 324.927C385.238 325.797 385.048 327.617 386.108 328.467C386.378 328.677 386.468 328.677 386.558 328.997C387.778 328.057 389.008 327.117 390.228 326.177C388.228 325.057 386.498 323.687 384.938 322.017C384.128 323.407 383.318 324.807 382.508 326.197C383.718 326.437 384.928 326.677 386.138 326.917C388.038 327.297 390.368 325.157 388.958 323.247C387.268 320.957 385.579 318.657 383.899 316.367C382.589 317.377 381.278 318.387 379.968 319.397C381.588 320.877 383.128 322.467 384.458 324.217C385.768 323.207 387.078 322.197 388.388 321.187C385.878 319.147 383.708 316.797 381.968 314.067C380.528 314.907 379.089 315.747 377.649 316.587C378.229 317.437 378.819 318.277 379.399 319.127C380.099 320.147 381.328 320.677 382.518 320.147C383.548 319.697 384.448 318.367 383.968 317.197C382.218 312.947 379.308 309.547 376.358 306.087C373.738 303.017 371.188 299.807 370.488 295.727C369.098 296.537 367.698 297.347 366.308 298.157C366.638 298.457 366.978 298.957 366.798 299.357C367.938 299.057 369.078 298.757 370.218 298.457C369.588 297.977 369.538 297.147 369.598 296.437C367.958 296.657 366.328 296.877 364.688 297.097C365.018 298.527 365.128 300.017 364.908 301.477C366.428 301.277 367.958 301.077 369.478 300.877C369.058 300.187 368.638 299.507 368.218 298.817C366.528 296.057 362.449 298.477 363.899 301.337C365.229 303.967 366.088 306.867 366.308 309.817C366.388 310.937 366.438 311.907 366.058 312.927C365.968 313.177 365.778 313.527 365.688 313.627C365.598 313.727 365.718 313.747 365.458 313.797C365.658 313.757 365.859 313.697 365.399 313.657C365.819 315.207 366.238 316.767 366.658 318.317C367.578 317.707 369.098 317.537 369.858 318.577C370.998 317.437 372.139 316.297 373.279 315.157C371.189 314.017 370.008 312.137 369.668 309.797C369.288 310.737 368.898 311.677 368.518 312.617C369.008 312.357 368.769 312.827 368.589 312.997C369.899 313.167 371.208 313.337 372.518 313.507C371.728 311.647 371.748 309.557 372.318 307.647C370.928 308.017 369.528 308.387 368.138 308.747C369.718 309.977 370.478 312.067 369.488 313.917C370.928 313.917 372.368 313.917 373.808 313.917C371.388 310.597 370.698 306.517 371.998 302.607C370.478 302.807 368.948 303.007 367.428 303.207C369.068 305.587 369.628 308.707 368.408 311.407C369.848 311.407 371.288 311.407 372.728 311.407C370.658 308.347 369.768 304.897 370.078 301.227C368.438 301.447 366.808 301.667 365.168 301.887C366.028 304.517 365.338 307.247 363.318 309.147C364.738 309.737 366.169 310.327 367.589 310.917C367.289 307.757 368.098 304.887 369.998 302.337C368.448 301.917 366.889 301.497 365.339 301.077C365.899 305.457 364.909 310.007 362.149 313.527C363.569 314.117 364.998 314.707 366.418 315.297C365.928 311.307 366.518 307.337 368.368 303.757C366.818 303.337 365.258 302.917 363.708 302.497C363.438 305.897 361.809 308.997 359.339 311.317C360.729 311.687 362.128 312.057 363.518 312.417C363.058 310.757 363.338 308.947 364.478 307.617C363.088 306.807 361.688 305.997 360.298 305.187C359.278 308.427 357.728 311.527 355.628 314.217C357.048 314.807 358.479 315.397 359.899 315.987C360.099 312.557 360.918 309.147 362.348 306.017C362.908 304.787 362.698 303.327 361.448 302.597C360.268 301.907 358.719 302.327 358.029 303.497C356.369 306.307 354.399 308.837 352.089 311.137C353.479 311.947 354.878 312.757 356.268 313.567C356.448 313.047 356.768 312.687 357.218 312.397C356.078 311.257 354.938 310.117 353.798 308.977C353.158 310.157 352.508 311.337 351.868 312.517C350.318 315.357 354.418 317.717 356.188 315.037C358.038 312.237 359.508 309.237 360.678 306.097C361.568 303.697 358.158 301.957 356.498 303.667C355.348 304.857 354.188 306.057 353.038 307.247C354.348 308.257 355.658 309.267 356.968 310.277C358.138 307.957 359.618 305.907 361.478 304.077C360.168 303.067 358.858 302.057 357.548 301.047C356.098 303.607 354.648 306.157 353.198 308.717C351.818 311.147 355.128 313.847 357.128 311.747C361.898 306.717 365.888 300.977 368.858 294.717C370.218 291.847 366.198 289.377 364.538 292.197C364.178 292.817 363.808 293.437 363.448 294.057C364.888 294.897 366.328 295.737 367.768 296.577C369.258 293.797 370.748 291.007 372.238 288.227C370.718 287.587 369.188 286.947 367.668 286.297C366.958 288.127 366.018 289.857 364.968 291.507C366.488 292.147 368.018 292.787 369.538 293.437C370.318 291.297 371.098 289.147 371.878 287.007C372.338 285.737 371.358 284.267 370.128 283.927C368.738 283.547 367.518 284.397 367.048 285.677C365.898 288.807 364.498 291.807 362.878 294.717C364.398 295.357 365.928 295.997 367.448 296.647C368.028 294.757 368.878 293.047 369.998 291.417C368.558 290.577 367.118 289.737 365.678 288.897C364.348 292.037 363.028 295.187 361.698 298.327C363.218 298.967 364.748 299.607 366.268 300.257C367.778 296.297 369.718 292.517 371.988 288.927C370.438 288.507 368.878 288.087 367.328 287.667C367.128 289.467 366.928 291.257 366.738 293.057C366.608 294.277 367.788 295.377 368.908 295.517C370.168 295.667 371.259 294.937 371.649 293.727C372.359 291.547 373.058 289.357 373.768 287.177C372.158 287.177 370.558 287.177 368.948 287.177C369.318 289.507 369.499 291.847 369.529 294.207C369.569 296.977 373.748 297.667 374.438 294.867C374.828 293.267 375.228 291.667 375.618 290.067C373.978 289.847 372.348 289.627 370.708 289.407C370.948 291.817 370.938 294.257 370.548 296.657C372.188 296.877 373.818 297.097 375.458 297.317C375.368 293.647 374.668 290.027 373.288 286.627C372.818 285.477 371.868 284.637 370.548 284.837C369.388 285.007 368.308 286.027 368.378 287.297C368.638 291.667 368.908 296.027 369.168 300.397C370.808 300.177 372.438 299.957 374.078 299.737C373.728 297.837 373.678 295.927 373.828 293.997C372.188 294.217 370.558 294.437 368.918 294.657C370.458 300.017 371.998 305.367 373.548 310.727C375.158 310.287 376.758 309.837 378.368 309.397C376.868 304.837 375.378 300.267 373.878 295.707C372.268 296.147 370.668 296.597 369.058 297.037C370.818 301.797 372.208 306.667 373.218 311.637C374.738 310.997 376.268 310.357 377.788 309.707C376.998 308.067 376.818 306.337 376.998 304.547C375.448 304.967 373.889 305.387 372.339 305.807C374.679 310.007 376.738 314.357 378.478 318.837C379.998 318.197 381.528 317.557 383.048 316.907C381.198 314.197 379.348 311.487 377.498 308.787C375.698 306.157 371.428 308.577 373.178 311.307C375.578 315.037 377.688 318.927 379.518 322.967C380.828 321.957 382.138 320.947 383.448 319.937C381.408 317.307 379.578 314.507 377.918 311.627C376.478 312.467 375.038 313.307 373.598 314.147C375.668 317.517 377.538 320.997 379.208 324.577C380.518 323.567 381.828 322.557 383.138 321.547C381.398 319.437 379.998 317.087 378.858 314.607C377.548 315.617 376.238 316.627 374.928 317.637C377.148 319.707 379.018 322.017 380.548 324.627C381.688 323.487 382.828 322.347 383.968 321.207C383.518 320.957 383.408 320.777 383.178 320.297C382.038 321.437 380.898 322.577 379.758 323.717C385.338 326.907 390.488 330.717 395.138 335.147C396.318 333.967 397.498 332.787 398.678 331.607C397.138 330.187 395.468 328.917 393.668 327.837C392.608 327.197 391.178 327.507 390.438 328.477C389.638 329.557 389.838 330.747 390.638 331.757C391.068 332.307 391.508 332.857 391.938 333.407C392.948 332.097 393.958 330.787 394.968 329.477C392.538 327.707 389.978 326.137 387.308 324.757C386.208 324.187 384.848 324.377 384.078 325.397C383.398 326.307 383.289 327.887 384.279 328.677C385.359 329.547 386.438 330.417 387.518 331.297C388.528 329.987 389.538 328.677 390.548 327.367C386.528 325.197 382.498 323.027 378.478 320.857C376.008 319.527 373.408 322.727 375.448 324.787C376.348 325.697 377.249 326.597 378.149 327.507C379.159 326.197 380.168 324.887 381.178 323.577C377.618 321.587 374.048 319.587 370.488 317.597C369.848 319.117 369.208 320.647 368.558 322.167C371.318 323.017 373.938 324.357 376.178 326.187C377.358 325.007 378.538 323.827 379.718 322.647C376.838 320.357 373.958 318.077 371.078 315.787C370.068 317.097 369.058 318.407 368.048 319.717C370.608 321.157 373.158 322.597 375.718 324.037C376.358 322.517 376.999 320.987 377.649 319.467C372.709 317.467 367.618 315.907 362.408 314.777C361.198 314.517 359.938 315.037 359.458 316.227C359.038 317.257 359.318 318.857 360.478 319.347C361.788 319.897 363.088 320.577 364.208 321.447C365.018 320.057 365.828 318.657 366.638 317.267C362.218 316.577 358.178 314.887 354.578 312.217C353.488 311.417 351.788 312.037 351.158 313.117C350.408 314.407 350.978 315.717 352.058 316.537C353.088 317.327 354.119 318.117 355.149 318.907C355.989 317.467 356.828 316.027 357.668 314.587C355.438 313.427 353.198 312.267 350.968 311.107C348.138 309.707 345.608 314.017 348.468 315.507Z" fill="#FF6152"/>
<path d="M374.078 276.647C387.008 269.287 401.828 265.757 416.678 265.837C431.508 265.927 446.368 269.577 459.438 276.627C472.618 283.737 483.598 294.247 491.108 307.207C498.598 320.137 502.618 334.986 503.048 349.906C503.468 364.806 500.328 379.867 493.298 393.057C492.428 394.697 491.488 396.297 490.508 397.877C488.798 400.617 493.128 403.127 494.828 400.397C503.198 386.957 507.558 371.256 508.038 355.466C508.518 339.656 505.098 323.727 498.058 309.567C491.038 295.467 480.228 283.526 466.878 275.166C453.548 266.816 438.058 262.076 422.388 261.036C406.718 259.996 390.788 262.846 376.618 269.656C374.898 270.486 373.218 271.377 371.558 272.317C368.758 273.917 371.268 278.237 374.078 276.647Z" fill="white"/>
<path d="M193.23 272.559C194.72 245.589 206.34 220.359 221.6 198.469C229.41 187.259 238.15 176.299 248.25 167.049C257.97 158.139 269.44 151.639 282.26 148.399C294.57 145.289 307.67 145.229 319.92 148.659C330.94 151.749 340.99 157.699 349.32 165.529C366.31 181.509 376.13 204.419 376.91 227.639C377.82 254.669 367.8 281.059 352.39 302.939C350.52 305.599 348.55 308.199 346.51 310.729C345.66 311.779 345.48 313.239 346.51 314.269C347.39 315.149 349.19 315.329 350.05 314.269C367.71 292.409 380.11 265.639 381.79 237.319C383.28 212.199 375.21 186.989 358.6 167.959C350.76 158.979 341 151.599 330.01 146.939C317.92 141.809 304.53 140.069 291.5 141.649C278.1 143.269 265.09 148.079 254.07 155.919C242.23 164.359 232.64 175.579 223.82 187.039C206.92 208.999 193.15 234.529 189.26 262.279C188.78 265.689 188.43 269.119 188.24 272.559C188.05 275.779 193.05 275.769 193.23 272.559Z" fill="#1223AA"/>
</svg>
