<svg width="33" height="30" viewBox="0 0 33 30" fill="none" xmlns="http://www.w3.org/2000/svg">
<path d="M16.5 0C12.0175 0 11.4579 0.0183333 9.69787 0.0879999C7.94062 0.161333 6.74437 0.407 5.6925 0.769999C4.60762 1.144 3.68637 1.64633 2.76925 2.46155C1.85212 3.27678 1.28563 4.09444 0.86625 5.06C0.457875 5.995 0.180125 7.05833 0.099 8.62033C0.0165 10.1848 0 10.6822 0 14.6667C0 18.6511 0.020625 19.1485 0.099 20.713C0.1815 22.2738 0.457875 23.3383 0.86625 24.2733C1.287 25.2364 1.85212 26.0565 2.76925 26.8718C3.68637 27.6858 4.60625 28.1905 5.6925 28.5633C6.74575 28.9251 7.942 29.1732 9.69787 29.2453C11.4579 29.3186 12.0175 29.3333 16.5 29.3333C20.9825 29.3333 21.5421 29.315 23.3021 29.2453C25.058 29.172 26.2556 28.9251 27.3075 28.5633C28.391 28.1893 29.3136 27.6858 30.2308 26.8718C31.1465 26.0565 31.7144 25.2401 32.1338 24.2733C32.5408 23.3383 32.8199 22.2738 32.901 20.713C32.9835 19.1485 33 18.6511 33 14.6667C33 10.6822 32.9794 10.1848 32.901 8.62033C32.8185 7.05955 32.5408 5.99377 32.1338 5.06C31.713 4.09566 31.1465 3.27678 30.2308 2.46155C29.3136 1.64633 28.3951 1.14278 27.3075 0.769999C26.2556 0.407 25.058 0.160111 23.3021 0.0879999C21.5421 0.0146667 20.9825 0 16.5 0ZM16.5 2.64C20.9041 2.64 21.4294 2.65955 23.1688 2.72678C24.7775 2.794 25.6506 3.03111 26.2309 3.234C27.0036 3.49922 27.5509 3.817 28.1311 4.32911C28.7072 4.84244 29.0647 5.33011 29.3631 6.017C29.5886 6.53277 29.8581 7.30888 29.931 8.73888C30.0094 10.2862 30.0272 10.7507 30.0272 14.6667C30.0272 18.5827 30.0066 19.0483 29.9255 20.5944C29.8416 22.0244 29.5735 22.8005 29.3466 23.3163C29.0386 24.0032 28.688 24.4896 28.1105 25.0054C27.5344 25.5175 26.9775 25.8353 26.213 26.1005C25.6355 26.301 24.7486 26.5405 23.1399 26.6053C21.3881 26.675 20.8725 26.6909 16.4588 26.6909C12.0436 26.6909 11.528 26.6725 9.77763 26.6004C8.1675 26.5259 7.28062 26.2875 6.70312 26.0859C5.92075 25.8121 5.38313 25.5004 4.807 24.9871C4.22813 24.475 3.85825 23.98 3.5695 23.3004C3.34262 22.7871 3.07588 21.9988 2.992 20.5688C2.93013 19.0288 2.90813 18.5533 2.90813 14.6483C2.90813 10.7421 2.93013 10.2654 2.992 8.70711C3.07588 7.27711 3.34262 6.49 3.5695 5.97666C3.85825 5.28 4.22813 4.80333 4.807 4.28877C5.38313 3.77666 5.92075 3.44666 6.70312 3.19122C7.28062 2.98833 8.14825 2.75 9.757 2.67666C11.5101 2.62166 12.0257 2.60333 16.4381 2.60333L16.5 2.64V2.64ZM16.5 7.13533C11.8181 7.13533 8.02725 10.5087 8.02725 14.6667C8.02725 18.8283 11.8223 22.198 16.5 22.198C21.1819 22.198 24.9728 18.8247 24.9728 14.6667C24.9728 10.505 21.1777 7.13533 16.5 7.13533ZM16.5 19.5555C13.4612 19.5555 11 17.3678 11 14.6667C11 11.9655 13.4612 9.77777 16.5 9.77777C19.5388 9.77777 22 11.9655 22 14.6667C22 17.3678 19.5388 19.5555 16.5 19.5555ZM27.2883 6.83833C27.2883 7.80999 26.4 8.59833 25.3083 8.59833C24.2151 8.59833 23.3282 7.80877 23.3282 6.83833C23.3282 5.86788 24.2165 5.07955 25.3083 5.07955C26.3986 5.07833 27.2883 5.86788 27.2883 6.83833Z" fill="#FFF6E5"/>
</svg>
