<svg width="344" height="356" viewBox="0 0 344 356" fill="none" xmlns="http://www.w3.org/2000/svg">
<path d="M151.979 292.616C149.529 282.596 147.069 272.586 144.619 262.566C141.649 250.456 138.669 238.306 134.009 226.746C126.579 208.346 114.929 191.626 109.909 172.426C104.399 151.386 107.639 127.986 119.549 109.786C131.459 91.5864 152.11 79.1264 173.84 78.0964C195.57 77.0664 221.1 86.9764 232.78 105.326C239.61 116.056 245.519 127.066 247.609 139.616C250.279 155.646 245.119 175.156 239.069 190.236C234.029 202.796 224.569 212.986 217.329 224.426C207.679 239.646 201.93 257.326 200.77 275.306C200.54 278.816 200.469 282.426 199.109 285.676C196.709 291.396 190.749 294.866 184.759 296.476C174.459 299.256 163.069 299.106 154.009 293.486L151.979 292.616Z" fill="#FF6152"/>
<path d="M182.887 258.239C171.887 228.459 166.157 196.989 161.927 165.519C161.257 160.499 160.617 155.369 161.667 150.419C162.717 145.469 165.777 140.649 170.497 138.849C171.587 138.429 172.807 138.189 173.927 138.529C176.927 139.439 177.267 143.509 176.907 146.629C175.857 155.679 173.857 164.629 170.767 173.199C168.877 178.449 166.477 183.699 162.417 187.519C158.357 191.339 152.287 193.469 147.037 191.559C141.797 189.649 138.437 182.929 141.177 178.069C143.837 173.349 150.577 172.489 155.627 174.439C160.677 176.389 164.617 180.379 168.897 183.699C174.137 187.769 180.337 191.029 186.977 191.239C193.617 191.459 200.657 188.029 203.197 181.889C205.747 175.759 202.177 167.409 195.627 166.269C192.517 165.729 189.327 166.749 186.507 168.189C171.367 175.939 164.987 194.389 163.867 211.369C162.747 228.349 165.437 245.609 162.077 262.289" fill="#FF6152"/>
<path d="M152.998 309.986C149.918 322.296 150.158 335.416 153.688 347.606C153.958 348.526 154.248 349.466 154.858 350.196C156.158 351.756 158.448 351.946 160.488 352.026C165.748 352.216 170.998 352.396 176.258 352.586C180.448 352.736 184.828 352.846 188.628 351.076C190.428 341.116 190.768 330.896 189.628 320.846C189.338 318.336 188.978 315.706 189.898 313.346C190.338 312.206 191.058 310.876 190.338 309.886C189.778 309.126 188.678 309.086 187.728 309.116C176.498 309.506 165.278 309.886 154.048 310.276" fill="#FF6152"/>
<path d="M253.457 245.547C267.747 252.537 282.567 258.437 297.757 263.177Z" fill="#FF6152"/>
<path d="M250.937 249.868C265.617 257.038 280.837 263.128 296.427 267.998C298.927 268.778 301.997 267.078 302.577 264.508C303.197 261.788 301.757 259.188 299.087 258.358C291.567 256.008 284.137 253.388 276.817 250.478C275.057 249.778 273.307 249.058 271.567 248.338C271.027 248.108 270.987 248.098 271.457 248.288C271.237 248.198 271.027 248.108 270.807 248.008C270.377 247.818 269.937 247.638 269.507 247.448C268.567 247.038 267.627 246.628 266.697 246.218C263.097 244.618 259.527 242.958 255.987 241.228C253.637 240.078 250.467 240.518 249.147 243.018C247.957 245.278 248.427 248.638 250.937 249.868Z" fill="#FF6152"/>
<path d="M289.129 143.054C305.619 143.044 322.109 141.544 338.329 138.574Z" fill="#FF6152"/>
<path d="M289.129 148.056C306.069 148.026 322.989 146.436 339.659 143.406C342.239 142.936 343.929 139.666 343.149 137.256C342.249 134.486 339.759 133.266 336.999 133.766C332.979 134.496 328.949 135.136 324.909 135.696C325.889 135.556 324.489 135.746 324.299 135.776C323.809 135.836 323.329 135.896 322.839 135.966C321.789 136.096 320.729 136.226 319.679 136.336C317.649 136.566 315.619 136.766 313.589 136.956C305.459 137.686 297.299 138.056 289.129 138.066C286.509 138.066 284.009 140.366 284.129 143.066C284.249 145.756 286.319 148.056 289.129 148.056Z" fill="#FF6152"/>
<path d="M260.238 80.259C272.488 69.179 286.088 59.5891 300.648 51.7891Z" fill="#FF6152"/>
<path d="M263.769 83.797C266.779 81.077 269.859 78.4469 273.029 75.9069C273.849 75.2469 274.679 74.5969 275.509 73.9569C274.709 74.5769 275.949 73.627 276.109 73.507C276.529 73.187 276.949 72.877 277.369 72.557C278.989 71.347 280.629 70.157 282.289 68.987C288.989 64.277 295.969 59.9871 303.179 56.1171C305.489 54.8771 306.399 51.487 304.969 49.277C303.459 46.937 300.599 46.157 298.129 47.487C283.199 55.507 269.279 65.377 256.709 76.737C254.759 78.497 254.789 82.047 256.709 83.807C258.779 85.707 261.699 85.667 263.769 83.797Z" fill="#FF6152"/>
<path d="M178.695 44.0356C179.475 31.2256 180.875 18.4456 182.905 5.76562Z" fill="#FF6152"/>
<path d="M183.696 44.0373C184.086 37.7073 184.616 31.3974 185.306 25.0974C185.476 23.5474 185.656 21.9872 185.846 20.4372C185.936 19.6972 186.026 18.9672 186.116 18.2272C186.166 17.8172 186.216 17.4073 186.276 17.0073C186.286 16.8973 186.456 15.6272 186.386 16.2072C186.316 16.7472 186.506 15.3672 186.496 15.4072C186.536 15.0772 186.586 14.7572 186.636 14.4272C186.746 13.6172 186.866 12.7973 186.986 11.9873C187.226 10.3573 187.476 8.72737 187.736 7.10737C188.146 4.53737 187.076 1.59722 184.246 0.957221C181.846 0.407221 178.536 1.68721 178.096 4.44721C176.006 17.5672 174.526 30.7873 173.706 44.0473C173.546 46.6673 176.116 49.1673 178.706 49.0473C181.536 48.9073 183.516 46.8373 183.696 44.0373Z" fill="#FF6152"/>
<path d="M92.9011 64.2463C89.1211 57.7163 83.8311 52.2264 79.1411 46.3164C73.9811 39.8164 69.5311 32.7664 65.8711 25.3164" fill="#FF6152"/>
<path d="M97.2201 61.7268C93.1101 54.6968 87.4401 48.7668 82.4001 42.4268C81.4701 41.2568 82.9801 43.1968 82.0701 42.0068C81.7501 41.5868 81.4301 41.1668 81.1201 40.7368C80.5401 39.9468 79.9601 39.1569 79.4001 38.3469C78.2701 36.7469 77.1901 35.1068 76.1401 33.4468C73.9701 29.9968 71.9901 26.4369 70.1901 22.7869C69.0301 20.4369 65.5101 19.5968 63.3501 20.9968C60.9401 22.5468 60.3201 25.3269 61.5601 27.8369C65.2301 35.2769 69.6801 42.2369 74.7701 48.7769C77.1401 51.8269 79.6701 54.7368 82.1301 57.7168C82.7901 58.5168 83.4401 59.3267 84.0801 60.1367C84.9901 61.2867 83.5001 59.3569 84.3801 60.5269C84.6501 60.8769 84.9101 61.2369 85.1701 61.5869C86.3901 63.2569 87.5401 64.9768 88.5801 66.7568C89.9001 69.0168 93.1501 70.0169 95.4201 68.5469C97.7001 67.0969 98.6301 64.1468 97.2201 61.7268Z" fill="#FF6152"/>
<path d="M54.5284 150.246C43.1684 150.396 31.8184 151.506 20.6484 153.546Z" fill="#FF6152"/>
<path d="M54.5282 145.247C42.7182 145.417 30.9382 146.617 19.3182 148.727C16.7382 149.197 15.0482 152.466 15.8282 154.876C16.7282 157.646 19.2182 158.867 21.9782 158.367C24.6982 157.877 27.4182 157.427 30.1482 157.047C30.2582 157.027 31.5182 156.857 30.9282 156.937C30.4282 157.007 31.3782 156.877 31.4682 156.867C32.1082 156.787 32.7582 156.706 33.3982 156.626C34.8482 156.456 36.2982 156.297 37.7582 156.157C43.3282 155.617 48.9282 155.317 54.5282 155.237C57.1382 155.197 59.6482 152.967 59.5282 150.237C59.4082 147.567 57.3382 145.207 54.5282 145.247Z" fill="#FF6152"/>
<path d="M82.2378 241.719C74.9478 252.519 66.9278 262.829 58.2578 272.549Z" fill="#FF6152"/>
<path d="M77.9166 239.197C76.0966 241.897 74.2266 244.567 72.3166 247.207C71.4066 248.467 70.4866 249.707 69.5566 250.957C69.0866 251.577 68.6266 252.197 68.1566 252.817C67.8766 253.187 67.5866 253.557 67.3066 253.927C67.7366 253.367 67.2866 253.957 67.0866 254.207C63.1266 259.287 58.9966 264.227 54.7166 269.037C52.9766 270.987 52.6466 274.207 54.7166 276.107C56.6166 277.857 59.9266 278.197 61.7866 276.107C70.7366 266.067 79.0166 255.407 86.5466 244.267C88.0166 242.097 87.0366 238.627 84.7566 237.427C82.2266 236.067 79.4866 236.877 77.9166 239.197Z" fill="#FF6152"/>
<path d="M135.288 292.616C132.838 282.596 130.378 272.586 127.928 262.566C124.958 250.456 121.978 238.306 117.318 226.746C109.888 208.346 98.2381 191.626 93.2181 172.426C87.7081 151.386 90.9481 127.986 102.858 109.786C114.768 91.5864 135.418 79.1264 157.148 78.0964C178.878 77.0664 204.408 86.9764 216.088 105.326C222.918 116.056 228.828 127.066 230.918 139.616C233.588 155.646 228.428 175.156 222.378 190.236C217.338 202.796 207.878 212.986 200.638 224.426C190.988 239.646 185.238 257.326 184.078 275.306C183.848 278.816 183.778 282.426 182.418 285.676C180.018 291.396 174.058 294.866 168.068 296.476C157.768 299.256 146.378 299.106 137.318 293.486L135.288 292.616Z" fill="#FF9D91"/>
<path d="M138.428 291.757C135.788 280.977 133.148 270.187 130.508 259.407C128.008 249.227 125.418 239.027 121.738 229.197C114.858 210.797 103.388 194.377 97.5076 175.587C92.1076 158.337 92.6476 139.397 99.6576 122.697C106.298 106.857 118.668 94.2366 134.208 87.0466C148.918 80.2466 165.478 79.7565 180.918 84.4165C188.488 86.6965 195.538 90.0966 202.028 94.9666C202.038 94.9766 202.508 95.3267 202.218 95.1067C202.408 95.2567 202.588 95.3966 202.778 95.5466C203.148 95.8466 203.508 96.1465 203.878 96.4465C204.648 97.0865 205.388 97.7565 206.118 98.4365C207.518 99.7565 208.848 101.147 210.098 102.617C211.268 103.997 212.178 105.247 213.288 106.967C214.598 109.017 215.868 111.087 217.098 113.187C221.918 121.427 225.928 130.157 227.638 139.617C229.218 148.357 228.218 157.957 226.308 166.777C225.298 171.417 224.008 176.007 222.508 180.507C221.088 184.767 219.578 189.047 217.568 193.067C213.328 201.567 207.348 209.017 201.908 216.747C190.468 232.987 183.188 251.557 181.168 271.367C180.728 275.707 181.188 280.956 179.238 284.876C177.508 288.336 174.418 290.597 170.698 292.187C167.228 293.667 162.588 294.577 158.648 294.867C154.098 295.207 149.788 294.907 145.468 293.607C142.438 292.697 139.868 291.067 136.958 289.807C135.348 289.107 133.468 289.327 132.508 290.977C131.708 292.347 132.058 294.727 133.678 295.427C137.068 296.887 140.178 298.806 143.738 299.876C148.398 301.276 153.388 301.716 158.228 301.396C167.448 300.786 177.758 298.157 183.498 290.337C186.628 286.077 186.988 280.847 187.308 275.757C187.608 270.917 188.238 266.126 189.218 261.386C191.238 251.606 194.598 242.127 199.258 233.307C203.888 224.547 209.988 216.807 215.638 208.717C218.438 204.697 221.098 200.567 223.268 196.177C225.418 191.837 227.098 187.237 228.638 182.657C231.838 173.127 234.158 163.196 234.768 153.146C235.358 143.247 233.628 133.517 229.888 124.337C227.948 119.557 225.628 114.957 223.048 110.497C220.718 106.467 218.298 102.467 215.358 98.8467C210.118 92.3767 203.208 87.2466 195.828 83.4666C180.588 75.6666 162.548 72.7165 145.738 76.3965C128.168 80.2365 112.418 90.9966 101.898 105.507C90.6876 120.987 85.9276 140.927 87.7376 159.857C88.7076 169.957 91.5876 179.507 95.5576 188.807C99.5176 198.087 104.408 206.917 108.868 215.957C113.498 225.367 117.208 235.027 120.078 245.117C123.098 255.747 125.568 266.537 128.198 277.277C129.528 282.687 130.848 288.097 132.178 293.517C133.158 297.547 139.428 295.827 138.428 291.757Z" fill="white"/>
<path d="M169.336 257.375C158.396 227.685 152.616 196.395 148.436 165.125C147.926 161.345 147.466 157.515 147.766 153.685C148.016 150.515 148.886 147.885 150.616 145.385C151.066 144.745 152.326 143.425 152.936 142.985C154.056 142.195 155.116 141.515 156.376 141.645C155.866 141.595 156.406 141.645 156.636 141.815C155.976 141.325 156.886 142.315 156.426 141.635C156.476 141.705 156.906 142.525 156.626 141.875C156.746 142.145 156.826 142.445 156.896 142.735C156.906 142.795 157.096 143.785 157.006 143.105C157.056 143.425 157.066 143.745 157.076 144.065C157.106 144.805 157.076 145.555 157.006 146.295C156.296 153.725 154.566 161.185 152.306 168.295C150.306 174.595 147.886 181.655 142.576 185.955C140.556 187.595 137.596 188.855 135.146 188.975C133.606 189.055 132.726 188.945 131.216 188.395C131.796 188.605 130.846 188.215 130.816 188.205C130.526 188.055 130.266 187.875 129.986 187.715C129.186 187.245 130.306 188.055 129.616 187.445C129.296 187.155 128.976 186.865 128.686 186.545C128.676 186.535 128.016 185.725 128.376 186.205C128.186 185.945 128.006 185.675 127.836 185.395C127.666 185.115 127.526 184.835 127.376 184.545C126.936 183.715 127.476 185.035 127.206 184.145C127.116 183.845 127.006 183.545 126.936 183.235C126.926 183.175 126.736 182.165 126.826 182.865C126.786 182.555 126.776 182.245 126.766 181.935C126.766 181.785 126.906 180.605 126.776 181.255C126.836 180.945 126.926 180.655 126.996 180.355C127.186 179.535 126.726 180.705 127.146 179.965C127.306 179.685 127.466 179.405 127.636 179.135C128.096 178.405 127.286 179.385 127.916 178.805C128.686 178.095 129.536 177.495 130.436 177.195C131.926 176.705 132.276 176.675 133.756 176.685C134.086 176.685 134.426 176.705 134.756 176.725C134.776 176.725 135.846 176.875 135.216 176.765C135.976 176.895 136.726 177.075 137.456 177.315C140.356 178.285 142.986 180.315 145.356 182.255C151.066 186.915 156.746 191.545 164.016 193.515C170.416 195.255 177.656 194.615 183.186 190.715C188.516 186.945 191.396 181.105 190.276 174.585C189.226 168.485 184.336 163.345 178.046 162.885C171.236 162.385 164.356 166.985 159.656 171.525C150.886 179.995 146.436 192.235 144.716 204.075C142.486 219.435 144.596 234.955 143.626 250.375C143.396 254.085 142.966 257.755 142.246 261.395C141.906 263.115 142.736 264.905 144.516 265.395C146.116 265.835 148.176 264.855 148.516 263.125C151.766 246.725 149.506 230.065 150.306 213.505C150.386 211.775 150.506 210.045 150.686 208.325C150.856 206.665 150.956 205.915 151.206 204.365C151.716 201.265 152.406 198.195 153.316 195.185C154.216 192.215 155.166 189.695 156.436 187.135C157.086 185.825 157.786 184.535 158.556 183.285C158.946 182.645 159.356 182.005 159.786 181.385C159.986 181.095 160.186 180.815 160.386 180.535C160.476 180.415 161.006 179.695 160.816 179.945C162.526 177.735 164.776 175.445 166.796 173.895C168.986 172.215 171.996 170.395 174.916 169.655C176.426 169.265 177.766 169.315 179.266 169.675C179.816 169.805 179.106 169.535 179.606 169.795C179.876 169.935 180.136 170.065 180.396 170.225C180.526 170.305 180.646 170.395 180.776 170.475C181.206 170.745 180.446 170.185 180.836 170.505C181.106 170.725 181.366 170.965 181.606 171.215C182.186 171.805 182.906 172.875 183.286 173.715C183.196 173.515 183.466 174.195 183.516 174.345C183.636 174.685 183.736 175.035 183.826 175.395C183.906 175.695 183.956 176.005 184.016 176.315C184.026 176.345 184.086 176.855 184.046 176.505C184.006 176.165 184.056 176.795 184.066 176.855C184.086 177.485 184.086 178.095 184.036 178.725C184.006 179.115 184.046 178.695 184.056 178.635C184.036 178.785 184.006 178.945 183.966 179.095C183.876 179.495 183.766 179.895 183.646 180.295C183.596 180.445 183.546 180.585 183.496 180.735C183.526 180.665 183.666 180.365 183.496 180.725C183.356 181.035 183.196 181.345 183.026 181.645C182.676 182.265 182.276 182.835 182.056 183.095C181.016 184.305 180.236 184.965 179.046 185.695C177.686 186.535 176.896 186.875 175.506 187.295C174.766 187.515 174.026 187.675 173.276 187.825C172.746 187.925 173.286 187.855 172.746 187.905C172.336 187.945 171.926 187.975 171.516 187.985C169.856 188.045 168.356 187.885 166.776 187.525C163.366 186.745 160.246 185.235 157.326 183.355C151.256 179.445 146.456 173.685 139.506 171.185C133.536 169.035 125.896 170.305 122.126 175.745C118.286 181.295 120.866 188.885 125.856 192.725C131.636 197.165 139.996 195.855 145.606 191.785C151.816 187.275 155.066 180.215 157.536 173.165C160.236 165.455 162.036 157.475 163.126 149.385C163.546 146.235 164.016 142.935 162.786 139.895C161.196 135.955 157.206 134.215 153.166 135.635C146.086 138.125 142.306 145.185 141.416 152.275C140.916 156.295 141.316 160.335 141.836 164.335C142.376 168.465 142.956 172.585 143.556 176.705C144.736 184.765 146.036 192.805 147.536 200.815C150.506 216.725 154.226 232.505 159.206 247.905C160.416 251.665 161.706 255.395 163.076 259.095C163.686 260.745 165.276 261.855 167.076 261.365C168.646 260.935 169.946 259.025 169.336 257.375Z" fill="white"/>
<path d="M136.31 309.986C133.23 322.296 133.47 335.416 137 347.606C137.27 348.526 137.56 349.466 138.17 350.196C139.47 351.756 141.76 351.946 143.8 352.026C149.06 352.216 154.31 352.396 159.57 352.586C163.76 352.736 168.14 352.846 171.94 351.076C173.74 341.116 174.08 330.896 172.94 320.846C172.65 318.336 172.29 315.706 173.21 313.346C173.65 312.206 174.37 310.876 173.65 309.886C173.09 309.126 171.99 309.086 171.04 309.116C159.81 309.506 148.59 309.886 137.36 310.276" fill="#FF9D91"/>
<path d="M133.179 309.116C130.549 319.786 130.249 330.896 132.259 341.686C132.729 344.216 133.259 346.806 134.109 349.246C135.079 352.026 136.949 354.046 139.849 354.786C142.309 355.416 144.979 355.296 147.499 355.386C150.369 355.486 153.249 355.586 156.119 355.686C161.209 355.866 166.709 356.436 171.609 354.676C173.459 354.006 174.839 353.286 175.199 351.206C175.459 349.716 175.679 348.226 175.879 346.726C176.249 343.956 176.529 341.176 176.689 338.386C176.999 332.856 176.869 327.296 176.299 321.786C176.059 319.456 175.459 316.886 176.199 314.616C176.599 313.406 177.189 312.336 177.199 311.016C177.219 309.316 176.439 307.666 174.969 306.746C172.479 305.196 168.879 305.926 166.099 306.016C162.959 306.126 159.829 306.236 156.689 306.336C150.249 306.556 143.809 306.776 137.379 306.996C135.629 307.056 134.129 308.446 134.129 310.246C134.129 311.956 135.619 313.556 137.379 313.496C147.699 313.146 158.019 312.786 168.329 312.426C169.449 312.386 170.579 312.316 171.699 312.326C172.179 312.336 171.829 312.426 171.789 312.336C171.819 312.406 170.659 310.716 171.139 311.526C170.999 311.286 170.849 311.046 170.709 310.806C170.749 310.586 170.739 310.596 170.679 310.826C170.519 311.056 170.469 311.456 170.359 311.726C169.469 314.016 169.249 316.336 169.469 318.776C169.909 323.706 170.389 328.576 170.339 333.536C170.279 339.116 169.779 344.666 168.799 350.156C169.299 349.506 169.799 348.866 170.289 348.216C166.419 349.946 161.709 349.356 157.589 349.206C152.689 349.036 147.769 348.996 142.879 348.676C142.829 348.676 142.079 348.606 142.389 348.646C142.649 348.676 142.059 348.596 142.089 348.596C141.969 348.576 140.859 348.256 141.169 348.386C141.009 348.316 140.419 347.816 140.699 348.136C140.499 347.906 140.359 347.506 140.229 347.076C139.519 344.816 138.989 342.466 138.549 340.136C137.699 335.626 137.339 331.046 137.399 326.456C137.469 321.156 138.149 315.926 139.419 310.786C140.449 306.786 134.179 305.056 133.179 309.116Z" fill="white"/>
<path d="M235.136 248.358C249.686 255.468 264.756 261.478 280.206 266.308C281.876 266.828 283.746 265.688 284.206 264.038C284.686 262.288 283.616 260.568 281.936 260.038C267.016 255.378 252.466 249.608 238.416 242.738C236.836 241.968 234.906 242.308 233.966 243.908C233.126 245.338 233.546 247.578 235.136 248.358Z" fill="white"/>
<path d="M272.436 146.306C289.226 146.276 305.986 144.716 322.496 141.716C324.226 141.406 325.206 139.306 324.766 137.716C324.266 135.896 322.506 135.136 320.766 135.446C304.816 138.346 288.636 139.776 272.436 139.806C268.256 139.806 268.246 146.306 272.436 146.306Z" fill="white"/>
<path d="M245.846 82.5548C257.916 71.6548 271.276 62.2949 285.596 54.5949C287.146 53.7649 287.626 51.6247 286.766 50.1447C285.856 48.5847 283.866 48.1447 282.316 48.9747C267.516 56.9247 253.716 66.6947 241.246 77.9547C239.946 79.1347 240.046 81.3548 241.246 82.5548C242.546 83.8548 244.546 83.7348 245.846 82.5548Z" fill="white"/>
<path d="M165.259 44.0363C166.029 31.5063 167.379 19.0261 169.349 6.62611C169.629 4.89611 168.899 3.12611 167.079 2.62611C165.529 2.20611 163.359 3.15613 163.079 4.89613C161.019 17.8661 159.559 30.9263 158.759 44.0263C158.649 45.7763 160.329 47.2763 162.009 47.2763C163.859 47.2863 165.149 45.7963 165.259 44.0363Z" fill="white"/>
<path d="M79.0172 62.6049C74.9772 55.695 69.3972 49.9148 64.4672 43.6648C59.5972 37.4948 55.4572 30.7248 51.9872 23.6748C51.2072 22.1048 48.9772 21.6649 47.5372 22.5049C45.9372 23.4449 45.5972 25.3748 46.3672 26.9548C49.9672 34.2548 54.3172 41.1149 59.3072 47.5449C64.0372 53.6349 69.4872 59.1947 73.3972 65.8847C75.5172 69.4947 81.1372 66.235 79.0172 62.6049Z" fill="white"/>
<path d="M37.8476 146.997C26.1876 147.167 14.5676 148.326 3.09757 150.406C1.36757 150.716 0.387548 152.816 0.827548 154.406C1.32755 156.226 3.08755 156.986 4.82755 156.676C15.7275 154.696 26.7676 153.657 37.8476 153.497C42.0276 153.437 42.0376 146.937 37.8476 146.997Z" fill="white"/>
<path d="M62.7485 240.078C55.5985 250.648 47.7685 260.728 39.2785 270.248C38.1085 271.558 37.9885 273.548 39.2785 274.848C40.4685 276.038 42.6985 276.168 43.8785 274.848C52.7285 264.918 60.9185 254.388 68.3685 243.358C69.3485 241.908 68.6485 239.758 67.1985 238.908C65.5885 237.978 63.7285 238.618 62.7485 240.078Z" fill="white"/>
</svg>
