<svg width="328" height="269" viewBox="0 0 328 269" fill="none" xmlns="http://www.w3.org/2000/svg">
<path d="M50.758 268.307C123.018 243.667 196.068 221.337 269.758 201.357C244.508 194.247 219.258 187.137 194.008 180.027C235.008 167.827 273.248 146.497 305.158 118.047C288.298 114.547 271.448 111.057 254.588 107.557C280.738 90.4366 305.068 70.5465 327.038 48.3265C244.808 32.4565 162.588 16.5966 80.358 0.726562C108.378 31.4866 146.998 50.0566 184.598 67.8966C149.848 90.4466 114.148 111.547 77.628 131.107C99.448 135.637 121.278 140.157 143.098 144.687C104.058 179.817 68.958 219.327 38.668 262.227L50.758 268.307Z" fill="#FF6152"/>
<path d="M14.5283 259.297C83.5183 235.767 153.258 214.446 223.608 195.376C199.498 188.586 175.398 181.796 151.288 175.006C190.428 163.356 226.938 142.996 257.408 115.826C241.318 112.486 225.218 109.146 209.128 105.816C234.098 89.4664 257.318 70.4765 278.298 49.2665C199.798 34.1165 121.288 18.9664 42.7883 3.81641C69.5383 33.1864 106.408 50.9164 142.308 67.9464C109.128 89.4764 75.0483 109.617 40.1783 128.297C61.0183 132.617 81.8483 136.936 102.688 141.266C65.4083 174.806 31.8983 212.526 2.98828 253.486L14.5283 259.297Z" fill="white"/>
<path d="M15.1998 261.708C42.1098 252.528 69.1398 243.688 96.2798 235.188C123.42 226.688 150.66 218.518 178 210.698C193.4 206.288 208.83 201.988 224.29 197.798C226.68 197.148 226.65 193.638 224.29 192.978C205.55 187.698 186.81 182.418 168.07 177.148C162.7 175.638 157.34 174.128 151.97 172.618C151.97 174.228 151.97 175.828 151.97 177.438C167.38 172.838 182.39 166.918 196.79 159.778C211.21 152.628 225.02 144.248 238 134.738C245.33 129.368 252.4 123.658 259.19 117.618C260.55 116.408 259.89 113.808 258.09 113.438C242 110.098 225.9 106.758 209.81 103.428C210.01 104.948 210.21 106.478 210.41 107.998C229.96 95.1783 248.48 80.7682 265.69 64.9382C270.6 60.4282 275.39 55.7883 280.08 51.0583C281.32 49.8083 280.87 47.2483 278.98 46.8783C248.37 40.9683 217.76 35.0683 187.15 29.1583C156.54 23.2483 125.93 17.3482 95.3198 11.4382C78.0298 8.09821 60.7498 4.76832 43.4598 1.42832C41.0198 0.958319 39.2798 3.69825 41.0298 5.60825C51.4998 17.0683 63.6198 26.8983 76.5098 35.5083C89.4698 44.1683 103.21 51.6082 117.14 58.5682C125.06 62.5282 133.05 66.3283 141.05 70.1183C141.05 68.6783 141.05 67.2383 141.05 65.7983C115.13 82.6183 88.6598 98.5983 61.6898 113.678C54.1398 117.898 46.5497 122.058 38.9197 126.148C37.0897 127.128 37.4098 130.278 39.5198 130.718C60.3598 135.038 81.1898 139.358 102.03 143.688C101.66 142.298 101.29 140.898 100.93 139.508C86.3698 152.618 72.3798 166.358 59.0098 180.688C45.5898 195.078 32.7998 210.048 20.6798 225.548C13.8498 234.288 7.22979 243.178 0.839789 252.238C0.0897893 253.298 0.609753 255.088 1.73975 255.658C5.58975 257.588 9.42979 259.528 13.2798 261.458C16.1498 262.898 18.6798 258.588 15.7998 257.138C11.9498 255.208 8.10977 253.268 4.25977 251.338C4.55977 252.478 4.85974 253.618 5.15974 254.758C16.3897 238.858 28.2998 223.458 40.8798 208.598C53.4798 193.708 66.7298 179.358 80.5798 165.618C88.3598 157.898 96.3297 150.368 104.47 143.038C105.82 141.818 105.17 139.238 103.37 138.858C82.5298 134.538 61.6997 130.218 40.8597 125.888C41.0597 127.408 41.2598 128.938 41.4598 130.458C68.6998 115.858 95.4598 100.388 121.69 84.0383C129.03 79.4583 136.33 74.8183 143.59 70.1083C145.04 69.1683 145.39 66.6383 143.59 65.7883C115.78 52.5983 87.4498 39.1982 63.3898 19.6982C56.6998 14.2782 50.3898 8.39831 44.5798 2.04831C43.7698 3.43831 42.9598 4.83825 42.1498 6.22825C72.7598 12.1382 103.37 18.0382 133.98 23.9482C164.59 29.8582 195.2 35.7583 225.81 41.6683C243.1 45.0083 260.38 48.3383 277.67 51.6783C277.3 50.2883 276.93 48.8883 276.57 47.4983C260.3 63.9283 242.71 79.0582 223.97 92.5982C218.7 96.4082 213.34 100.088 207.9 103.658C206.23 104.758 206.27 107.768 208.5 108.228C224.59 111.568 240.69 114.908 256.78 118.238C256.41 116.848 256.04 115.448 255.68 114.058C243.93 124.518 231.3 133.948 217.95 142.258C204.61 150.558 190.56 157.778 176 163.698C167.71 167.068 159.25 170.038 150.67 172.598C148.32 173.298 148.26 176.738 150.67 177.418C169.41 182.698 188.15 187.978 206.89 193.248C212.26 194.758 217.62 196.268 222.99 197.778C222.99 196.168 222.99 194.568 222.99 192.958C195.54 200.398 168.19 208.178 140.94 216.298C113.69 224.418 86.5398 232.878 59.4998 241.678C44.2698 246.638 29.0697 251.698 13.9097 256.868C10.8397 257.918 12.1398 262.748 15.1998 261.708Z" fill="white"/>
</svg>
