<svg width="427" height="679" viewBox="0 0 427 679" fill="none" xmlns="http://www.w3.org/2000/svg">
<path d="M146.178 453.428C138.428 457.848 132.398 464.918 128.908 473.098C125.238 481.708 124.538 491.028 126.868 500.088C128.118 504.938 129.988 509.958 128.968 515.028C128.158 519.038 125.978 522.528 123.168 525.448C116.848 532.018 108.368 535.328 100.068 538.598C91.3581 542.038 82.1881 545.828 76.0481 553.238C69.8481 560.728 67.7381 570.178 66.4781 579.598C65.2481 588.838 64.6381 598.128 61.5881 607.018C58.7681 615.238 54.2681 622.878 48.8581 629.658C37.2981 644.148 22.1481 655.318 6.9381 665.678C5.0581 666.958 3.16811 668.228 1.26811 669.498C-1.39189 671.278 1.10807 675.608 3.78807 673.818C19.2781 663.458 34.8681 652.658 47.5281 638.858C53.6481 632.188 59.0881 624.778 63.0081 616.598C64.9681 612.528 66.5881 608.278 67.7581 603.908C69.0181 599.208 69.6881 594.378 70.2781 589.548C71.3581 580.648 71.8681 571.158 75.7681 562.918C77.7281 558.788 80.4881 555.238 84.0581 552.378C87.6181 549.518 91.8281 547.448 95.9981 545.628C104.498 541.928 113.498 539.308 121.078 533.788C128.328 528.518 134.458 520.878 134.238 511.468C134.108 505.808 131.808 500.558 130.858 495.038C130.168 491.048 130.288 486.848 131.068 482.888C132.718 474.508 137.108 466.788 143.638 461.248C145.198 459.918 146.908 458.778 148.688 457.758C151.498 456.148 148.978 451.828 146.178 453.428Z" fill="white"/>
<path d="M228.749 449.708C223.429 455.258 220.239 462.438 219.419 470.048C219.019 473.758 219.299 477.538 220.169 481.158C221.149 485.228 222.849 489.058 224.269 492.978C225.629 496.718 226.699 500.538 226.569 504.548C226.449 508.168 225.409 511.748 223.619 514.888C220.339 520.658 214.599 524.048 209.269 527.678C203.769 531.418 198.469 535.688 196.209 542.178C193.869 548.878 195.669 556.058 197.939 562.508C200.209 568.948 203.329 575.508 203.569 582.448C203.819 589.568 200.259 595.788 195.669 600.968C186.049 611.818 171.029 619.998 167.649 635.188C167.239 637.018 167.039 638.898 167.039 640.768C167.039 643.988 172.039 643.988 172.039 640.768C172.039 633.668 175.949 627.518 180.569 622.418C185.579 616.888 191.569 612.398 196.789 607.088C201.839 601.948 206.509 595.848 208.019 588.648C209.529 581.428 207.559 574.338 205.099 567.568C202.869 561.408 199.879 554.968 200.119 548.278C200.339 542.088 204.249 537.478 209.019 533.958C214.239 530.098 220.179 526.998 224.549 522.108C229.679 516.368 232.329 508.418 231.399 500.748C230.399 492.478 225.549 485.298 224.459 477.078C223.549 470.188 225.289 463.048 229.069 457.248C230.009 455.798 231.089 454.478 232.279 453.238C234.509 450.918 230.979 447.378 228.749 449.708Z" fill="white"/>
<path d="M221.619 639.989C222.139 634.509 225.029 629.439 228.449 624.989C232.039 620.309 236.309 616.059 240.099 611.499C244.009 606.789 247.589 601.669 249.299 595.729C251.529 587.959 249.889 579.93 247.129 572.53C245.659 568.58 243.909 564.739 242.299 560.849C240.789 557.199 238.659 553.059 239.989 549.069C241.109 545.699 243.879 542.719 246.199 540.109C248.689 537.309 251.349 534.67 253.889 531.92C259.109 526.29 263.769 520.069 265.529 512.449C267.409 504.329 266.349 495.709 263.539 487.939C262.139 484.059 260.239 480.43 258.339 476.78C256.479 473.22 254.699 469.599 253.899 465.629C252.609 459.199 254.689 452.049 258.969 447.129C260.039 445.909 261.219 444.769 262.539 443.819C263.629 443.029 264.159 441.64 263.439 440.4C262.809 439.32 261.119 438.709 260.019 439.499C254.039 443.819 249.929 450.43 248.879 457.76C248.319 461.62 248.549 465.499 249.659 469.249C250.839 473.249 252.809 476.97 254.739 480.65C258.569 487.96 261.499 495.629 261.499 503.999C261.499 507.949 260.829 511.899 259.339 515.569C257.979 518.899 255.899 521.949 253.619 524.709C248.759 530.579 242.969 535.61 238.449 541.77C235.929 545.21 234.119 549.06 234.689 553.42C235.269 557.8 237.409 562 239.129 566.03C242.289 573.43 245.839 581.269 245.359 589.499C244.999 595.609 242.029 600.929 238.379 605.719C231.149 615.209 220.669 623.239 217.459 635.249C217.049 636.799 216.799 638.389 216.649 639.979C216.519 641.329 217.889 642.479 219.149 642.479C220.579 642.489 221.489 641.339 221.619 639.989Z" fill="white"/>
<path d="M392.63 328.369C392.32 341.929 385.17 354.039 382.4 367.099C381 373.669 380.9 380.229 382.34 386.809C383.71 393.049 386.18 398.979 388.49 404.909C392.7 415.719 396.52 427.329 391.35 438.519C387.01 447.929 379.15 455.089 372.46 462.799C365.43 470.889 359.22 480.079 359.1 491.199C358.94 505.679 367.98 517.879 371.38 531.509C372.88 537.519 373.48 544.179 371.09 550.059C368.52 556.359 362.24 560.039 358.46 565.529C354.64 571.069 352.58 577.879 352.61 584.599C352.65 591.849 355.37 598.649 356.68 605.689C357.89 612.169 356.91 618.489 353.82 624.319C350.78 630.039 346.4 634.889 341.71 639.299C332.38 648.069 321.35 655.339 314.57 666.479C312.93 669.169 311.62 672.059 310.66 675.059C309.67 678.129 314.5 679.449 315.48 676.389C319.45 664.029 330.36 655.689 339.86 647.609C349.37 639.519 359.53 629.559 361.75 616.709C363 609.479 361.19 602.609 359.41 595.649C357.65 588.779 356.85 582.139 359.13 575.279C360.15 572.219 361.72 569.289 363.73 566.759C365.89 564.039 368.61 561.859 370.94 559.299C375.38 554.419 377.55 548.339 377.67 541.769C377.92 527.409 369.61 515.339 365.75 501.989C363.96 495.799 363.43 489.409 365.41 483.199C366.9 478.519 369.61 474.279 372.61 470.429C379.06 462.159 387.07 455.149 392.77 446.279C395.49 442.049 397.64 437.319 398.46 432.339C399.51 426.019 398.65 419.679 396.84 413.569C393.27 401.479 386.13 389.919 386.22 376.989C386.32 363.469 393.58 351.289 396.39 338.299C397.1 335.029 397.54 331.699 397.62 328.359C397.7 325.149 392.7 325.149 392.63 328.369Z" fill="white"/>
<path d="M346.207 380.548C337.967 398.538 354.587 416.028 350.017 434.238C347.587 443.918 341.067 451.948 336.407 460.588C331.277 470.118 327.107 480.698 325.477 491.448C324.647 496.938 324.607 502.388 325.697 507.838C326.667 512.678 328.347 517.328 329.917 521.998C332.867 530.798 335.487 540.178 330.767 548.858C328.587 552.858 325.537 556.248 322.507 559.618C319.307 563.178 316.147 566.778 313.577 570.828C308.067 579.508 305.017 589.628 304.657 599.888C304.277 610.748 306.567 621.748 303.937 632.468C301.817 641.088 297.147 648.998 290.647 655.038C289.017 656.548 287.287 657.928 285.457 659.168C282.807 660.968 285.307 665.298 287.977 663.488C295.677 658.268 301.897 650.978 305.717 642.478C307.627 638.228 308.997 633.778 309.647 629.168C310.447 623.478 310.247 617.758 309.957 612.038C309.667 606.478 309.347 600.888 309.987 595.348C310.547 590.448 311.897 585.548 313.837 581.018C315.767 576.508 318.337 572.218 321.447 568.418C324.397 564.818 327.687 561.518 330.607 557.888C333.507 554.278 336.057 550.388 337.387 545.908C338.797 541.158 338.647 536.158 337.727 531.328C335.887 521.618 330.807 512.628 329.957 502.708C329.017 491.798 332.677 480.508 337.037 470.638C339.147 465.858 341.647 461.298 344.357 456.838C346.967 452.548 349.677 448.288 351.817 443.728C353.967 439.148 355.517 434.338 355.797 429.258C356.057 424.568 355.207 419.838 354.067 415.298C351.927 406.748 347.977 397.908 348.927 388.928C349.137 386.928 349.677 384.908 350.517 383.078C351.077 381.848 350.867 380.388 349.617 379.658C348.557 379.018 346.777 379.308 346.207 380.548Z" fill="white"/>
<path d="M422.829 271.816C420.219 243.046 409.569 225.076 395.359 199.926C362.009 140.936 328.099 81.1957 280.529 32.9357C269.289 21.5357 256.589 10.4258 240.979 6.86579C222.969 2.75579 204.189 9.33585 185.779 7.79585C171.569 6.60585 157.489 0.585797 143.479 3.2458C128.489 6.0958 117.219 18.1458 107.069 29.5458C97.2093 40.6158 87.2293 51.8658 80.5893 65.1258C74.4493 77.3758 71.3793 90.9559 69.6793 104.556C62.8293 159.386 77.5693 214.976 72.7593 270.016C70.4393 296.586 63.5893 322.636 61.9293 349.256C60.2593 375.876 64.5193 404.336 81.5993 424.816C100.959 448.036 133.029 456.576 163.239 457.706C207.049 459.346 251.259 447.846 288.719 425.076C305.599 414.816 321.059 402.376 335.969 389.416C352.849 374.746 369.159 359.286 383.129 341.816C398.719 322.326 411.199 300.576 423.619 278.926L422.829 271.816Z" fill="#FF9D91"/>
<path d="M425.329 271.817C424.379 261.617 422.369 251.577 418.979 241.897C415.819 232.867 411.629 224.237 407.089 215.817C396.739 196.597 385.739 177.667 374.739 158.817C352.649 120.977 328.999 83.797 300.239 50.607C293.149 42.427 285.799 34.4271 278.009 26.9171C270.589 19.7571 262.459 12.967 253.089 8.51703C242.959 3.70703 232.179 2.50697 221.079 3.20697C209.599 3.93697 198.159 6.16698 186.619 5.34698C175.129 4.53698 164.109 0.446973 152.559 0.086973C142.249 -0.233027 132.719 3.19703 124.459 9.26703C116.399 15.207 109.759 22.7271 103.149 30.1771C95.8588 38.3971 88.6288 46.777 82.7888 56.107C70.5788 75.607 66.8788 98.8171 65.7088 121.427C64.4588 145.407 66.5188 169.397 68.4488 193.287C70.3688 217.047 72.2288 240.937 70.6588 264.777C69.0788 288.787 63.4388 312.257 60.6288 336.107C58.2188 356.597 58.1788 377.807 64.3988 397.677C70.2988 416.507 82.0588 432.457 98.8688 442.917C115.029 452.967 134.019 457.697 152.809 459.487C173.909 461.507 195.439 460.007 216.209 455.867C237.519 451.617 258.229 444.307 277.489 434.257C297.619 423.747 315.759 409.957 332.999 395.247C350.319 380.467 367.169 364.937 381.759 347.407C396.439 329.777 408.439 310.187 419.909 290.377C421.319 287.947 422.709 285.517 424.109 283.077C424.969 281.587 426.169 280.137 426.069 278.367C425.929 276.207 425.559 274.007 425.329 271.817C424.979 268.657 419.979 268.617 420.329 271.817C420.569 274.007 420.849 276.197 421.049 278.387C421.059 278.517 421.129 278.737 421.099 278.877C421.259 278.027 420.899 278.717 420.609 279.107C419.799 280.197 419.189 281.577 418.509 282.757C417.109 285.187 415.709 287.617 414.299 290.047C408.659 299.747 402.889 309.387 396.709 318.747C384.369 337.427 369.979 354.307 353.819 369.797C337.799 385.157 320.839 399.897 302.749 412.777C285.139 425.317 266.009 435.507 245.589 442.657C225.489 449.687 204.409 453.907 183.139 455.027C163.739 456.047 143.939 454.837 125.259 449.187C107.649 443.867 90.9688 434.187 80.2088 418.937C68.9188 402.947 64.6388 383.167 64.1288 363.877C63.5388 341.277 68.1488 319.007 71.7288 296.807C73.5788 285.327 75.1488 273.787 75.7988 262.167C76.4388 250.557 76.2988 238.927 75.7688 227.317C74.6988 204.017 72.0488 180.817 70.8788 157.527C69.7388 134.867 69.7588 111.607 74.7888 89.367C77.2188 78.627 81.0588 68.357 86.8788 58.977C92.6088 49.747 99.7488 41.517 106.939 33.407C113.389 26.147 119.869 18.607 127.839 12.957C136.409 6.86697 145.779 4.30696 156.269 5.32696C167.469 6.41696 178.229 10.167 189.539 10.487C200.809 10.807 211.939 8.60697 223.159 8.08697C233.859 7.58697 244.049 9.18697 253.529 14.337C262.429 19.167 270.029 25.977 277.159 33.087C307.489 63.347 332.289 98.6771 354.689 135.047C365.959 153.337 376.649 171.977 387.249 190.667C396.959 207.787 407.779 224.847 414.269 243.537C417.439 252.677 419.429 262.167 420.329 271.797C420.619 274.997 425.629 275.027 425.329 271.817Z" fill="#1223AA"/>
<path d="M412.98 265.559C398.43 238.909 382.01 213.339 363.44 189.309C354.16 177.309 344.39 165.699 334.2 154.469C324.04 143.279 313.59 132.259 302.16 122.359C291.04 112.729 278.91 104.089 265.46 98.0388C258.03 94.6988 250.28 92.2287 242.38 90.2187C238.37 89.1987 234.34 88.2888 230.3 87.3888C226.08 86.4488 221.85 85.4687 217.54 85.0687C213.55 84.6987 209.52 85.0087 205.68 86.2187C201.96 87.3887 198.48 89.2187 194.75 90.3587C187.85 92.4787 180.63 91.5187 173.68 90.1887C166.52 88.8087 159.31 86.9987 151.96 87.0987C145.11 87.1987 138.51 89.2587 132.84 93.1087C121.18 101.039 114.03 114.079 108.61 126.739C102.47 141.059 98.4201 156.159 95.9801 171.529C93.5101 187.119 92.5702 202.909 92.5902 218.689C92.6002 226.759 92.4601 235.189 94.9901 242.949C97.3801 250.279 102.08 256.549 104.81 263.739C110.05 277.529 110.99 292.509 116 306.369C118.6 313.569 122.34 320.079 127.28 325.929C132.17 331.719 137.92 336.749 143.93 341.339C167.71 359.509 197.54 369.039 227.42 368.379C244.61 367.999 261.6 364.719 278.34 360.989C295.29 357.209 312.13 352.959 328.95 348.659C333.01 347.619 337.16 346.729 341.09 345.269C344.51 343.999 347.81 342.409 350.99 340.619C357.59 336.919 363.8 332.599 370.41 328.929C376.86 325.349 383.48 321.849 388.88 316.739C394.42 311.499 398.97 305.139 403.52 299.049C408 293.069 412.44 287.049 417.57 281.599C418.14 280.989 418.53 279.999 418.21 279.169C416.54 274.839 414.88 270.499 413.21 266.169C412.73 264.909 411.53 264.039 410.13 264.419C408.93 264.749 407.9 266.229 408.38 267.499C410.05 271.829 411.71 276.169 413.38 280.499C413.59 279.689 413.81 278.879 414.02 278.069C408.8 283.619 404.25 289.749 399.7 295.849C395.23 301.819 390.78 308.069 385.33 313.209C380.17 318.069 373.78 321.329 367.63 324.749C361.26 328.299 355.25 332.449 348.91 336.049C345.72 337.859 342.43 339.519 338.96 340.739C335.06 342.119 330.98 342.979 326.97 344.009C318.76 346.109 310.55 348.199 302.33 350.219C285.93 354.249 269.44 358.279 252.76 360.959C237.05 363.479 220.93 364.479 205.13 362.039C191.01 359.859 177.25 355.349 164.61 348.679C151.97 342.009 139.81 333.229 130.6 322.209C125.97 316.679 122.57 310.379 120.26 303.559C117.93 296.669 116.52 289.519 115.01 282.429C113.5 275.329 111.9 268.209 109.21 261.449C106.44 254.479 101.81 248.279 99.6001 241.099C97.3001 233.639 97.5501 225.589 97.5601 217.869C97.5701 210.139 97.8002 202.399 98.3402 194.689C99.4102 179.449 101.69 164.279 105.82 149.559C109.72 135.649 115.11 121.489 123.48 109.609C127.09 104.489 131.51 99.7187 136.91 96.4487C142.63 92.9787 148.96 91.7987 155.59 92.2387C169.93 93.1987 183.88 99.7787 198.15 94.4887C201.63 93.1987 204.97 91.5187 208.58 90.6087C212.48 89.6287 216.57 89.8387 220.51 90.4887C228.48 91.8087 236.45 93.7988 244.24 95.9088C251.74 97.9388 259.07 100.459 266.06 103.859C272.57 107.029 278.78 110.799 284.69 114.969C296.46 123.279 307.01 133.189 317.02 143.509C327.51 154.319 337.59 165.539 347.23 177.119C365.98 199.649 382.81 223.699 397.73 248.919C401.48 255.249 405.1 261.659 408.63 268.119C410.21 270.909 414.53 268.389 412.98 265.559Z" fill="#1223AA"/>
<path d="M326.319 157.607C319.689 157.447 313.269 155.317 307.839 151.507C305.129 149.597 302.269 147.557 298.769 148.677C295.739 149.647 293.869 152.447 290.729 153.247C287.759 154.007 284.509 153.777 281.479 153.597C278.319 153.397 275.189 153.007 272.069 152.457C265.469 151.297 258.999 149.547 252.569 147.687C239.889 144.027 227.189 139.877 213.929 138.957C210.739 138.737 207.529 138.717 204.339 138.947C200.579 139.227 196.879 139.937 193.159 140.557C189.829 141.107 186.359 141.527 182.989 141.007C180.309 140.597 177.709 139.697 175.259 138.557C169.369 135.807 164.089 131.937 158.179 129.227C155.179 127.857 152.099 126.757 148.829 126.287C146.069 125.887 142.449 126.027 140.439 123.787C138.289 121.387 134.759 124.937 136.899 127.327C139.069 129.747 142.189 130.437 145.279 130.847C148.119 131.217 150.829 131.667 153.529 132.667C158.939 134.677 163.749 138.057 168.769 140.837C174.159 143.827 179.929 146.207 186.179 146.227C190.099 146.237 193.979 145.467 197.819 144.807C201.089 144.247 204.359 143.867 207.679 143.797C234.679 143.257 259.089 158.947 286.099 158.737C289.759 158.707 293.569 158.167 296.609 155.977C297.759 155.147 299.009 153.727 300.439 153.407C301.929 153.067 303.519 154.547 304.629 155.357C310.949 159.917 318.509 162.447 326.309 162.627C329.529 162.687 329.529 157.687 326.319 157.607Z" fill="#1223AA"/>
<path d="M215.421 90.0051C211.061 105.505 209.811 121.835 211.821 137.815C211.991 139.155 212.851 140.315 214.321 140.315C215.541 140.315 216.991 139.165 216.821 137.815C214.851 122.245 215.991 106.445 220.241 91.335C221.121 88.225 216.301 86.9051 215.421 90.0051Z" fill="#1223AA"/>
<path d="M300.257 136.399C300.287 136.579 300.317 136.749 300.337 136.929C300.307 136.709 300.317 136.749 300.347 137.059C300.377 137.329 300.407 137.589 300.427 137.859C300.477 138.479 300.497 139.099 300.497 139.729C300.497 140.359 300.467 140.979 300.417 141.599C300.387 141.949 300.357 142.309 300.307 142.659C300.357 142.279 300.237 143.089 300.217 143.179C299.997 144.409 299.687 145.619 299.287 146.799C298.867 148.019 298.547 148.729 297.857 149.979C297.227 151.129 297.537 152.759 298.757 153.399C299.927 154.019 301.507 153.729 302.177 152.499C305.117 147.159 306.067 141.068 305.067 135.068C304.847 133.778 303.187 132.938 301.987 133.318C300.607 133.768 300.027 135.009 300.257 136.399Z" fill="#1223AA"/>
<path d="M169.37 91.8959C165.93 97.9059 162.64 104.056 160.36 110.616C158.1 117.106 157.08 123.956 157.33 130.826C157.45 134.036 162.45 134.046 162.33 130.826C162.09 124.356 163.06 118.056 165.18 111.946C167.32 105.796 170.47 100.056 173.69 94.4259C175.28 91.6159 170.97 89.0959 169.37 91.8959Z" fill="#1223AA"/>
<path d="M275.458 175.925C273.358 185.325 265.148 192.675 255.678 194.175C245.158 195.845 235.488 188.925 225.708 186.315C223.108 185.625 220.388 185.165 217.688 185.195C214.688 185.225 211.968 186.005 209.128 186.865C206.768 187.575 204.718 187.715 202.968 186.145C201.278 184.625 200.038 182.675 198.638 180.915C197.148 179.045 195.388 177.365 193.198 176.345C190.788 175.225 188.248 174.755 185.608 174.515C180.818 174.075 175.378 174.675 171.228 171.785C168.628 169.985 166.758 167.155 164.858 164.685C162.488 161.595 160.118 158.495 157.758 155.405C153.028 149.215 148.308 143.015 143.598 136.805C142.778 135.735 141.438 135.165 140.178 135.905C139.118 136.525 138.458 138.245 139.278 139.325C143.688 145.135 148.108 150.935 152.538 156.735C154.748 159.635 156.968 162.535 159.178 165.425C161.128 167.965 162.988 170.635 165.158 172.995C167.228 175.255 169.698 177.015 172.628 177.985C175.248 178.855 178.078 179.065 180.828 179.215C185.578 179.475 190.598 179.395 194.048 183.185C197.438 186.905 199.758 191.875 205.378 192.405C208.678 192.715 211.688 191.035 214.848 190.435C217.258 189.975 219.798 190.135 222.188 190.615C233.168 192.795 242.998 200.355 254.608 199.305C266.648 198.215 277.628 189.175 280.288 177.245C280.978 174.115 276.168 172.775 275.458 175.925Z" fill="#1223AA"/>
<path d="M236.459 162.247C232.229 169.827 223.099 174.437 214.459 172.937C213.129 172.707 211.769 173.297 211.379 174.687C211.049 175.887 211.789 177.527 213.129 177.767C223.959 179.647 235.379 174.447 240.769 164.777C242.349 161.957 238.029 159.427 236.459 162.247Z" fill="#1223AA"/>
<path d="M203.939 155.946C198.129 158.316 192.329 160.686 186.519 163.056C185.269 163.566 184.389 164.716 184.769 166.136C185.099 167.316 186.589 168.396 187.849 167.886C193.659 165.516 199.459 163.146 205.269 160.776C206.519 160.266 207.399 159.116 207.019 157.696C206.689 156.516 205.189 155.436 203.939 155.946Z" fill="#1223AA"/>
<path d="M213.888 352.675C213.458 347.815 210.818 343.375 206.578 340.865C204.708 339.755 202.648 339.225 200.538 338.805C198.718 338.445 196.748 338.125 195.208 337.305C194.678 337.015 194.268 336.635 193.978 336.055C193.348 334.805 193.168 333.485 192.208 332.375C190.988 330.965 189.188 330.295 187.488 329.655C186.628 329.335 186.488 329.335 185.758 328.865C185.668 328.805 185.398 328.565 185.738 328.855C185.398 328.565 185.678 328.765 185.718 328.885C185.528 328.445 185.688 328.835 185.718 328.915C185.868 329.355 185.808 328.835 185.688 329.005C187.338 326.635 189.178 324.405 190.968 322.135C195.218 316.755 199.458 311.385 203.708 306.005C204.598 304.875 204.818 302.825 203.198 302.075C202.808 301.895 202.998 301.995 203.178 302.275C203.338 302.595 203.358 302.595 203.248 302.265C203.258 302.305 203.268 302.355 203.288 302.395C203.398 302.165 203.378 301.715 203.558 301.295C204.028 300.175 204.948 299.175 205.668 298.205C207.668 295.535 209.658 292.865 211.658 290.195C212.398 289.205 211.908 287.265 210.758 286.775C200.458 282.395 192.358 293.185 187.218 300.505C184.668 304.145 182.248 307.895 179.308 311.245C177.898 312.855 176.368 314.405 174.668 315.715C172.998 316.995 171.148 317.955 169.298 318.945C165.158 321.135 160.468 324.055 160.528 329.345C160.568 332.565 165.568 332.565 165.528 329.345C165.508 327.995 166.128 327.065 167.328 326.035C168.628 324.915 170.288 324.075 171.818 323.265C175.458 321.335 178.738 319.135 181.608 316.135C187.428 310.055 191.228 302.395 196.868 296.165C199.408 293.355 204.088 289.335 208.228 291.095C207.928 289.955 207.628 288.815 207.328 287.675C204.818 291.025 202.038 294.305 199.768 297.815C198.118 300.365 197.248 304.815 200.678 306.395C200.508 305.085 200.338 303.775 200.168 302.465C196.278 307.385 192.388 312.305 188.498 317.235C186.558 319.695 184.598 322.145 182.668 324.615C181.078 326.645 179.898 329.175 181.518 331.575C182.618 333.215 184.528 333.855 186.288 334.525C187.078 334.825 187.488 334.925 188.248 335.465C187.888 335.205 188.708 335.985 188.428 335.605C188.828 336.145 188.948 336.895 189.188 337.505C190.968 342.045 195.608 342.865 199.858 343.755C202.098 344.225 204.138 344.905 205.818 346.525C207.498 348.145 208.678 350.335 208.878 352.675C208.998 354.015 209.938 355.175 211.378 355.175C212.648 355.175 214.008 354.035 213.888 352.675Z" fill="#1223AA"/>
<path d="M129.779 171.318C122.729 185.268 119.339 200.938 120.159 216.558C120.329 219.758 125.329 219.778 125.159 216.558C124.389 201.818 127.439 187.018 134.099 173.838C135.539 170.978 131.229 168.448 129.779 171.318Z" fill="#1223AA"/>
<path d="M362.741 206.725C357.251 209.045 351.081 208.735 345.361 207.615C338.941 206.365 332.731 204.245 326.371 202.775C319.991 201.305 313.491 200.535 307.001 201.695C300.501 202.855 294.401 205.875 289.051 209.655C278.021 217.455 270.021 228.315 260.691 237.915C256.081 242.655 251.111 247.075 245.321 250.335C239.031 253.885 232.051 255.885 225.361 258.505C218.291 261.265 211.491 264.745 206.491 270.605C201.741 276.165 198.911 283.205 200.521 290.545C201.211 293.685 206.031 292.355 205.341 289.215C204.111 283.605 206.621 278.025 210.281 273.845C214.591 268.925 220.271 265.865 226.281 263.495C232.831 260.905 239.621 258.905 245.921 255.695C251.871 252.665 257.131 248.435 261.901 243.785C271.241 234.695 278.871 223.925 289.141 215.785C294.011 211.925 299.571 208.695 305.621 207.115C311.661 205.535 317.821 206.025 323.871 207.335C337.461 210.285 351.521 216.865 365.271 211.045C366.511 210.515 366.791 208.685 366.171 207.625C365.411 206.335 363.991 206.205 362.741 206.725Z" fill="#1223AA"/>
<path d="M337.388 228.748C319.708 239.548 301.078 251.478 293.218 271.648C291.168 276.918 290.088 282.578 290.218 288.238C290.288 291.448 295.288 291.458 295.218 288.238C294.768 268.218 310.068 252.788 325.448 242.258C330.168 239.028 335.038 236.048 339.918 233.068C342.658 231.388 340.148 227.068 337.388 228.748Z" fill="#1223AA"/>
<path d="M222.679 97.4653C221.949 105.505 221.439 113.575 221.169 121.645C221.049 125.265 220.529 129.335 221.789 132.815C222.909 135.905 225.359 138.075 228.329 139.355C231.259 140.625 234.379 141.145 237.499 141.725C241.399 142.455 245.299 143.185 249.199 143.915C257.079 145.395 264.969 147.155 272.899 148.305C276.929 148.895 281.349 148.995 284.919 146.715C287.999 144.755 290.439 141.245 289.929 137.445C289.749 136.105 288.909 134.945 287.429 134.945C286.219 134.945 284.749 136.095 284.929 137.445C285.239 139.815 283.809 141.695 281.759 142.765C279.079 144.165 275.699 143.745 272.839 143.255C265.709 142.035 258.609 140.595 251.499 139.265C247.919 138.595 244.349 137.925 240.769 137.255C237.809 136.705 234.779 136.275 231.909 135.365C229.859 134.715 227.699 133.685 226.709 131.655C226.069 130.345 226.029 128.815 226.029 127.385C226.019 125.625 226.099 123.865 226.149 122.115C226.409 113.875 226.919 105.645 227.669 97.4453C227.789 96.0953 226.429 94.9453 225.169 94.9453C223.729 94.9653 222.809 96.1153 222.679 97.4653Z" fill="white"/>
<path d="M171.887 100.389C169.617 108.219 167.937 116.468 167.557 124.628C167.467 126.498 167.687 128.498 168.767 130.078C169.787 131.578 171.287 132.528 172.977 133.118C175.877 134.128 179.457 133.328 182.027 135.188C183.117 135.978 184.817 135.379 185.447 134.289C186.187 133.029 185.647 131.668 184.547 130.868C181.937 128.968 178.837 129.278 175.837 128.698C174.927 128.518 173.737 128.279 173.087 127.549C172.157 126.509 172.547 124.578 172.657 123.338C173.267 116.008 174.667 108.768 176.717 101.718C177.607 98.6185 172.787 97.2985 171.887 100.389Z" fill="white"/>
<path d="M135.99 101.695C135.07 104.715 134.72 107.945 135 111.085C135.06 111.765 135.24 112.355 135.73 112.855C136.16 113.285 136.88 113.615 137.5 113.585C138.75 113.525 140.13 112.475 140 111.085C139.85 109.395 139.88 107.705 140.1 106.025C140.07 106.245 140.04 106.465 140.01 106.685C140.18 105.445 140.45 104.215 140.81 103.015C141.19 101.765 140.36 100.235 139.06 99.9353C137.72 99.6453 136.4 100.355 135.99 101.695Z" fill="white"/>
<path d="M158.719 149.197C160.229 151.427 161.669 153.737 163.279 155.887C164.729 157.817 166.549 159.797 169.009 160.327C170.239 160.587 171.479 160.487 172.649 160.017C173.279 159.767 173.899 159.457 174.499 159.137C175.289 158.717 174.119 159.327 174.889 158.967C175.179 158.837 175.119 158.887 174.799 158.887C174.689 158.887 174.569 158.577 174.749 158.847C174.899 159.067 175.149 159.267 175.329 159.467C175.749 159.937 176.179 160.377 176.719 160.707C178.019 161.517 179.779 161.737 181.089 160.827C182.199 160.057 182.699 158.637 181.989 157.407C181.349 156.307 179.689 155.737 178.569 156.507C178.779 156.357 179.229 156.577 179.419 156.497C179.489 156.457 179.149 156.277 179.349 156.457C178.999 156.137 178.729 155.737 178.389 155.407C177.449 154.507 176.289 153.917 174.969 153.927C173.809 153.937 172.739 154.427 171.729 154.947C171.309 155.157 171.029 155.277 170.809 155.387C170.719 155.407 170.639 155.437 170.549 155.457C170.729 155.457 170.739 155.457 170.559 155.467C170.469 155.477 169.939 155.427 170.339 155.497C169.789 155.407 170.009 155.477 169.509 155.187C169.059 154.917 169.109 154.947 168.709 154.577C168.059 153.967 167.609 153.407 167.179 152.797C165.759 150.777 164.409 148.717 163.029 146.677C162.269 145.557 160.829 145.067 159.609 145.777C158.509 146.427 157.959 148.077 158.719 149.197Z" fill="white"/>
<path d="M204.287 175.726C206.037 174.416 207.787 173.106 209.527 171.796C209.817 171.636 210.057 171.426 210.227 171.156C210.447 170.916 210.597 170.636 210.677 170.306C210.837 169.706 210.767 168.906 210.427 168.376C210.087 167.846 209.567 167.376 208.937 167.226C208.327 167.086 207.537 167.086 207.007 167.476C205.257 168.786 203.507 170.096 201.767 171.406C201.477 171.566 201.237 171.776 201.067 172.046C200.847 172.286 200.697 172.566 200.617 172.896C200.457 173.496 200.527 174.296 200.867 174.826C201.207 175.356 201.727 175.826 202.357 175.976C202.977 176.126 203.767 176.126 204.287 175.726Z" fill="white"/>
<path d="M166.608 335.049C166.888 337.029 167.248 338.959 168.048 340.799C168.908 342.769 170.318 344.329 172.138 345.469C173.998 346.629 176.128 347.439 178.168 348.219C180.238 349.009 182.348 349.679 184.488 350.219C185.758 350.539 187.258 349.809 187.568 348.469C187.868 347.169 187.178 345.739 185.818 345.389C182.118 344.439 178.408 343.269 175.148 341.419C174.308 340.939 174.038 340.729 173.388 340.059C172.878 339.539 173.478 340.219 173.248 339.889C173.128 339.719 173.018 339.549 172.918 339.369C172.818 339.189 172.718 339.009 172.628 338.829C172.598 338.759 172.388 338.269 172.538 338.629C171.928 337.059 171.678 335.369 171.438 333.699C171.258 332.399 169.538 331.579 168.358 331.949C166.938 332.429 166.418 333.649 166.608 335.049Z" fill="white"/>
<path d="M197.38 353.156C197.49 353.236 197.6 353.316 197.71 353.396C197.54 353.266 197.37 353.136 197.2 353.006C197.74 353.426 198.22 353.906 198.64 354.446C198.51 354.276 198.38 354.106 198.25 353.936C198.66 354.476 199.01 355.066 199.28 355.696C199.2 355.496 199.11 355.296 199.03 355.096C199.15 355.386 199.26 355.686 199.35 355.996C199.53 356.606 199.95 357.166 200.5 357.486C201.04 357.796 201.83 357.936 202.43 357.736C203.03 357.536 203.62 357.166 203.92 356.586C204.23 355.996 204.36 355.316 204.17 354.656C203.86 353.576 203.38 352.506 202.72 351.596C202.34 351.066 201.93 350.546 201.47 350.086C201 349.616 200.46 349.206 199.92 348.826C199.41 348.476 198.57 348.416 197.99 348.576C197.41 348.736 196.78 349.186 196.5 349.726C196.19 350.306 196.04 351.006 196.25 351.656C196.33 351.856 196.42 352.056 196.5 352.256C196.71 352.636 197.01 352.936 197.38 353.156Z" fill="white"/>
<path d="M154.398 53.8155C158.888 59.2655 164.148 64.1856 170.778 66.8656C178.028 69.7956 186.068 68.7555 193.248 66.1955C197.608 64.6455 201.778 62.6156 205.908 60.5356C208.778 59.0856 206.258 54.7756 203.388 56.2156C195.488 60.1956 186.468 64.7656 177.328 63.4756C169.188 62.3256 162.938 56.3556 157.938 50.2756C157.078 49.2356 155.288 49.3856 154.398 50.2756C153.368 51.3156 153.538 52.7755 154.398 53.8155Z" fill="white"/>
<path d="M74.0901 378.895C74.0601 384.735 76.5301 390.135 79.5101 395.025C81.9801 399.065 84.7801 402.905 87.8301 406.535C93.7601 413.615 100.73 419.795 108.34 425.005C123.67 435.505 141.77 441.895 160.28 443.425C170.63 444.275 181.11 443.495 191.2 441.065C194.33 440.315 193 435.485 189.87 436.245C172.8 440.355 154.8 439.285 138.11 434.005C121.42 428.715 106.05 419.165 94.2001 406.245C90.9501 402.695 87.9801 398.915 85.3401 394.885C82.2001 390.095 79.0601 384.805 79.0901 378.895C79.1101 375.675 74.1101 375.675 74.0901 378.895Z" fill="white"/>
<path d="M102.189 389.877C100.879 379.267 104.239 368.387 111.559 360.547C113.749 358.197 110.229 354.657 108.019 357.007C99.8693 365.737 95.7192 377.987 97.1792 389.877C97.3492 391.217 98.2092 392.377 99.6792 392.377C100.919 392.377 102.359 391.227 102.189 389.877Z" fill="white"/>
</svg>
