<svg width="475" height="534" viewBox="0 0 475 534" fill="none" xmlns="http://www.w3.org/2000/svg">
<path d="M341.22 113.519C342.73 99.5786 346.55 85.8586 352.44 73.1386C353.01 71.9186 352.79 70.4485 351.54 69.7185C350.46 69.0885 348.69 69.3885 348.12 70.6185C341.83 84.1985 337.82 98.6486 336.21 113.529C336.06 114.869 337.46 116.029 338.71 116.029C340.19 116.019 341.07 114.869 341.22 113.519Z" fill="white"/>
<path d="M351.338 117.06C355.568 109.74 359.788 102.41 364.018 95.0895C365.628 92.2995 361.308 89.7795 359.698 92.5695C355.468 99.8895 351.248 107.22 347.018 114.54C345.418 117.32 349.738 119.84 351.338 117.06Z" fill="white"/>
<path d="M370.191 127.249C374.431 125.319 378.661 123.399 382.901 121.469C384.091 120.929 384.481 119.099 383.801 118.049C383.001 116.819 381.661 116.569 380.381 117.149C376.141 119.079 371.911 120.999 367.671 122.929C366.481 123.469 366.091 125.299 366.771 126.349C367.571 127.589 368.911 127.829 370.191 127.249Z" fill="white"/>
<path d="M45.872 2.60938C188.362 65.8594 335.502 130.199 471.832 205.819L471.932 207.169C462.972 315.249 454.012 423.319 445.052 531.399C410.112 525.099 375.172 518.789 340.222 512.489C253.682 496.879 124.762 484.419 36.832 484.829" fill="#FF9D91"/>
<path d="M44.6112 4.77034C100.871 29.7403 157.181 54.5904 213.171 80.1704C269.091 105.71 324.711 131.97 379.541 159.78C410.161 175.31 440.531 191.33 470.561 207.98C470.151 207.26 469.731 206.54 469.321 205.82C469.641 210.22 468.781 214.88 468.411 219.27C467.971 224.53 467.541 229.8 467.101 235.06C466.211 245.76 465.331 256.46 464.441 267.17C462.671 288.57 460.891 309.98 459.121 331.38C455.591 374.01 452.051 416.65 448.521 459.28C446.531 483.32 444.531 507.35 442.541 531.39C443.591 530.59 444.651 529.78 445.701 528.98C389.571 518.85 333.531 507.76 276.991 500.12C224.301 493 171.301 487.83 118.221 484.77C91.1212 483.21 63.9712 482.2 36.8212 482.32C33.6012 482.33 33.6012 487.33 36.8212 487.32C87.1813 487.11 137.591 490.4 187.721 495.02C238.061 499.66 288.371 505.73 338.141 514.64C373.561 520.98 408.961 527.42 444.381 533.81C446.071 534.11 447.401 533.12 447.541 531.4C452.021 477.36 456.501 423.32 460.981 369.29C465.431 315.61 470.321 261.94 474.331 208.23C474.461 206.53 474.541 204.83 473.081 203.67C470.621 201.71 467.121 200.38 464.361 198.86C458.831 195.82 453.281 192.8 447.721 189.8C436.281 183.63 424.801 177.54 413.271 171.53C390.711 159.76 368.001 148.29 345.171 137.05C298.721 114.18 251.801 92.2803 204.671 70.8403C158.061 49.6403 111.241 28.9003 64.4312 8.14034C58.6612 5.58034 52.8912 3.02029 47.1312 0.460286C44.2212 -0.839714 41.6712 3.47034 44.6112 4.77034Z" fill="white"/>
<path d="M419.83 385.822C360.4 405.512 296.88 445.142 238.8 468.512C251.32 442.632 265.35 417.482 280.78 393.222C204.22 371.002 131.44 336.722 54.25 316.812L55.48 314.592C67.38 234.682 81.83 155.152 98.81 76.1619L98.78 75.4219C123.57 87.3619 145.85 103.852 167.96 120.242C220.81 159.412 273.66 198.582 326.51 237.752L327.58 234.322C334.35 215.352 342.85 196.992 352.94 179.552C351.43 182.162 363.19 203.252 364.7 206.982C368.15 215.462 371.42 224.022 374.49 232.652C379.66 247.192 384.15 261.942 388.43 276.762C393.05 292.772 397.55 308.822 402.46 324.752C405.53 334.712 408.85 344.612 411.9 354.562C414.75 363.862 419.27 372.652 421.16 382.412L419.83 385.822Z" fill="#FF6152"/>
<path d="M65.1005 30.6202C62.7605 31.6102 60.3105 32.7202 58.6205 34.6902C57.0705 36.5102 56.2505 38.6902 56.0705 41.0702C55.7605 45.3602 58.0905 50.0203 62.1105 51.8103C66.4005 53.7203 71.4805 52.7402 74.9205 49.5802C78.3105 46.4702 79.1205 41.3902 77.4205 37.2002C76.4105 34.7202 74.7305 32.5603 72.4105 31.1703C70.0105 29.7403 66.2405 29.0703 64.2305 31.5403C63.3805 32.5803 63.2105 34.0502 64.2305 35.0802C65.1105 35.9602 66.9105 36.1302 67.7705 35.0802C67.8105 35.0302 67.8605 34.9703 67.9005 34.9203C68.1105 34.7203 68.0905 34.7303 67.8605 34.9303C67.9205 34.9003 67.9805 34.8702 68.0405 34.8302C67.7505 34.9502 67.7505 34.9702 68.0205 34.8802C67.9405 34.8902 67.8505 34.9003 67.7705 34.9003C67.9105 34.8903 68.0605 34.8802 68.2005 34.8802C68.6405 34.8602 68.3205 34.8702 68.1905 34.8502C68.4105 34.8802 68.6305 34.9302 68.8405 35.0002C68.9205 35.0202 69.5805 35.2803 69.0505 35.0503C69.4405 35.2203 69.8105 35.4303 70.1705 35.6603C70.2305 35.7003 70.8005 36.1102 70.3505 35.7602C70.5205 35.8902 70.6805 36.0303 70.8305 36.1703C71.0905 36.4103 71.3405 36.6603 71.5705 36.9303C71.6205 36.9903 72.0305 37.5502 71.7105 37.0902C71.8305 37.2602 71.9505 37.4402 72.0705 37.6202C72.3005 37.9802 72.4905 38.3602 72.6905 38.7402C73.0105 39.3502 72.5505 38.2803 72.7705 38.9303C72.8405 39.1303 72.9105 39.3303 72.9805 39.5303C73.0805 39.8703 73.1705 40.2103 73.2405 40.5603C73.2605 40.6603 73.3305 41.3502 73.2805 40.7302C73.3005 40.9402 73.3205 41.1502 73.3305 41.3602C73.3505 41.7802 73.3205 42.2002 73.2905 42.6202C73.3405 42.0002 73.2705 42.6803 73.2505 42.7903C73.2105 43.0003 73.1605 43.2003 73.1005 43.4003C73.0405 43.6003 72.9705 43.8002 72.9005 44.0002C72.8605 44.1202 72.6905 44.3902 72.9105 43.9902C72.7105 44.3502 72.5105 44.7102 72.3005 45.0702C71.9705 45.6302 72.6305 44.7302 72.2005 45.2202C72.0605 45.3702 71.9305 45.5303 71.7905 45.6803C71.6505 45.8303 71.5005 45.9702 71.3505 46.1102C71.2805 46.1702 70.7505 46.5902 71.2205 46.2402C70.9405 46.4402 70.6605 46.6303 70.3605 46.8103C70.1805 46.9103 70.0005 47.0102 69.8205 47.1102C69.7405 47.1502 69.1105 47.4202 69.6605 47.2002C69.2705 47.3502 68.8805 47.4802 68.4805 47.5902C68.2805 47.6402 68.0805 47.6902 67.8805 47.7302C67.7705 47.7502 67.1005 47.8202 67.7305 47.7602C67.3905 47.7902 67.0505 47.8203 66.7005 47.8103C66.5005 47.8103 66.2905 47.8003 66.0905 47.7903C65.9705 47.7803 65.3205 47.6603 65.9405 47.7803C65.5405 47.7003 65.1405 47.6202 64.7505 47.4902C64.6605 47.4602 64.0405 47.2002 64.5805 47.4502C64.3905 47.3602 64.2105 47.2703 64.0305 47.1703C63.7305 47.0103 63.4405 46.8202 63.1705 46.6102C63.6405 46.9702 63.1205 46.5402 63.0605 46.4802C62.9105 46.3402 62.7705 46.2003 62.6305 46.0503C62.5405 45.9503 62.4505 45.8502 62.3705 45.7502C62.7605 46.2102 62.2405 45.5402 62.1705 45.4402C61.9505 45.1002 61.7805 44.7302 61.5905 44.3702C61.8205 44.8102 61.6505 44.5203 61.6105 44.4003C61.5405 44.2103 61.4705 44.0202 61.4105 43.8202C61.2905 43.4302 61.2305 43.0302 61.1305 42.6302C61.2505 43.1202 61.1505 42.8302 61.1405 42.6902C61.1205 42.4202 61.1005 42.1502 61.0905 41.8802C61.0905 41.6802 61.0905 41.4703 61.1005 41.2703C61.1005 41.1903 61.2005 40.4403 61.1305 40.8003C61.0605 41.2003 61.1805 40.5503 61.1905 40.5403C61.2505 40.2803 61.3105 40.0202 61.3905 39.7602C61.4505 39.5702 61.5205 39.3802 61.5905 39.1902C61.3805 39.7502 61.6305 39.1503 61.6705 39.0603C61.7605 38.8803 61.8605 38.7103 61.9705 38.5403C62.0405 38.4303 62.1205 38.3202 62.2005 38.2102C62.0105 38.4502 62.0005 38.4502 62.1805 38.2402C63.6005 36.7202 65.5205 35.8502 67.6505 34.9502C68.8905 34.4202 69.1705 32.5903 68.5505 31.5303C67.7705 30.2303 66.3505 30.0902 65.1005 30.6202Z" fill="#1223AA"/>
<path d="M67.8482 33.2998C65.2482 37.5798 62.6382 41.8698 60.0382 46.1498C59.3582 47.2698 59.7582 48.9497 60.9382 49.5697C62.1582 50.2097 63.6282 49.8698 64.3582 48.6698C66.9582 44.3898 69.5682 40.0997 72.1682 35.8197C72.8482 34.6997 72.4482 33.0198 71.2682 32.3998C70.0482 31.7598 68.5682 32.0998 67.8482 33.2998Z" fill="#1223AA"/>
<path d="M59.6775 40.2308C61.7875 41.4608 63.8375 42.7908 65.8275 44.2108C66.2975 44.5508 66.7675 44.9009 67.2375 45.2509C67.3575 45.3409 67.4675 45.4309 67.5875 45.5109C67.8975 45.7409 67.2975 45.2809 67.5975 45.5209C67.8575 45.7209 68.1175 45.9209 68.3675 46.1309C69.3375 46.9009 70.2875 47.7009 71.2175 48.5209C72.1975 49.3809 73.7975 49.5609 74.7575 48.5209C75.6275 47.5709 75.8075 45.9108 74.7575 44.9808C70.8775 41.5608 66.6775 38.5109 62.2075 35.9009C61.0775 35.2409 59.4175 35.6009 58.7875 36.8009C58.1475 38.0109 58.4675 39.5308 59.6775 40.2308Z" fill="#1223AA"/>
<path d="M416.268 491.171C411.668 491.941 407.368 494.741 405.568 499.151C404.698 501.271 404.488 503.661 405.038 505.901C405.618 508.271 407.138 510.201 409.088 511.601C410.818 512.851 412.938 513.581 415.038 513.891C417.448 514.241 419.978 514.181 422.108 512.871C425.738 510.631 427.328 506.001 426.428 501.921C425.358 497.101 420.988 493.741 416.508 492.281C415.228 491.861 413.778 492.771 413.428 494.031C413.058 495.381 413.888 496.691 415.178 497.111C416.038 497.391 416.198 497.451 416.988 497.861C417.298 498.021 417.598 498.201 417.898 498.381C418.048 498.471 418.188 498.571 418.338 498.671C418.348 498.671 418.968 499.141 418.668 498.901C419.278 499.381 419.828 499.931 420.318 500.531C420.118 500.291 420.598 500.941 420.678 501.061C420.908 501.421 421.118 501.791 421.288 502.181C421.138 501.831 421.338 502.331 421.368 502.421C421.418 502.581 421.468 502.741 421.518 502.901C421.568 503.091 421.608 503.281 421.648 503.471C421.668 503.571 421.688 503.951 421.658 503.501C421.678 503.811 421.698 504.121 421.688 504.441C421.688 504.601 421.668 504.751 421.658 504.911C421.628 505.491 421.748 504.661 421.618 505.181C421.528 505.521 421.448 505.861 421.348 506.201C421.318 506.311 421.118 506.781 421.308 506.361C421.248 506.501 421.178 506.641 421.108 506.781C420.968 507.051 420.798 507.311 420.638 507.571C420.378 507.971 420.538 507.691 420.618 507.611C420.468 507.781 420.318 507.951 420.158 508.111C420.178 508.091 419.628 508.571 419.898 508.361C420.128 508.181 419.748 508.461 419.698 508.491C419.538 508.591 419.368 508.681 419.208 508.771C419.128 508.821 418.778 508.941 419.178 508.791C418.358 509.091 417.808 509.121 416.918 509.081C415.718 509.031 413.928 508.601 412.868 508.041C411.548 507.351 410.658 506.651 410.068 505.251C410.178 505.521 410.028 505.101 410.018 505.081C409.958 504.861 409.888 504.641 409.838 504.421C409.818 504.341 409.728 503.771 409.778 504.141C409.758 503.961 409.748 503.771 409.748 503.591C409.738 503.221 409.748 502.851 409.788 502.491C409.748 502.811 409.818 502.361 409.818 502.331C409.878 502.061 409.938 501.791 410.018 501.521C410.428 500.141 411.448 498.771 412.568 497.971C414.178 496.821 415.618 496.321 417.608 495.981C418.938 495.761 419.688 494.111 419.358 492.901C418.958 491.511 417.608 490.951 416.268 491.171Z" fill="#1223AA"/>
<path d="M414.458 509.769C417.098 507.599 419.727 505.429 422.367 503.249C422.837 502.869 423.097 502.059 423.097 501.479C423.097 500.869 422.827 500.128 422.367 499.708C421.887 499.268 421.267 498.949 420.597 498.979C419.897 499.009 419.368 499.268 418.828 499.708C416.188 501.878 413.558 504.049 410.918 506.229C410.448 506.609 410.188 507.419 410.188 507.999C410.188 508.609 410.458 509.349 410.918 509.769C411.398 510.209 412.017 510.529 412.688 510.499C413.387 510.469 413.928 510.209 414.458 509.769Z" fill="#1223AA"/>
<path d="M409.368 500.54C412.838 503.27 416.008 506.37 418.818 509.77C419.658 510.78 421.498 510.7 422.358 509.77C423.348 508.7 423.248 507.309 422.358 506.229C419.538 502.829 416.368 499.73 412.908 497C412.368 496.57 411.858 496.27 411.138 496.27C410.528 496.27 409.788 496.54 409.368 497C408.548 497.91 408.278 499.68 409.368 500.54Z" fill="#1223AA"/>
<path d="M443.968 204.81C441.588 204.88 439.438 206.04 437.958 207.89C436.338 209.92 435.718 212.329 435.438 214.869C435.188 217.139 435.018 219.649 435.628 221.879C436.338 224.489 438.288 226.269 440.748 227.209C444.778 228.759 449.738 227.559 452.718 224.459C455.718 221.329 456.638 216.439 454.988 212.439C452.958 207.499 447.798 204.93 442.618 205.65C441.278 205.84 440.548 207.549 440.868 208.729C441.268 210.169 442.598 210.659 443.948 210.479C443.538 210.539 443.968 210.489 444.038 210.489C444.248 210.489 444.458 210.469 444.668 210.479C444.838 210.479 444.998 210.499 445.168 210.499C445.588 210.519 444.838 210.429 445.248 210.499C445.618 210.559 445.988 210.649 446.348 210.749C446.508 210.799 446.668 210.85 446.828 210.91C447.288 211.06 446.688 210.8 447.158 211.05C447.458 211.21 447.748 211.36 448.038 211.54C448.178 211.63 448.318 211.719 448.458 211.819C448.168 211.619 448.508 211.85 448.548 211.89C448.798 212.11 449.049 212.339 449.279 212.579C449.229 212.529 449.768 213.15 449.568 212.9C449.428 212.72 449.778 213.21 449.818 213.26C450.278 213.97 450.338 214.089 450.558 214.869C450.618 215.079 450.658 215.289 450.708 215.489C450.718 215.549 450.798 215.979 450.738 215.589C450.798 216.009 450.808 216.449 450.798 216.879C450.798 217.049 450.778 217.22 450.768 217.4C450.768 217.46 450.698 217.889 450.758 217.499C450.708 217.839 450.629 218.18 450.529 218.51C450.509 218.58 450.199 219.459 450.339 219.119C450.169 219.509 449.958 219.889 449.728 220.249C449.418 220.729 449.139 221.03 448.529 221.55C448.189 221.84 448.989 221.279 448.339 221.689C448.199 221.779 448.058 221.869 447.918 221.959C447.778 222.049 447.628 222.129 447.478 222.209C447.408 222.249 446.768 222.529 447.158 222.369C446.538 222.619 445.878 222.8 445.218 222.89C445.628 222.83 445.198 222.879 445.128 222.879C444.918 222.879 444.708 222.9 444.498 222.9C444.328 222.9 444.168 222.9 443.998 222.89C443.848 222.88 443.428 222.83 443.788 222.89C443.418 222.84 443.048 222.739 442.688 222.629C442.528 222.579 442.358 222.529 442.198 222.459C441.778 222.289 442.588 222.72 441.908 222.31C441.748 222.21 441.588 222.13 441.428 222.03C441.408 222.02 441.069 221.75 441.279 221.92C440.889 221.59 440.898 221.599 440.638 221.129C440.628 221.109 440.458 220.699 440.558 220.959C440.498 220.789 440.449 220.6 440.399 220.42C440.279 219.93 440.288 220.03 440.268 219.68C440.218 218.81 440.238 217.939 440.268 217.069C440.348 215.239 440.418 213.36 441.308 211.78C441.388 211.63 441.488 211.489 441.568 211.339C441.898 210.789 441.358 211.5 441.798 211.03C441.918 210.91 442.029 210.78 442.149 210.66C442.209 210.6 442.738 210.17 442.418 210.4C442.548 210.3 442.699 210.209 442.839 210.129C442.889 210.099 443.438 209.84 443.208 209.93C442.908 210.05 443.668 209.809 443.618 209.829C444.108 209.689 443.378 209.82 443.938 209.8C445.288 209.76 446.438 208.68 446.438 207.3C446.468 205.99 445.328 204.77 443.968 204.81Z" fill="#1223AA"/>
<path d="M444.768 210.271C443.158 213.451 441.548 216.631 439.948 219.801C439.358 220.971 439.597 222.561 440.847 223.221C441.987 223.821 443.638 223.571 444.268 222.321C445.878 219.141 447.488 215.961 449.088 212.791C449.678 211.621 449.438 210.031 448.188 209.371C447.048 208.781 445.398 209.031 444.768 210.271Z" fill="#1223AA"/>
<path d="M438.85 214.522C441.9 217.472 444.94 220.432 447.99 223.382C448.93 224.292 450.6 224.392 451.53 223.382C452.43 222.402 452.53 220.822 451.53 219.842C448.48 216.892 445.44 213.932 442.39 210.982C441.45 210.072 439.78 209.972 438.85 210.982C437.95 211.962 437.85 213.542 438.85 214.522Z" fill="#1223AA"/>
<path d="M67.6281 444.781C63.2881 446.491 59.2081 449.141 57.6281 453.761C56.8381 456.061 56.9181 458.621 57.9081 460.841C58.8581 462.951 60.6881 464.501 62.6181 465.681C64.7281 466.971 66.9781 467.931 69.4681 468.081C71.7781 468.221 74.2381 467.591 76.1881 466.351C79.9581 463.951 82.7681 458.771 81.2381 454.291C79.5881 449.461 74.5281 445.891 69.7381 444.711C68.4281 444.391 67.0281 445.131 66.6581 446.461C66.3081 447.741 67.0881 449.211 68.4081 449.541C71.2981 450.251 73.9981 451.951 75.6581 454.351C76.5581 455.651 76.8181 456.681 76.4381 458.111C76.0981 459.431 75.4281 460.531 74.3781 461.491C72.2781 463.401 69.1881 463.531 66.5081 462.131C65.1781 461.431 63.7181 460.581 62.9381 459.581C62.0981 458.501 61.8981 457.181 62.1781 456.071C63.0181 452.791 65.8581 450.831 68.9581 449.611C70.2181 449.121 71.0881 447.941 70.7081 446.531C70.3781 445.331 68.8881 444.281 67.6281 444.781Z" fill="#1223AA"/>
<path d="M67.7793 462.661C70.3493 459.081 72.9193 455.491 75.4793 451.911C76.2393 450.841 75.6993 449.08 74.5793 448.49C73.2893 447.81 71.9793 448.251 71.1593 449.391C68.5893 452.971 66.0193 456.561 63.4593 460.141C62.6993 461.211 63.2393 462.971 64.3593 463.561C65.6493 464.231 66.9693 463.791 67.7793 462.661Z" fill="#1223AA"/>
<path d="M62.7803 455.23C66.3503 459.08 70.2903 462.56 74.4903 465.71C75.5403 466.5 77.3303 465.91 77.9103 464.81C78.6003 463.5 78.1303 462.23 77.0103 461.39C76.7703 461.21 76.5203 461.02 76.2803 460.84C76.0403 460.66 76.5903 461.09 76.2203 460.79C76.1103 460.71 76.0103 460.62 75.9003 460.54C75.4203 460.16 74.9403 459.78 74.4703 459.39C73.5003 458.59 72.5503 457.77 71.6103 456.93C69.7703 455.27 68.0003 453.52 66.3103 451.7C65.4203 450.74 63.6603 450.73 62.7703 451.7C61.8403 452.72 61.8303 454.2 62.7803 455.23Z" fill="#1223AA"/>
<path d="M440.83 378.818C381.4 398.508 317.88 438.138 259.8 461.508C272.32 435.628 286.35 410.478 301.78 386.218C225.22 363.998 152.44 329.718 75.25 309.808L76.48 307.588C88.38 227.678 102.83 148.148 119.81 69.158L119.78 68.418C144.57 80.358 166.85 96.8479 188.96 113.238C241.81 152.408 294.66 191.578 347.51 230.748L348.58 227.318C355.35 208.348 363.85 189.988 373.94 172.548C372.43 175.158 384.19 196.248 385.7 199.978C389.15 208.458 392.42 217.018 395.49 225.648C400.66 240.188 405.15 254.938 409.43 269.758C414.05 285.768 418.55 301.818 423.46 317.748C426.53 327.708 429.85 337.608 432.9 347.558C435.75 356.858 440.27 365.648 442.16 375.408L440.83 378.818Z" fill="white"/>
<path d="M440.161 376.41C415.841 384.49 392.431 395.14 369.401 406.32C345.581 417.88 322.111 430.15 298.241 441.62C285.371 447.8 272.381 453.75 259.141 459.09C260.081 460.31 261.021 461.54 261.961 462.76C274.501 436.88 288.511 411.74 303.941 387.47C304.821 386.08 303.941 384.23 302.451 383.8C272.571 375.11 243.271 364.62 214.091 353.86C184.911 343.1 155.811 332.07 126.271 322.32C109.641 316.84 92.8708 311.77 75.9208 307.39C76.4208 308.61 76.9208 309.84 77.4108 311.06C77.7808 310.4 78.1708 309.75 78.5108 309.07C79.2208 307.67 79.2308 305.94 79.4608 304.4C80.0708 300.3 80.7008 296.21 81.3208 292.11C82.5808 283.92 83.8608 275.73 85.1708 267.55C87.7708 251.31 90.4708 235.09 93.2808 218.89C98.9208 186.36 104.981 153.9 111.471 121.53C113.301 112.39 115.171 103.26 117.071 94.1296C117.991 89.6896 118.921 85.2596 119.861 80.8296C120.341 78.5496 120.831 76.2696 121.321 73.9896C121.711 72.1796 122.351 70.2696 122.281 68.4096C121.031 69.1296 119.771 69.8496 118.521 70.5696C150.141 85.8596 177.871 108.1 205.951 128.91C235.841 151.06 265.721 173.21 295.611 195.36C312.491 207.87 329.381 220.39 346.261 232.9C347.621 233.91 349.501 232.8 349.931 231.41C356.201 211.34 365.611 191.99 376.101 173.81C374.661 172.97 373.221 172.13 371.781 171.29C370.321 174.28 372.581 178.35 373.751 181.08C375.651 185.52 377.851 189.83 380.041 194.13C380.911 195.83 381.781 197.53 382.621 199.25C382.891 199.8 383.151 200.35 383.401 200.9C383.591 201.32 382.981 199.85 383.441 201C383.631 201.47 383.821 201.94 384.011 202.42C384.491 203.6 384.961 204.78 385.431 205.96C388.671 214.13 391.751 222.37 394.621 230.68C406.131 264 414.531 298.31 425.321 331.87C428.211 340.85 430.871 349.9 434.251 358.72C435.841 362.86 437.431 367 438.621 371.27C438.931 372.39 439.111 373.59 439.481 374.69C439.821 375.72 439.601 375.39 439.751 374.8C439.701 375 439.581 375.24 439.511 375.42C439.121 376.31 438.801 377.23 438.451 378.14C437.281 381.14 442.111 382.44 443.271 379.47C444.011 377.58 444.861 376.11 444.461 374.06C443.691 370.16 442.421 366.35 441.061 362.63C439.671 358.81 438.131 355.03 436.771 351.2C435.371 347.27 434.221 343.25 432.961 339.27C427.701 322.71 422.531 306.14 417.721 289.44C412.851 272.54 408.121 255.59 402.661 238.87C399.961 230.6 397.071 222.39 394.001 214.25C391.761 208.31 389.671 202.2 386.851 196.5C384.661 192.07 382.351 187.7 380.221 183.23C379.171 181.03 378.131 178.81 377.281 176.53C376.971 175.69 376.691 174.84 376.461 173.98C376.421 173.84 376.391 173.69 376.361 173.54C376.221 172.88 376.531 173.99 376.341 173.45C376.201 173.05 376.311 173.45 376.121 173.82C377.521 170.96 373.431 168.48 371.801 171.3C361.101 189.84 351.511 209.62 345.121 230.09C346.341 229.59 347.571 229.09 348.791 228.6C318.801 206.37 288.811 184.15 258.821 161.92C229.461 140.16 200.361 118.01 170.651 96.7396C154.861 85.4396 138.571 74.7396 121.061 66.2696C119.441 65.4896 117.221 66.3997 117.301 68.4297C117.361 69.9497 116.761 71.5697 116.441 73.0597C116.011 75.0897 115.581 77.1096 115.151 79.1396C114.321 83.0696 113.491 86.9897 112.671 90.9197C111.001 98.9097 109.361 106.9 107.751 114.89C104.521 130.88 101.401 146.89 98.3708 162.93C92.3308 194.99 86.7008 227.13 81.4808 259.34C80.0308 268.29 78.6208 277.24 77.2308 286.2C76.5208 290.81 75.8108 295.41 75.1208 300.02C74.9708 301.04 74.8108 302.07 74.6608 303.09C74.5108 304.09 74.5508 305.51 74.3008 306.4C74.0908 307.13 73.4808 307.89 73.1008 308.56C72.3308 309.95 73.0008 311.82 74.5908 312.23C104.691 320.01 134.171 329.96 163.401 340.52C192.671 351.09 221.711 362.27 251.101 372.52C267.651 378.29 284.301 383.75 301.131 388.64C300.631 387.42 300.131 386.19 299.641 384.97C284.221 409.24 270.201 434.38 257.661 460.26C256.821 461.98 258.271 464.83 260.481 463.93C284.301 454.32 307.341 442.91 330.281 431.4C353.921 419.54 377.491 407.48 401.701 396.8C414.741 391.05 427.981 385.74 441.511 381.25C444.531 380.23 443.231 375.4 440.161 376.41Z" fill="#FF9D91"/>
<path d="M45.8178 2.82031C43.7878 163.87 42.2178 323.76 36.8678 484.73C19.8178 481.82 9.14783 489.73 4.81783 474.82C0.487834 459.91 4.46783 418.98 4.70783 403.46C6.56783 281.34 8.42784 159.22 10.2978 37.1104C10.3578 33.4604 9.65783 26.7703 11.8178 23.8203C13.4778 21.5603 17.3078 19.0703 19.8178 17.8203C26.8878 14.3103 38.7578 6.34031 45.8178 2.82031Z" fill="#FF9D91"/>
<path d="M43.3193 2.82133C42.5293 65.5713 41.8093 128.321 40.8993 191.061C39.9893 253.731 38.9093 316.391 37.3793 379.041C36.5193 414.271 35.5293 449.501 34.3593 484.731C35.4093 483.931 36.4693 483.121 37.5193 482.321C31.0293 481.261 24.6993 481.751 18.1693 481.811C13.2993 481.851 9.67928 480.801 7.79928 475.931C5.97928 471.201 5.71928 465.851 5.47928 460.851C5.17928 454.241 5.27928 447.621 5.47928 441.011C5.85928 428.931 6.85929 416.871 7.15929 404.791C7.65929 384.971 7.76928 365.121 8.06928 345.301C8.68928 304.431 9.31928 263.571 9.93928 222.701C10.5593 181.831 11.1893 140.971 11.8093 100.101C12.1193 79.5914 12.4393 59.0714 12.7493 38.5614C12.7993 35.0514 12.3693 31.3914 12.9493 27.9114C13.5293 24.4214 16.5493 22.5514 19.4193 20.8714C25.6493 17.2414 31.9393 13.7314 38.1293 10.0214C41.0593 8.26141 43.9993 6.52137 47.0593 4.98137C49.9293 3.53137 47.3993 -0.778577 44.5393 0.661423C37.8193 4.05142 31.5193 8.25133 25.0293 12.0713C19.5993 15.2613 10.9793 18.1214 8.64928 24.5514C7.47928 27.7914 7.67928 31.4714 7.74928 34.8514C7.83928 39.6014 7.65928 44.3714 7.58928 49.1214C7.42928 59.5414 7.26928 69.9514 7.10928 80.3714C6.46928 122.521 5.81928 164.671 5.17928 206.821C4.53928 248.811 3.89928 290.801 3.25928 332.781C2.93928 353.771 2.61928 374.771 2.29928 395.761C2.09928 408.791 1.24928 421.781 0.699278 434.801C0.169278 447.301 -0.690719 460.471 1.74928 472.831C2.72928 477.791 4.84928 483.181 9.73928 485.421C14.6393 487.671 20.4993 486.661 25.6993 486.531C29.2093 486.451 32.7193 486.571 36.1793 487.131C37.7993 487.391 39.2893 486.471 39.3393 484.721C41.4193 422.001 42.9393 359.271 44.1293 296.531C45.3193 233.871 46.1893 171.201 46.9793 108.531C47.4293 73.2914 47.8493 38.0514 48.2893 2.80144C48.3693 -0.388563 43.3693 -0.398665 43.3193 2.82133Z" fill="white"/>
<path d="M8.18906 449.279C12.6991 454.189 17.2191 459.109 21.7291 464.019C22.6191 464.989 24.3791 464.989 25.2691 464.019C26.2191 462.989 26.2191 461.509 25.2691 460.479C20.7591 455.569 16.2391 450.649 11.7291 445.739C10.8391 444.769 9.07906 444.769 8.18906 445.739C7.23906 446.779 7.23906 448.249 8.18906 449.279Z" fill="white"/>
<path d="M12.7908 425.619C16.6908 429.719 20.5908 433.829 24.4908 437.929C25.3908 438.879 27.1308 438.909 28.0308 437.929C28.9708 436.909 28.9908 435.409 28.0308 434.389C24.1308 430.289 20.2308 426.179 16.3308 422.079C15.4308 421.129 13.6908 421.099 12.7908 422.079C11.8608 423.099 11.8308 424.609 12.7908 425.619Z" fill="white"/>
<path d="M13.4392 396.701C18.1192 401.451 22.7892 406.191 27.4692 410.941C28.3892 411.871 30.0992 411.931 31.0092 410.941C31.9292 409.941 31.9892 408.402 31.0092 407.402C26.3292 402.652 21.6592 397.912 16.9792 393.162C16.0592 392.232 14.3492 392.172 13.4392 393.162C12.5192 394.162 12.4592 395.701 13.4392 396.701Z" fill="white"/>
<path d="M13.998 365.038C19.668 369.968 24.918 375.368 29.698 381.168C30.558 382.208 32.3481 382.058 33.2381 381.168C34.2681 380.138 34.0981 378.678 33.2381 377.628C28.4581 371.828 23.208 366.428 17.538 361.498C16.518 360.608 15.008 360.498 13.998 361.498C13.098 362.408 12.978 364.148 13.998 365.038Z" fill="white"/>
<path d="M14.9985 337.69C19.4085 343.63 23.8185 349.57 28.2285 355.51C29.0285 356.59 30.3885 357.14 31.6485 356.41C32.7185 355.79 33.3585 354.08 32.5485 352.99C28.1385 347.05 23.7285 341.11 19.3185 335.17C18.5185 334.09 17.1585 333.54 15.8985 334.27C14.8285 334.89 14.1885 336.6 14.9985 337.69Z" fill="white"/>
<path d="M15.019 310.82C20.519 318.5 26.309 325.98 32.359 333.24C33.229 334.28 34.999 334.13 35.899 333.24C36.929 332.21 36.769 330.74 35.899 329.7C30.119 322.77 24.599 315.631 19.339 308.291C18.549 307.191 17.159 306.671 15.919 307.391C14.839 308.031 14.229 309.71 15.019 310.82Z" fill="white"/>
<path d="M14.3385 285.589C20.0685 292.319 25.7985 299.049 31.5385 305.779C32.4185 306.809 34.1685 306.679 35.0785 305.779C36.0985 304.759 35.9585 303.279 35.0785 302.239C29.3485 295.509 23.6185 288.779 17.8785 282.049C16.9985 281.019 15.2485 281.149 14.3385 282.049C13.3185 283.069 13.4585 284.559 14.3385 285.589Z" fill="white"/>
<path d="M15.3504 259.509C19.8904 265.539 25.5604 270.589 32.1704 274.269C33.3104 274.909 34.9503 274.579 35.5903 273.369C36.2103 272.189 35.9104 270.629 34.6904 269.949C31.6404 268.259 28.9604 266.389 26.5004 264.249C25.2304 263.139 24.0204 261.979 22.8604 260.749C22.2504 260.099 21.6603 259.439 21.0903 258.769C20.8303 258.469 20.5804 258.159 20.3304 257.849C19.9304 257.359 19.9904 257.439 19.6604 256.989C18.8804 255.949 17.4704 255.299 16.2404 256.089C15.2104 256.749 14.5004 258.389 15.3504 259.509Z" fill="white"/>
<path d="M18.2281 222.279C22.9181 227.249 27.5981 232.219 32.2881 237.189C33.1881 238.139 34.9281 238.159 35.8281 237.189C36.7681 236.169 36.7881 234.669 35.8281 233.649C31.1381 228.679 26.4581 223.709 21.7681 218.739C20.8681 217.789 19.1281 217.759 18.2281 218.739C17.2881 219.769 17.2681 221.269 18.2281 222.279Z" fill="white"/>
<path d="M16.761 182.042C21.961 188.352 27.341 194.532 32.881 200.552C33.791 201.542 35.491 201.482 36.421 200.552C37.411 199.562 37.341 198.012 36.421 197.012C30.881 190.992 25.511 184.822 20.301 178.502C19.441 177.462 17.651 177.612 16.761 178.502C15.731 179.542 15.901 181.002 16.761 182.042Z" fill="white"/>
<path d="M18.6584 143.449C24.2684 148.169 29.8784 152.889 35.4784 157.619C36.5084 158.489 37.9984 158.629 39.0184 157.619C39.9084 156.729 40.0584 154.959 39.0184 154.079C33.4084 149.359 27.7984 144.639 22.1984 139.909C21.1684 139.039 19.6784 138.899 18.6584 139.909C17.7684 140.809 17.6184 142.579 18.6584 143.449Z" fill="white"/>
<path d="M18.8907 103.3C23.3607 109.46 28.5207 115.07 34.3807 119.93C35.4207 120.79 36.9007 120.95 37.9207 119.93C38.8107 119.04 38.9607 117.259 37.9207 116.389C35.1207 114.059 32.4507 111.569 29.9607 108.909C27.4907 106.279 25.2407 103.559 23.2107 100.769C22.4207 99.6795 21.0407 99.1395 19.7907 99.8695C18.7107 100.509 18.0907 102.2 18.8907 103.3Z" fill="white"/>
<path d="M16.0796 68.9598C22.1396 74.4398 27.8596 80.2898 33.2096 86.4798C34.0896 87.4998 35.8396 87.3898 36.7496 86.4798C37.7596 85.4698 37.6396 83.9697 36.7496 82.9397C31.3996 76.7597 25.6796 70.9098 19.6196 65.4198C18.6196 64.5098 17.0696 64.4298 16.0796 65.4198C15.1596 66.3398 15.0696 68.0498 16.0796 68.9598Z" fill="white"/>
<path d="M18.1982 37.8503C24.6882 43.0203 30.5382 49.0303 35.4182 55.7503C36.2082 56.8403 37.5882 57.3803 38.8382 56.6503C39.9182 56.0203 40.5282 54.3303 39.7382 53.2303C34.5982 46.1503 28.5882 39.7702 21.7382 34.3202C20.6782 33.4802 19.2382 33.2902 18.1982 34.3202C17.3282 35.1902 17.1382 37.0103 18.1982 37.8503Z" fill="white"/>
</svg>
