<svg width="109" height="108" viewBox="0 0 109 108" fill="none" xmlns="http://www.w3.org/2000/svg">
<path d="M49.7677 103.298C39.2677 88.1879 27.8776 73.6879 15.6476 59.9379C12.1976 56.0679 8.68765 52.2479 5.10765 48.4979C2.88765 46.1679 -0.652339 49.6979 1.56766 52.0379C14.0177 65.1079 25.7077 78.9079 36.4977 93.3879C39.5477 97.4879 42.5277 101.628 45.4477 105.828C46.2177 106.938 47.6376 107.448 48.8676 106.728C49.9676 106.078 50.5377 104.418 49.7677 103.298Z" fill="white"/>
<path d="M76.7568 87.1176C71.4468 73.2276 67.2668 58.9276 64.2768 44.3576C64.0068 43.0376 62.4368 42.2676 61.1968 42.6076C59.8268 42.9876 59.1768 44.3576 59.4468 45.6876C62.4468 60.2476 66.6168 74.5576 71.9268 88.4476C72.4068 89.7076 73.6068 90.5776 75.0068 90.1976C76.2168 89.8576 77.2368 88.3876 76.7568 87.1176Z" fill="white"/>
<path d="M103.647 72.9486C103.867 54.7686 104.877 36.5986 106.687 18.5086C107.207 13.3486 107.787 8.19859 108.427 3.05859C108.597 1.71859 107.157 0.558594 105.927 0.558594C104.437 0.558594 103.597 1.70859 103.427 3.05859C101.167 21.0986 99.6868 39.2386 99.0168 57.4086C98.8268 62.5886 98.7069 67.7686 98.6369 72.9486C98.6069 76.1686 103.607 76.1686 103.647 72.9486Z" fill="white"/>
</svg>
