<svg width="42" height="66" viewBox="0 0 42 66" fill="none" xmlns="http://www.w3.org/2000/svg">
<path d="M5.54853 51.0083C15.2885 34.7383 25.9086 19.0083 37.3386 3.87833C38.1486 2.79833 37.5085 1.07832 36.4385 0.458324C35.1585 -0.291676 33.8386 0.278326 33.0186 1.35833C21.5886 16.4883 10.9785 32.2283 1.22852 48.4883C-0.421481 51.2483 3.89853 53.7683 5.54853 51.0083Z" fill="white"/>
<path d="M13.7275 64.7696C21.8375 57.9996 30.7975 52.2996 40.3275 47.7396C41.5475 47.1596 41.8675 45.4196 41.2275 44.3196C40.4975 43.0696 39.0275 42.8396 37.8075 43.4196C27.8875 48.1696 18.6375 54.1797 10.1975 61.2297C9.1575 62.0997 9.3075 63.8696 10.1975 64.7696C11.2175 65.7996 12.6875 65.6396 13.7275 64.7696Z" fill="#1223AA"/>
</svg>
