<svg width="72" height="84" viewBox="0 0 72 84" fill="none" xmlns="http://www.w3.org/2000/svg">
<path d="M55.369 52.6768C54.289 44.8868 51.849 37.0868 46.909 30.9768C41.969 24.8668 35.799 20.0068 27.969 20.7368L22.529 22.9068C19.499 28.7868 21.559 36.0768 25.019 41.7168C27.699 46.0968 31.219 50.0068 35.569 52.7368C39.919 55.4568 45.129 56.9268 50.229 56.4068L55.369 52.6768Z" fill="#FF6152"/>
<path d="M57.1707 52.1764C55.8807 43.0664 52.7007 34.4464 46.4507 27.5664C43.6907 24.5364 40.4506 21.8564 36.6506 20.2564C33.8206 19.0664 29.7507 18.0164 26.7807 19.1964C25.6707 19.6364 24.5507 20.0864 23.4407 20.5264C22.2807 20.9864 21.2206 21.2564 20.6506 22.4964C18.7706 26.5964 18.8806 31.2064 20.1506 35.4764C22.6406 43.8064 29.0506 51.7164 36.8706 55.5964C39.1806 56.7464 41.6606 57.6064 44.2106 58.0264C45.5006 58.2364 46.8007 58.3764 48.1007 58.3764C49.0707 58.3764 50.3607 58.4764 51.2207 57.9864C53.0107 56.9564 54.6507 55.4964 56.3207 54.2864C57.1507 53.6864 57.5306 52.6664 56.9906 51.7164C56.5306 50.9064 55.2407 50.4464 54.4207 51.0464C52.7107 52.2864 50.9907 53.5264 49.2807 54.7764C49.6007 54.6864 49.9107 54.6064 50.2307 54.5164C42.0207 55.2664 34.6306 51.0064 29.5206 44.8364C25.0106 39.3864 20.6806 30.8464 24.1506 23.8464C23.7806 24.1364 23.4007 24.4164 23.0307 24.7064C24.6407 24.0664 26.2506 23.4264 27.8606 22.7764C28.7806 22.4064 29.6406 22.4864 30.8306 22.5764C32.4806 22.7064 34.1506 23.1764 35.6506 23.8664C42.2206 26.8864 47.3107 33.4464 50.1007 39.9464C51.9007 44.1364 52.9307 48.6464 53.5707 53.1564C53.7107 54.1564 54.9907 54.7164 55.8807 54.4664C56.9407 54.1864 57.3207 53.1864 57.1707 52.1764Z" fill="white"/>
<path d="M21.2277 24.1094C14.5877 22.4294 8.05766 19.8794 1.84766 16.5594C3.62766 15.7394 5.39764 14.9094 7.17764 14.0894C7.44764 13.9694 7.72766 13.8294 7.84766 13.5594C7.97766 13.2894 7.91766 12.9494 7.87766 12.6394C7.61766 10.7594 7.83766 8.86938 8.50766 7.20938C9.52766 8.08938 10.5477 8.9694 11.5677 9.8494C11.8977 10.1394 12.3177 10.4494 12.6977 10.3294C13.0477 10.2194 13.1776 9.79938 13.2676 9.42938C13.6976 7.62938 14.1377 5.8394 14.5677 4.0394C15.9677 5.3794 17.3677 6.7294 18.7577 8.0694C19.0177 8.3194 19.3476 8.59938 19.6776 8.51938C19.9376 8.45938 20.0777 8.18939 20.1977 7.93939C21.2777 5.71939 22.8476 3.80938 24.7676 2.35938C26.1876 8.49937 26.7477 14.7494 26.4377 20.8494" fill="#FF6152"/>
<path d="M21.7288 22.2977C15.1388 20.6077 8.80873 18.1277 2.79873 14.9377C2.79873 16.0177 2.79873 17.0977 2.79873 18.1777C4.05873 17.5977 5.31875 17.0077 6.56875 16.4277C7.60875 15.9477 8.86874 15.5577 9.46874 14.4977C10.0287 13.5077 9.66874 12.3877 9.64874 11.3277C9.61874 10.0577 9.86875 8.87774 10.3187 7.69774C9.27875 7.97774 8.22874 8.24773 7.18874 8.52773C8.20874 9.40773 9.20874 10.3077 10.2487 11.1677C11.2587 11.9977 12.5087 12.6077 13.7687 11.8677C14.8787 11.2177 15.0887 9.93772 15.3587 8.79772C15.6987 7.37772 16.0488 5.95773 16.3888 4.52773C15.3488 4.80773 14.2988 5.07772 13.2588 5.35772C14.4288 6.47772 15.5888 7.59773 16.7588 8.71773C17.8488 9.75773 19.1688 10.9877 20.7588 10.0777C21.8488 9.44772 22.2787 7.94774 22.9587 6.94774C23.7087 5.83774 24.6687 4.80772 25.7387 3.98772C24.8187 3.61772 23.8987 3.23773 22.9887 2.86773C24.3287 8.77773 24.8787 14.8077 24.5887 20.8677C24.4687 23.2777 28.2187 23.2777 28.3387 20.8677C28.6487 14.4877 28.0187 8.09774 26.6087 1.87774C26.3687 0.807736 24.8087 0.0277413 23.8587 0.757741C22.7087 1.63774 21.6587 2.57772 20.7487 3.70772C20.3087 4.25772 19.8888 4.81774 19.5088 5.40774C19.3288 5.69774 19.1487 5.98774 18.9887 6.28774C18.8987 6.44774 18.3387 7.14775 18.7687 6.91775C19.0887 6.82775 19.3987 6.74774 19.7187 6.65774C19.6087 6.64774 19.5087 6.63774 19.3987 6.62774C19.7187 6.71774 20.0287 6.79775 20.3487 6.88775C19.5587 6.43775 18.8687 5.53774 18.2087 4.90774C17.4487 4.17774 16.6987 3.44774 15.9387 2.72774C14.9487 1.77774 13.1487 2.14773 12.8087 3.55773C12.5587 4.60773 12.2987 5.65774 12.0487 6.69774C11.9387 7.14774 11.8287 7.59772 11.7187 8.04772C11.6487 8.34772 11.5787 8.64774 11.4987 8.94774C11.3387 9.41774 11.4287 9.33774 11.7887 8.72774C12.1087 8.63774 12.4187 8.55773 12.7387 8.46773C13.1687 8.44773 12.6588 8.29774 12.4188 8.09774C12.1388 7.85774 11.8487 7.60773 11.5687 7.36773C10.9987 6.87773 10.4387 6.38773 9.86874 5.89773C8.73874 4.92773 7.24873 5.36774 6.73873 6.72774C6.37873 7.67774 6.15874 8.63773 6.02874 9.64773C5.93874 10.3977 5.62874 12.1377 6.05874 12.8177C6.06874 13.2177 6.22874 13.0677 6.52874 12.3577C6.29874 12.4777 6.05875 12.5877 5.81875 12.6977C5.29875 12.9377 4.77873 13.1777 4.26873 13.4177C3.15873 13.9277 2.04874 14.4477 0.938744 14.9577C-0.341256 15.5477 -0.231256 17.5777 0.938744 18.1977C7.21874 21.5377 13.8687 24.1677 20.7687 25.9377C23.0687 26.5077 24.0688 22.8977 21.7288 22.2977Z" fill="white"/>
<path d="M47.9297 56.82C48.6197 64.62 51.8797 73.74 55.2697 81.16C55.5397 77.53 56.0597 73.97 56.8197 70.51C58.7797 72.78 60.7397 75.0599 62.6897 77.3299C62.1097 74.0899 60.9197 70.8599 59.2197 67.9299C61.8997 67.4099 64.5597 66.81 67.1997 66.16C65.5897 65.31 63.9797 64.4599 62.3597 63.6099C64.4497 60.5099 66.9197 57.75 69.6897 55.39C68.8397 54.6 65.9897 54.5299 64.9397 54.5199C60.3397 54.4799 57.5197 53.5 53.1697 53.95" fill="#FF6152"/>
<path d="M46.0492 56.8196C46.8792 65.6297 50.0092 74.1096 53.6492 82.1096C54.4892 83.9596 57.0092 82.8196 57.1392 81.1596C57.4092 77.7396 57.8992 74.3597 58.6192 71.0097C57.5792 71.2897 56.5292 71.5596 55.4892 71.8396C57.4492 74.1096 59.4092 76.3896 61.3592 78.6596C62.6892 80.1996 64.8092 78.5096 64.4892 76.8396C63.8392 73.3696 62.5792 70.0496 60.8392 66.9896C60.4692 67.9096 60.0892 68.8296 59.7192 69.7396C62.3892 69.2096 65.0492 68.6196 67.6992 67.9696C69.2292 67.5896 69.5692 65.2897 68.1492 64.5397C66.5392 63.6897 64.9292 62.8396 63.3092 61.9896C63.5292 62.8496 63.7592 63.6996 63.9792 64.5596C65.9792 61.6396 68.3392 59.0196 71.0192 56.7196C71.7292 56.1096 71.7792 54.6596 71.0192 54.0696C68.8292 52.3496 65.7492 52.7396 63.1392 52.5796C59.7992 52.3796 56.5392 51.7596 53.1892 52.0696C50.8092 52.2896 50.7792 56.0396 53.1892 55.8196C56.1192 55.5496 58.9692 55.9697 61.8892 56.2297C63.2192 56.3497 64.5492 56.3596 65.8792 56.4096C66.4692 56.4396 68.0392 56.4396 68.3792 56.7096C68.3792 55.8296 68.3792 54.9396 68.3792 54.0596C65.4592 56.5796 62.9292 59.4796 60.7492 62.6596C60.1992 63.4696 60.5692 64.7797 61.4192 65.2297C63.0292 66.0797 64.6392 66.9296 66.2592 67.7796C66.4092 66.6396 66.5592 65.4996 66.7092 64.3496C64.0692 65.0096 61.4092 65.5996 58.7292 66.1196C57.5192 66.3596 57.0492 67.8896 57.6092 68.8696C59.1992 71.6696 60.2892 74.6596 60.8892 77.8296C61.9292 77.2196 62.9792 76.6097 64.0192 76.0097C62.0592 73.7397 60.0992 71.4596 58.1492 69.1896C57.2492 68.1396 55.2992 68.6896 55.0192 70.0196C54.2292 73.6896 53.6992 77.4196 53.4092 81.1596C54.5692 80.8396 55.7392 80.5296 56.8992 80.2096C53.5492 72.8596 50.5792 64.9096 49.8092 56.8096C49.5792 54.4296 45.8192 54.4096 46.0492 56.8196Z" fill="white"/>
</svg>
