<svg width="742" height="791" viewBox="0 0 742 791" fill="none" xmlns="http://www.w3.org/2000/svg">
<path d="M591.449 615.7C578.029 619.42 565.619 626.49 555.479 636.03C545.589 645.33 536.589 657.69 534.329 671.36C533.209 678.17 533.769 685.41 537.569 691.35C541.279 697.15 547.469 700.9 554.159 702.25C569.229 705.28 583.389 696.81 594.229 687.16C604.799 677.74 613.369 665.47 616.729 651.58C618.399 644.7 618.919 636.74 614.059 630.99C609.619 625.74 601.939 624.75 595.489 625.29C580.959 626.51 567.399 634.22 559.039 646.18C554.819 652.21 551.979 659.31 550.839 666.57C550.259 670.23 550.019 673.95 550.299 677.65C550.449 679.6 550.759 681.54 551.979 683.13C553.209 684.72 555.089 685.5 557.019 685.9C564.409 687.43 571.689 684.92 577.899 680.97C581.109 678.93 584.099 676.53 586.959 674.02C589.809 671.52 592.699 668.97 594.979 665.93C597.119 663.07 598.459 659.51 598.029 655.9C597.579 652.13 595.339 649.13 591.799 647.74C585.409 645.24 577.779 648.76 573.509 653.61C571.309 656.11 569.689 659.08 568.889 662.32C568.119 665.44 572.939 666.78 573.709 663.65C575.029 658.26 579.249 653.71 584.679 652.31C586.899 651.74 589.699 651.7 591.529 653.26C593.529 654.97 593.409 658.1 592.499 660.34C591.319 663.23 588.889 665.46 586.659 667.55C584.259 669.79 581.799 672 579.189 673.99C574.259 677.74 568.409 681.25 562.039 681.39C560.529 681.42 559.029 681.29 557.579 680.9C556.159 680.52 555.629 679.96 555.399 678.53C554.899 675.48 555.149 672.13 555.509 669.08C556.269 662.61 558.579 656.29 562.009 650.77C568.689 640.04 580.019 632.78 592.429 630.69C597.709 629.8 604.289 629.55 608.819 632.9C613.579 636.42 613.409 643.12 612.359 648.34C609.829 660.83 602.769 671.93 593.769 680.79C584.909 689.51 572.999 698.22 559.989 697.94C554.469 697.82 548.749 696.02 544.679 692.18C540.369 688.12 538.639 682.41 538.809 676.6C539.169 664.46 546.389 653.18 554.289 644.44C562.459 635.4 572.679 628.1 583.999 623.54C586.869 622.38 589.809 621.4 592.789 620.57C595.879 619.67 594.559 614.84 591.449 615.7Z" fill="white"/>
<path d="M608.82 618.019C602.96 612.489 599.49 604.759 599.34 596.689C599.28 593.479 594.28 593.469 594.34 596.689C594.51 606.039 598.48 615.129 605.29 621.549C607.62 623.759 611.16 620.229 608.82 618.019Z" fill="white"/>
<path d="M586.401 592.447C578.451 594.867 571.141 599.007 564.951 604.557C563.941 605.457 564.031 607.177 564.951 608.097C565.951 609.097 567.481 608.997 568.491 608.097C574.031 603.137 580.621 599.437 587.741 597.267C590.791 596.327 589.491 591.497 586.401 592.447Z" fill="white"/>
<path d="M554.469 614.07C551.579 616.19 548.849 618.51 546.349 621.08C545.439 622.02 545.349 623.69 546.349 624.62C547.339 625.53 548.909 625.62 549.889 624.62C551.879 622.57 554.01 620.67 556.27 618.93C556.1 619.06 555.929 619.19 555.759 619.32C556.169 619.01 556.579 618.7 556.989 618.39C557.529 617.99 557.949 617.57 558.139 616.9C558.299 616.3 558.229 615.5 557.889 614.97C557.549 614.44 557.03 613.97 556.4 613.82C555.78 613.68 554.999 613.68 554.469 614.07Z" fill="white"/>
<path d="M609.64 775.39C607.26 777.15 604.76 779.13 604.07 782.18C603.69 783.83 603.82 785.56 604.66 787.06C605.44 788.44 606.72 789.34 608.16 789.91C610.89 790.99 614.04 790.07 616.34 788.43C617.56 787.56 618.83 786.54 619.51 785.16C620.18 783.8 620.38 782.23 619.89 780.77C618.97 778 616.35 776.13 613.83 774.91C612.65 774.34 611.07 774.55 610.41 775.81C609.82 776.93 610.05 778.62 611.31 779.23C612.11 779.62 612.88 780.05 613.6 780.56C613.66 780.6 614.02 780.94 613.73 780.65C613.47 780.39 613.71 780.64 613.78 780.7C613.94 780.83 614.09 780.97 614.24 781.11C614.39 781.25 614.53 781.39 614.66 781.54C614.73 781.62 614.81 781.77 614.9 781.82C614.76 781.74 614.59 781.36 614.81 781.72C614.91 781.88 615 782.04 615.09 782.2C615.36 782.68 614.97 781.7 615.09 782.23C615.11 782.34 615.15 782.45 615.17 782.55C615.24 782.82 615.04 782.65 615.14 782.28C615.12 782.37 615.12 783.12 615.16 782.63C615.2 782.17 615.08 782.82 615.05 782.93C614.96 783.24 615.37 782.43 615.06 782.86C615 782.95 614.94 783.05 614.89 783.14C614.69 783.46 614.98 783.03 614.98 783.03C614.99 783.05 614.75 783.29 614.76 783.28C614.57 783.48 614.36 783.67 614.15 783.85C614.09 783.9 613.91 784.01 613.89 784.06C613.91 784.01 614.35 783.73 613.96 784C613.76 784.14 613.56 784.28 613.35 784.42C613.14 784.55 612.93 784.68 612.72 784.8C612.61 784.86 612.5 784.91 612.39 784.97C612.31 785.01 612.23 785.05 612.14 785.09C611.97 785.17 612.03 785.14 612.32 785.02C611.98 785.34 611.3 785.19 610.92 785.4C611.2 785.24 611.32 785.36 611.04 785.37C610.94 785.37 610.84 785.38 610.74 785.38C610.64 785.38 610.54 785.38 610.44 785.37C610.36 785.37 610.29 785.36 610.21 785.35C610.01 785.33 610.11 785.34 610.5 785.39C610.4 785.3 610.05 785.29 609.91 785.25C609.91 785.25 609.65 785.14 609.62 785.15C609.77 785.1 610.1 785.38 609.8 785.22C609.62 785.13 609.45 785.02 609.28 784.92C608.92 784.71 609.42 784.99 609.43 785.04C609.41 784.96 609.17 784.81 609.11 784.74C609.08 784.71 608.96 784.54 608.91 784.52C609.18 784.65 609.18 784.92 609.04 784.66C609.05 784.68 608.89 784.4 608.89 784.4C608.95 784.38 609.05 784.9 608.95 784.53C608.92 784.43 608.89 784.31 608.86 784.21C608.68 783.7 608.86 784.63 608.86 784.29C608.86 784.22 608.81 783.54 608.86 783.53C608.88 783.53 608.75 784.08 608.84 783.69C608.88 783.52 608.91 783.35 608.96 783.19C608.99 783.08 609.03 782.97 609.07 782.86C609.25 782.32 608.81 783.31 609.09 782.82C609.22 782.59 609.34 782.36 609.49 782.15C609.54 782.08 609.77 781.75 609.56 782.03C609.34 782.33 609.66 781.91 609.71 781.86C610.11 781.4 610.57 780.98 611.04 780.59C611.13 780.51 611.23 780.43 611.33 780.36C611.44 780.27 611.87 779.89 611.41 780.29C611.64 780.09 611.91 779.92 612.15 779.74C612.69 779.34 613.11 778.92 613.3 778.25C613.46 777.65 613.39 776.85 613.05 776.32C612.39 775.26 610.76 774.56 609.64 775.39Z" fill="white"/>
<path d="M649.28 694.439C634.87 699.759 622.51 709.929 614.47 723.009C612.19 726.719 610.31 730.649 608.79 734.729C608.32 735.989 609.32 737.469 610.54 737.809C611.94 738.199 613.14 737.329 613.62 736.059C618.52 722.999 628.03 711.739 639.91 704.479C643.31 702.399 646.89 700.639 650.62 699.259C651.89 698.789 652.75 697.569 652.37 696.179C652.02 694.969 650.56 693.969 649.28 694.439Z" fill="white"/>
<path d="M605.147 747.877C603.667 753.237 603.027 758.837 603.287 764.387C603.347 765.687 604.397 766.947 605.787 766.887C607.087 766.827 608.357 765.787 608.287 764.387C608.037 759.117 608.577 754.247 609.967 749.207C610.317 747.947 609.537 746.427 608.217 746.127C606.897 745.827 605.517 746.527 605.147 747.877Z" fill="white"/>
<path d="M680.047 632.148C686.327 639.008 695.657 642.868 704.947 642.438C708.147 642.288 708.167 637.288 704.947 637.438C696.877 637.808 689.027 634.568 683.577 628.608C681.407 626.238 677.877 629.778 680.047 632.148Z" fill="white"/>
<path d="M714.447 628.348C712.357 633.938 710.017 639.418 707.427 644.798C706.837 646.018 707.097 647.498 708.327 648.218C709.417 648.858 711.157 648.538 711.747 647.318C714.527 641.558 717.037 635.668 719.277 629.678C719.747 628.408 718.747 626.938 717.527 626.598C716.127 626.218 714.917 627.078 714.447 628.348Z" fill="white"/>
<path d="M642.99 600.837C640.62 602.637 638.61 604.827 637.23 607.477C635.81 610.197 634.6 613.677 635.45 616.747C635.88 618.297 636.91 619.727 638.33 620.527C639.98 621.467 641.9 621.327 643.57 620.517C646.42 619.127 648.57 616.037 649.66 613.147C650.43 611.127 649.73 608.897 647.75 607.897C645.72 606.877 643.64 607.607 641.83 608.737C640.72 609.427 640.19 610.997 640.93 612.157C641.65 613.267 643.16 613.797 644.35 613.057C644.65 612.867 644.95 612.687 645.26 612.517C645.53 612.377 645.57 612.357 645.38 612.457C645.68 612.387 645.71 612.367 645.48 612.387C645.77 612.397 645.75 612.377 645.42 612.347C645.69 612.427 645.69 612.417 645.4 612.307C645.77 612.727 645.01 611.647 645.02 611.677C645 611.557 644.99 611.437 645.01 611.317C644.96 611.487 644.9 611.657 644.84 611.817C644.96 611.507 644.59 612.327 644.55 612.407C644.27 612.947 643.94 613.467 643.59 613.967C643.41 614.207 643.38 614.247 643.5 614.087C643.39 614.217 643.28 614.357 643.16 614.487C642.93 614.747 642.68 614.997 642.43 615.237C642.24 615.417 642.05 615.597 641.85 615.757C642.09 615.567 641.38 616.047 641.29 616.097C641.02 616.237 640.98 616.247 641.19 616.147C640.89 616.217 640.87 616.237 641.12 616.207C640.8 616.197 640.79 616.217 641.07 616.257C640.97 616.237 640.86 616.207 640.76 616.177C640.59 616.117 640.63 616.137 640.87 616.217C640.63 616.067 640.63 616.077 640.85 616.247C640.72 616.137 640.29 615.517 640.53 615.937C640.45 615.817 640.38 615.687 640.31 615.557C640.41 615.827 640.42 615.827 640.32 615.547C640.32 615.537 640.17 614.737 640.21 615.127C640.12 614.297 640.19 614.047 640.36 613.317C640.49 612.747 640.65 612.187 640.85 611.637C640.88 611.557 641.21 610.687 641.04 611.097C641.17 610.797 641.31 610.497 641.45 610.207C641.71 609.697 641.99 609.197 642.3 608.717C642.48 608.437 642.67 608.177 642.85 607.907C643.03 607.667 643.04 607.647 642.9 607.827C643 607.697 643.1 607.567 643.21 607.447C643.58 607.007 643.96 606.587 644.37 606.187C644.6 605.957 644.84 605.737 645.09 605.527C645.15 605.467 645.87 604.897 645.54 605.147C646.58 604.357 647.23 602.957 646.44 601.727C645.75 600.707 644.1 599.987 642.99 600.837Z" fill="white"/>
<path d="M734.73 614.01C744.35 560.16 740.95 504.019 724.9 451.729C713.12 413.369 694.55 377.12 670.43 345.06C647.09 314.05 617.73 290.44 584.28 270.87C515.24 230.45 436.13 211.37 358.51 195.27C346.39 192.76 334.27 190.29 322.15 187.79C273.64 177.79 225.05 167.36 178 151.7C154.76 143.96 131.93 134.939 109.95 124.099C92.1702 115.319 64.6303 105.13 54.4503 87.5695C48.8003 77.8295 44.8402 66.7095 45.6502 55.4795C46.4602 44.2495 52.7702 32.9995 63.0802 28.4695C73.3902 23.9395 87.3302 27.9995 91.8502 38.3195C93.4402 41.9395 93.8202 46.0795 92.9402 49.9295C91.8002 54.8995 88.4202 59.4195 83.7502 61.4695C79.0802 63.5195 73.2002 62.8295 69.4302 59.3995L68.5902 58.9395C66.5002 64.8095 69.4602 71.6595 74.9102 75.2295C80.3702 78.7995 87.8002 79.2495 94.0802 77.1395C100.36 75.0195 105.52 70.5795 109.09 65.3495C118.26 51.9495 116.77 33.3995 106.58 20.6495C96.3902 7.89954 78.5002 1.17951 61.4102 2.48951C44.3202 3.79951 28.3602 12.6795 17.9402 25.2695C7.52024 37.8595 2.44024 53.8795 2.41024 69.7395C2.40024 76.4895 3.26024 83.2395 4.97024 89.7995C8.75024 104.31 16.6902 117.77 27.1302 129.15" fill="#FF9D91"/>
<path d="M736.289 614.438C749.229 541.158 738.399 464.698 705.149 398.088C689.619 366.978 669.619 337.498 644.409 313.418C619.579 289.698 590.289 270.978 559.639 255.698C494.009 222.998 421.929 206.648 350.549 191.948C273.619 176.108 195.199 161.458 123.299 128.618C109.639 122.378 95.7189 116.138 82.5089 108.988C75.9689 105.448 69.5389 101.498 64.0089 96.488C57.9589 90.998 53.8489 84.128 50.8889 76.548C44.8689 61.128 45.5589 39.618 62.0289 30.768C76.0189 23.248 98.1089 34.888 90.4089 52.378C88.5689 56.558 84.9989 59.918 80.4089 60.748C75.7789 61.578 73.2089 59.568 69.4289 57.508C68.4889 56.998 67.3589 57.458 67.0389 58.478C64.0389 68.268 71.4989 77.318 80.8789 79.408C91.3889 81.758 101.959 76.8579 108.579 68.7179C122.009 52.2079 118.029 27.5779 102.459 13.9679C85.9189 -0.502052 61.5989 -2.72204 41.7489 5.66796C20.7289 14.548 6.04888 33.898 2.02888 56.238C-2.88112 83.538 7.74887 110.158 25.9889 130.278C27.3989 131.828 29.6889 129.528 28.2889 127.978C13.7389 111.928 3.99886 91.6779 4.04886 69.7179C4.09886 49.8979 12.3489 30.308 27.8889 17.708C43.3589 5.158 64.4689 0.447972 83.5089 6.86797C101.559 12.958 115.539 29.398 113.359 49.198C112.149 60.178 105.299 71.008 94.7689 75.158C89.0789 77.398 82.1489 77.488 76.7389 74.408C71.4289 71.388 68.3489 65.328 70.1789 59.348C69.3789 59.668 68.5889 59.998 67.7889 60.318C70.7389 61.918 72.7989 63.668 76.2689 64.088C79.8189 64.518 83.4789 63.738 86.5089 61.818C92.8289 57.808 95.8589 50.118 94.8189 42.828C92.8989 29.418 78.0989 22.528 65.7689 25.798C51.3689 29.618 43.6489 45.358 43.9489 59.328C44.2989 75.288 52.3489 91.418 64.7589 101.358C76.2689 110.588 90.0289 116.458 103.289 122.668C120.489 130.718 137.569 138.698 155.359 145.378C193.669 159.768 233.359 170.088 273.249 179.008C349.689 196.098 427.629 208.118 501.619 234.638C537.199 247.388 571.809 263.498 603.229 284.638C633.499 305.008 659.149 330.348 679.549 360.608C723.639 426.018 744.109 505.598 737.099 584.178C736.219 594.028 734.899 603.818 733.179 613.558C732.799 615.618 735.929 616.498 736.289 614.438Z" fill="white"/>
<path d="M46.8381 155.567C44.9081 154.217 43.3281 152.327 41.3281 150.327L46.2681 141.627L39.4281 136.847L34.2081 143.747C32.3281 142.327 29.3281 139.327 28.3281 138.327L41.8981 118.527C43.7981 119.857 45.7581 121.227 47.6881 122.577L43.0681 131.617L49.9081 136.397L56.5281 128.357C58.4581 129.707 60.3881 131.057 62.3181 132.407L46.8381 155.567Z" fill="white"/>
<path d="M69.7998 168.819L59.4499 161.579L55.6098 163.809L49.3398 158.329L49.7299 158.249L79.4499 140.879L82.3398 142.899L76.3398 178.329L75.6098 177.789L69.0498 173.199L69.7998 168.819ZM73.4199 152.529L65.6299 157.359L71.6299 161.549L73.4199 152.529Z" fill="white"/>
<path d="M107.088 199.958L98.3281 193.328L99.3281 192.328L133.328 169.328L138.678 171.758L133.888 214.468L133.118 215.738L123.328 209.328L127.918 185.208L107.088 199.958Z" fill="white"/>
<path d="M158.458 208.768L153.518 206.578L146.368 222.738L135.328 217.318L153.658 177.828L164.178 182.488L157.718 197.098L162.948 199.418C177.768 179.298 212.558 197.028 201.078 222.968C189.338 249.468 151.568 234.268 158.458 208.768ZM190.548 218.298C196.958 203.808 176.778 194.878 170.368 209.368C163.898 223.968 184.088 232.908 190.548 218.298Z" fill="white"/>
<path d="M226.738 225.969C247.898 236.169 234.068 264.849 212.878 254.709L193.418 245.329L214.738 201.109L246.508 216.429L241.638 226.539L221.168 216.669L218.578 222.039L226.738 225.969ZM213.778 232.029L209.608 240.679C212.198 241.929 215.038 243.299 217.698 244.579C223.948 247.599 228.058 238.909 221.868 235.929L213.778 232.029Z" fill="white"/>
<path d="M245.039 233.669C264.119 204.269 307.739 232.579 288.659 261.979C269.539 291.449 225.919 263.139 245.039 233.669ZM277.549 254.769C287.489 239.459 266.159 225.619 256.229 240.929C246.209 256.359 267.529 270.199 277.549 254.769Z" fill="white"/>
<path d="M288.269 286.758L284.219 284.668L307.069 240.328C310.929 242.318 314.789 244.308 318.649 246.298L307.469 267.998L341.139 257.648L345.249 259.768L322.329 304.238C318.469 302.248 314.549 300.228 310.629 298.208L321.839 276.448L288.269 286.758ZM328.329 236.328C326.329 236.328 324.609 236.188 322.329 235.328C318.869 242.508 322.169 245.068 328.999 248.598C336.019 252.218 341.739 250.438 345.639 243.488C343.619 242.128 341.599 240.768 339.449 239.498C337.699 241.958 335.569 241.898 332.979 240.568C330.319 239.188 327.309 238.758 328.329 236.328Z" fill="white"/>
<path d="M394.83 312.858C397.37 317.618 396.73 322.518 393.73 326.798C387.77 335.178 377.87 338.448 367.99 331.548L345.32 315.708L379.13 267.328L399.8 281.768C408.16 287.608 410.33 298.798 404.48 307.158C402.45 310.058 398.53 312.568 394.83 312.858ZM370.7 304.848L364.95 313.078L374.83 319.988C379.81 323.468 385.49 315.188 380.51 311.718L370.7 304.848ZM383.36 286.738L377.9 294.548L385.71 300.008C390.62 303.438 396.07 295.628 391.1 292.148L383.36 286.738Z" fill="white"/>
<path d="M384.527 343.688L432.117 300.668C435.807 304.748 439.497 308.828 443.307 313.038L425.297 329.328L426.097 330.208C437.097 342.378 448.427 333.368 457.327 325.318C462.327 328.318 467.517 331.108 471.327 335.318C461.607 344.108 447.417 355.158 432.827 351.178L423.567 383.028L421.327 393.318L407.327 371.318L418.387 344.088C416.637 342.698 415.287 341.208 413.877 339.648L395.727 356.058C391.907 351.848 388.217 347.768 384.527 343.688Z" fill="white"/>
<path d="M475.328 337.328L494.328 357.328L481.428 386.578L481.798 387.028L514.148 378.698L528.598 396.298L526.148 398.308L440.358 418.318L423.328 396.328L456.398 392.538L475.328 337.328Z" fill="white"/>
<path d="M551.16 451.257C555.81 471.137 550.01 495.197 525.24 504.897C523.28 496.537 521.55 489.127 519.6 480.767C528.53 475.067 531.22 466.767 528.81 456.487C525.44 442.087 512.4 435.167 496.49 438.887C482.37 442.187 472.21 454.397 475.47 468.967C477.91 479.387 485.07 486.527 495.97 486.727C497.89 494.957 499.66 502.497 501.62 510.857C473.64 513.637 457.91 494.617 453.13 474.187C447.28 449.817 457.96 421.287 490.56 413.517C523.23 406.027 545.45 426.857 551.16 451.257Z" fill="white"/>
<path d="M64.8281 13.3262C55.3081 14.4662 46.1681 18.4262 38.4981 24.1262C34.7081 26.9462 31.2181 30.1362 28.2981 33.8662C25.3081 37.6862 23.1681 41.8062 21.6181 46.4062C20.1381 50.7962 19.1181 55.3262 18.7981 59.9562C18.4881 64.4262 18.9381 68.9162 19.7181 73.3162C20.6281 78.4662 21.8281 83.7462 23.4781 88.7162C24.3681 91.3962 25.9381 93.8962 27.3781 96.3062C29.5481 99.9062 31.8481 103.436 34.2481 106.896C36.0581 109.516 37.8681 112.276 40.0581 114.606C42.2581 116.956 45.7881 113.416 43.5981 111.066C43.3281 110.776 43.0681 110.466 42.8081 110.156C42.6481 109.956 42.4881 109.756 42.3281 109.556C42.2381 109.446 41.9781 109.106 42.3081 109.536C42.1881 109.376 42.0581 109.216 41.9381 109.046C41.0581 107.876 40.2081 106.696 39.3681 105.496C37.2881 102.536 35.2781 99.5162 33.3581 96.4462C31.7281 93.8562 30.0881 91.2262 28.7681 88.4562C28.6581 88.2262 28.5481 87.9862 28.4481 87.7562C28.2981 87.4262 28.6581 88.3462 28.4981 87.8662C28.4681 87.7762 28.4281 87.6962 28.3981 87.6162C28.0981 86.6062 27.8081 85.5963 27.5281 84.5863C26.8081 81.9763 26.1281 79.3562 25.5281 76.7262C23.6381 68.4562 23.0181 60.2462 25.1781 51.9862C26.2681 47.7962 27.7081 43.7162 30.0281 40.0362C32.3481 36.3662 35.3481 33.1662 38.6381 30.3562C45.8981 24.1662 55.3081 19.4662 64.8381 18.3262C66.1781 18.1662 67.3381 17.2962 67.3381 15.8262C67.3281 14.5962 66.1681 13.1562 64.8281 13.3262Z" fill="white"/>
<path d="M90.3703 150.408C102.04 157.098 113.93 163.418 126.01 169.338C127.22 169.928 128.71 169.668 129.43 168.438C130.07 167.338 129.75 165.618 128.53 165.018C116.45 159.098 104.56 152.788 92.8903 146.088C90.1003 144.488 87.5803 148.808 90.3703 150.408Z" fill="white"/>
<path d="M453.168 497.058C445.118 511.958 434.838 525.568 422.718 537.398C410.688 549.138 396.918 559.048 381.928 566.648C373.598 570.868 364.908 574.328 355.958 576.988C352.878 577.908 354.188 582.728 357.288 581.808C373.768 576.908 389.438 569.328 403.588 559.568C417.778 549.778 430.508 537.888 441.178 524.338C447.298 516.558 452.778 508.298 457.488 499.588C459.008 496.758 454.698 494.228 453.168 497.058Z" fill="white"/>
<path d="M556.571 504.906C553.511 521.946 548.581 538.656 541.861 554.606C535.111 570.626 526.551 585.906 516.461 600.066C506.441 614.126 494.801 627.016 481.901 638.486C469.151 649.816 455.161 659.706 440.271 668.016C425.381 676.326 409.611 683.016 393.271 687.886C391.231 688.496 389.191 689.066 387.141 689.626C384.041 690.466 385.351 695.286 388.471 694.446C405.341 689.906 421.711 683.476 437.191 675.366C452.611 667.296 467.131 657.516 480.461 646.326C493.891 635.046 505.971 622.266 516.571 608.306C527.211 594.286 536.281 579.076 543.571 563.056C550.901 546.966 556.511 530.106 560.121 512.796C560.571 510.616 561.001 508.426 561.391 506.236C561.631 504.906 561.031 503.546 559.641 503.156C558.441 502.826 556.811 503.566 556.571 504.906Z" fill="white"/>
<path d="M685.111 703.968C663.781 703.158 642.861 714.168 630.641 731.518C624.611 740.078 619.501 751.618 622.101 762.258C623.451 767.768 627.301 772.328 632.481 774.608C637.801 776.948 643.671 777.148 649.261 775.678C655.211 774.118 660.671 770.918 665.611 767.338C670.211 764.008 674.481 760.218 678.151 755.878C681.691 751.688 684.711 747.078 686.861 742.018C689.031 736.908 691.081 730.688 689.881 725.098C688.471 718.468 681.431 716.408 675.481 716.088C669.411 715.758 663.221 717.478 658.011 720.548C652.911 723.548 648.671 727.838 645.331 732.688C641.961 737.578 638.641 743.678 639.501 749.818C640.351 755.868 645.341 760.168 651.531 759.418C657.741 758.668 663.181 754.438 667.771 750.468C672.081 746.738 677.001 741.868 675.581 735.618C674.931 732.778 672.701 730.358 669.791 729.838C666.921 729.318 663.861 730.338 661.891 732.498C659.901 734.688 659.041 737.538 658.931 740.448C658.811 743.668 663.811 743.658 663.931 740.448C664.001 738.548 664.601 736.348 666.311 735.268C667.631 734.428 669.501 734.388 670.361 735.838C672.761 739.878 667.161 744.378 664.581 746.648C660.941 749.848 656.541 753.458 651.651 754.388C649.651 754.768 647.551 754.448 646.111 752.898C644.701 751.388 644.271 749.228 644.371 747.228C644.501 744.628 645.651 742.118 646.851 739.848C648.011 737.668 649.331 735.548 650.841 733.588C653.811 729.728 657.531 726.418 661.851 724.138C666.391 721.748 671.651 720.618 676.761 721.188C678.921 721.428 681.491 721.928 683.261 723.298C684.981 724.628 685.301 726.798 685.221 728.848C685.061 733.378 683.351 738.088 681.361 742.118C679.251 746.378 676.531 750.298 673.351 753.818C670.181 757.328 666.631 760.508 662.791 763.258C658.511 766.328 653.871 769.158 648.781 770.638C644.291 771.948 639.511 772.088 635.121 770.328C631.121 768.728 628.161 765.458 627.041 761.288C624.691 752.488 629.211 742.758 633.961 735.548C643.721 720.748 660.681 710.518 678.391 709.108C680.641 708.928 682.891 708.888 685.141 708.978C688.321 709.088 688.321 704.088 685.111 703.968Z" fill="white"/>
<path d="M697.951 715.149C698.961 708.439 702.021 702.449 706.901 697.799C707.881 696.869 707.841 695.199 706.901 694.259C705.921 693.279 704.341 693.329 703.361 694.259C697.941 699.429 694.241 706.409 693.131 713.819C692.931 715.149 693.461 716.509 694.881 716.899C696.061 717.219 697.751 716.489 697.951 715.149Z" fill="white"/>
<path d="M696.318 532.127C689.068 541.857 683.758 553.047 680.748 564.807C677.648 576.927 676.378 590.507 680.078 602.637C681.728 608.047 684.448 613.157 688.228 617.377C691.978 621.557 697.658 625.957 703.608 625.497C709.748 625.017 713.898 619.187 717.198 614.597C720.588 609.877 723.288 604.707 725.368 599.287C729.508 588.497 730.898 576.487 728.998 565.067C728.048 559.357 726.018 553.797 722.418 549.227C718.648 544.437 712.908 541.147 706.798 543.547C696.458 547.597 692.368 559.167 690.558 569.207C689.548 574.807 688.718 580.597 688.838 586.307C688.958 592.017 690.128 598.557 694.028 602.987C696.148 605.407 699.258 606.257 702.218 604.867C704.778 603.657 706.818 601.187 708.478 598.967C711.818 594.507 713.788 589.117 715.118 583.747C715.778 581.077 716.328 578.357 716.728 575.627C717.148 572.787 717.368 569.877 716.638 567.057C715.958 564.417 714.118 561.277 711.268 560.597C708.028 559.817 705.498 562.487 704.248 565.157C702.898 568.057 702.278 571.237 702.528 574.427C702.638 575.777 703.598 576.927 705.028 576.927C706.298 576.927 707.638 575.777 707.528 574.427C707.328 571.847 707.688 569.197 708.948 566.907C709.238 566.377 709.678 565.577 710.258 565.467C709.958 565.527 709.918 565.127 710.308 565.607C710.408 565.727 710.508 565.827 710.608 565.947C710.958 566.337 711.248 566.837 711.458 567.317C712.338 569.317 712.198 571.697 711.958 573.817C711.688 576.187 711.178 578.557 710.658 580.877C709.608 585.527 708.178 590.137 705.668 594.217C704.458 596.187 703.008 597.987 701.268 599.517C700.718 600.007 699.878 600.717 699.088 600.597C698.318 600.477 697.688 599.677 697.268 599.087C694.438 595.087 693.788 589.837 693.818 585.057C693.858 580.147 694.528 575.197 695.398 570.367C696.878 562.207 699.668 552.517 707.748 548.557C709.728 547.587 711.948 547.377 713.948 548.407C715.958 549.437 717.628 551.107 718.958 552.917C721.908 556.927 723.408 561.757 724.198 566.627C725.778 576.427 724.478 586.737 721.238 596.067C719.608 600.757 717.398 605.227 714.708 609.407C713.348 611.517 711.868 613.547 710.248 615.467C708.798 617.187 707.198 619.177 705.078 620.107C700.648 622.047 695.578 617.827 692.688 614.867C689.398 611.507 686.948 607.327 685.398 602.897C681.798 592.607 682.418 581.097 684.558 570.557C686.678 560.117 690.638 550.107 696.278 541.057C697.638 538.877 699.088 536.757 700.628 534.697C701.438 533.617 700.808 531.907 699.728 531.277C698.468 530.487 697.128 531.047 696.318 532.127Z" fill="white"/>
<path d="M710.629 528.647C710.209 528.177 709.799 527.707 709.409 527.217C709.309 527.097 709.209 526.977 709.119 526.847C709.379 527.177 709.059 526.757 709.009 526.697C708.819 526.447 708.639 526.187 708.459 525.937C707.719 524.877 707.029 523.777 706.419 522.637C706.119 522.087 705.839 521.527 705.569 520.957C705.439 520.677 705.309 520.387 705.179 520.097C705.109 519.937 705.049 519.807 705.149 520.047C705.089 519.897 705.029 519.757 704.969 519.607C704.479 518.367 704.059 517.097 703.709 515.807C703.369 514.547 701.909 513.647 700.629 514.057C699.329 514.477 698.519 515.777 698.879 517.137C700.379 522.727 703.219 527.877 707.079 532.177C707.959 533.157 709.739 533.137 710.619 532.177C711.589 531.137 711.569 529.687 710.629 528.647Z" fill="white"/>
<path d="M676.89 539.549C669.1 552.079 664.66 566.519 663.96 581.249C663.81 584.469 668.81 584.459 668.96 581.249C669.61 567.379 673.88 553.859 681.2 542.069C682.91 539.329 678.59 536.819 676.89 539.549Z" fill="white"/>
<path d="M623.609 484.647C621.579 478.877 614.499 469.967 608.059 475.717C605.389 478.097 603.659 481.687 602.309 484.927C600.989 488.107 600.089 491.437 599.369 494.797C597.709 502.527 596.839 510.447 596.789 518.347C596.759 522.137 596.909 525.937 597.279 529.707C597.619 533.137 598.199 536.537 599.719 539.667C601.159 542.637 603.699 545.337 606.949 546.267C610.679 547.337 613.909 545.447 616.099 542.517C618.089 539.847 619.529 536.637 620.839 533.597C622.279 530.277 623.509 526.867 624.459 523.377C626.329 516.507 627.439 509.067 627.039 501.927C626.859 498.707 626.029 495.327 623.279 493.347C620.479 491.337 616.579 491.847 613.899 493.827C610.689 496.197 609.249 500.177 608.299 503.907C607.209 508.187 606.799 512.697 607.169 517.097C607.319 518.917 607.489 520.847 608.729 522.287C610.189 523.967 612.619 524.137 614.319 522.717C615.859 521.427 616.569 519.297 617.149 517.437C617.809 515.337 618.139 513.137 618.249 510.947C618.409 507.727 613.409 507.737 613.249 510.947C613.179 512.407 612.969 513.817 612.589 515.237C612.409 515.897 612.199 516.547 611.969 517.187C611.789 517.677 611.379 518.237 611.289 518.737C611.209 518.817 611.129 518.897 611.059 518.977C611.499 518.647 611.899 518.607 612.259 518.857C611.999 518.967 612.649 518.957 612.519 519.037C612.489 519.057 612.239 517.617 612.229 517.557C612.079 516.007 612.019 514.447 612.069 512.887C612.159 509.827 612.639 506.817 613.509 503.877C614.159 501.667 615.019 499.037 617.059 497.707C618.639 496.677 620.559 496.837 621.379 498.657C622.279 500.637 622.119 503.057 622.079 505.177C621.969 511.027 621.109 516.827 619.529 522.467C617.979 528.027 615.789 533.497 612.809 538.457C611.869 540.027 610.559 541.967 608.469 541.487C606.269 540.987 604.719 538.737 603.879 536.787C602.919 534.567 602.519 532.087 602.289 529.697C601.979 526.567 601.829 523.417 601.799 520.267C601.739 513.917 602.189 507.547 603.229 501.277C604.259 495.047 605.579 488.557 608.779 483.037C609.499 481.797 610.279 480.527 611.319 479.517C612.279 478.577 612.809 478.677 613.879 479.417C616.149 480.977 617.889 483.387 618.799 485.977C619.249 487.247 620.509 488.097 621.879 487.727C623.089 487.387 624.059 485.927 623.609 484.647Z" fill="white"/>
<path d="M629.321 482.789C632.851 494.419 636.441 506.339 636.251 518.609C636.111 527.789 633.481 537.279 627.591 544.489C624.471 548.309 620.541 551.458 615.891 553.188C614.631 553.658 613.761 554.879 614.141 556.269C614.471 557.489 615.941 558.489 617.221 558.019C626.941 554.399 633.811 546.339 637.681 536.909C642.121 526.079 641.861 514.169 639.741 502.829C638.391 495.589 636.281 488.519 634.141 481.479C633.211 478.389 628.381 479.699 629.321 482.789Z" fill="white"/>
<path d="M589.629 481.829C582.779 496.079 581.879 512.229 584.779 527.619C585.599 531.989 586.749 536.299 588.159 540.519C589.169 543.559 593.999 542.259 592.979 539.189C588.379 525.379 586.509 510.259 589.889 495.959C590.829 491.959 592.169 488.059 593.949 484.359C594.529 483.139 594.279 481.659 593.049 480.939C591.959 480.289 590.219 480.609 589.629 481.829Z" fill="white"/>
<path d="M594.837 551.689C597.867 554.989 601.837 557.409 606.147 558.649C607.407 559.009 608.927 558.209 609.227 556.899C609.527 555.569 608.827 554.209 607.477 553.819C606.997 553.679 606.517 553.529 606.047 553.359C605.837 553.279 605.627 553.209 605.427 553.119C605.387 553.109 604.877 552.889 605.267 553.059C605.607 553.209 605.247 553.049 605.187 553.019C604.277 552.609 603.387 552.149 602.537 551.619C602.137 551.369 601.747 551.109 601.357 550.839C601.247 550.759 601.127 550.679 601.017 550.599C600.957 550.559 600.647 550.319 600.937 550.539C601.227 550.769 600.917 550.519 600.867 550.479C600.757 550.389 600.647 550.309 600.547 550.219C599.777 549.579 599.057 548.889 598.377 548.149C597.487 547.179 595.727 547.179 594.837 548.149C593.887 549.189 593.887 550.659 594.837 551.689Z" fill="white"/>
<path d="M602.198 470.566C602.468 470.266 602.768 469.986 603.088 469.736C602.918 469.866 602.748 469.996 602.578 470.126C603.068 469.756 603.588 469.446 604.158 469.206C603.958 469.286 603.758 469.376 603.558 469.456C604.098 469.236 604.668 469.076 605.248 468.996C605.028 469.026 604.808 469.056 604.588 469.086C604.608 469.086 604.628 469.076 604.658 469.076C604.998 469.086 605.328 469.016 605.618 468.856C605.928 468.756 606.198 468.586 606.418 468.336C606.848 467.906 607.178 467.186 607.148 466.566C607.118 465.916 606.908 465.247 606.418 464.797C606.248 464.667 606.078 464.536 605.908 464.406C605.518 464.176 605.098 464.066 604.648 464.066C604.028 464.146 603.428 464.226 602.828 464.406C602.238 464.586 601.658 464.836 601.108 465.116C600.738 465.306 600.388 465.536 600.048 465.786C599.548 466.166 599.068 466.546 598.648 467.006C598.208 467.496 597.918 468.096 597.918 468.776C597.918 469.386 598.188 470.127 598.648 470.547C599.128 470.987 599.748 471.306 600.418 471.276C601.078 471.266 601.748 471.056 602.198 470.566Z" fill="white"/>
<path d="M688.218 465.419C687.848 456.399 689.758 447.419 693.888 439.389C695.358 436.529 691.048 433.999 689.568 436.869C685.038 445.669 682.798 455.519 683.218 465.419C683.348 468.629 688.358 468.649 688.218 465.419Z" fill="white"/>
<path d="M692.909 435.829C683.449 432.839 677.129 424.489 672.279 416.289C666.139 405.899 660.969 394.839 656.149 383.789C655.549 382.419 654.919 381.049 654.379 379.649C654.089 378.879 653.379 377.429 654.029 376.669C655.199 375.289 657.829 377.069 658.929 377.919C663.439 381.399 667.519 385.559 671.319 389.779C679.039 398.349 685.599 407.859 692.079 417.379C692.799 418.439 693.629 419.509 694.069 420.729C694.169 420.999 694.519 421.869 694.319 422.189C694.459 421.959 694.069 422.229 693.989 422.219C691.719 422.079 689.339 420.539 687.479 419.309C683.049 416.379 679.489 411.999 677.599 407.019C677.119 405.759 675.909 404.889 674.519 405.269C673.309 405.599 672.289 407.079 672.769 408.349C674.929 414.029 678.559 418.889 683.419 422.539C685.669 424.229 688.179 425.639 690.829 426.599C693.909 427.709 697.789 427.189 699.009 423.719C700.009 420.869 698.449 417.859 696.879 415.559C695.029 412.849 693.179 410.129 691.299 407.439C687.499 401.999 683.589 396.639 679.379 391.509C675.199 386.409 670.699 381.539 665.759 377.159C663.339 375.019 660.719 372.419 657.529 371.519C654.589 370.689 651.099 371.619 649.529 374.389C647.739 377.549 649.579 381.109 650.849 384.069C652.309 387.459 653.809 390.829 655.359 394.179C658.379 400.699 661.579 407.139 664.969 413.479C670.989 424.729 678.749 436.569 691.549 440.619C694.649 441.619 695.969 436.789 692.909 435.829Z" fill="white"/>
<path d="M631.66 358.847C636.46 363.157 641.83 366.838 647.62 369.688C648.79 370.268 650.38 370.037 651.04 368.787C651.64 367.657 651.4 365.988 650.14 365.368C644.61 362.648 639.63 359.288 635.19 355.308C634.22 354.438 632.6 354.278 631.65 355.308C630.79 356.268 630.62 357.907 631.66 358.847Z" fill="white"/>
<path d="M637.878 379.376C637.128 397.606 647.478 413.936 659.168 427.036C661.318 429.446 664.838 425.896 662.708 423.496C651.878 411.366 642.188 396.256 642.878 379.376C643.008 376.156 638.008 376.166 637.878 379.376Z" fill="white"/>
<path d="M669.337 438.087C670.707 439.137 672.077 440.177 673.447 441.227C673.737 441.407 674.047 441.507 674.377 441.527C674.707 441.597 675.037 441.587 675.377 441.487C675.957 441.327 676.587 440.877 676.867 440.337C677.177 439.757 677.327 439.057 677.117 438.407C677.037 438.207 676.947 438.007 676.867 437.807C676.647 437.427 676.347 437.137 675.967 436.907C674.597 435.857 673.227 434.817 671.857 433.767C671.567 433.587 671.257 433.487 670.927 433.467C670.597 433.397 670.267 433.407 669.927 433.507C669.347 433.667 668.717 434.117 668.437 434.657C668.127 435.237 667.977 435.937 668.187 436.587C668.267 436.787 668.357 436.987 668.437 437.187C668.657 437.567 668.957 437.867 669.337 438.087Z" fill="white"/>
<path d="M707.671 460.128C709.331 465.518 710.991 470.918 712.641 476.308C713.021 477.558 714.401 478.478 715.721 478.058C716.981 477.648 717.881 476.318 717.471 474.978C715.811 469.588 714.151 464.188 712.501 458.798C712.121 457.548 710.741 456.628 709.421 457.048C708.161 457.458 707.261 458.788 707.671 460.128Z" fill="white"/>
<path d="M555.209 339.057C550.369 343.467 548.929 350.167 549.179 356.477C549.459 363.587 551.459 370.717 553.879 377.367C556.469 384.477 559.849 391.307 564.039 397.617C567.869 403.397 572.699 409.637 580.189 410.157C583.309 410.367 586.579 409.387 588.869 407.217C591.589 404.637 592.119 400.777 592.469 397.237C593.119 390.597 592.349 383.757 590.399 377.377C588.429 370.927 585.259 364.937 581.089 359.647C579.049 357.057 576.749 354.667 574.209 352.557C571.809 350.557 568.809 348.837 565.589 348.877C561.819 348.927 559.129 351.937 559.139 355.657C559.159 359.207 560.799 362.957 562.109 366.197C564.899 373.087 568.639 379.467 573.289 385.267C574.439 386.697 575.639 388.077 576.889 389.407C578.309 390.927 580.389 389.927 581.069 388.307C583.409 382.657 581.119 376.097 576.329 372.557C575.239 371.757 573.539 372.377 572.909 373.457C572.169 374.727 572.719 376.077 573.809 376.877C576.919 379.177 577.669 383.557 576.249 386.987C577.639 386.617 579.039 386.247 580.429 385.887C576.049 381.197 572.359 375.937 569.419 370.227C567.969 367.417 566.719 364.507 565.679 361.517C565.179 360.087 564.679 358.637 564.339 357.157C564.109 356.147 563.859 354.727 564.789 354.047C564.829 354.017 565.299 353.887 565.479 353.867C565.779 353.837 566.309 353.917 566.669 353.997C567.919 354.287 569.069 354.897 570.099 355.637C572.329 357.237 574.319 359.357 576.109 361.427C579.799 365.687 582.739 370.707 584.679 375.997C586.639 381.347 587.709 386.977 587.699 392.667C587.699 395.447 587.579 398.387 586.809 401.077C586.129 403.447 584.339 404.867 581.889 405.147C576.259 405.787 572.179 400.667 569.329 396.537C565.569 391.097 562.349 385.227 559.869 379.097C557.279 372.697 555.039 365.767 554.349 358.867C553.769 353.127 554.219 346.717 558.749 342.597C561.129 340.427 557.579 336.897 555.209 339.057Z" fill="white"/>
<path d="M577.578 423.887C582.748 425.947 588.618 423.827 592.578 420.287C596.798 416.527 598.968 411.057 601.028 405.947C601.538 404.697 600.478 403.197 599.278 402.867C597.848 402.477 596.708 403.357 596.198 404.617C594.528 408.767 592.758 413.157 589.488 416.327C586.598 419.137 582.558 420.527 578.888 419.067C577.638 418.567 576.138 419.617 575.808 420.817C575.438 422.237 576.318 423.387 577.578 423.887Z" fill="white"/>
<path d="M603.567 388.84C603.257 385.7 602.937 382.56 602.627 379.42C602.557 378.74 602.397 378.15 601.897 377.65C601.467 377.22 600.747 376.89 600.127 376.92C598.887 376.98 597.487 378.03 597.627 379.42C597.937 382.56 598.257 385.7 598.567 388.84C598.637 389.52 598.797 390.11 599.297 390.61C599.727 391.04 600.447 391.37 601.067 391.34C602.317 391.29 603.707 390.23 603.567 388.84Z" fill="white"/>
<path d="M548.307 332.878C547.887 332.748 547.467 332.608 547.057 332.448C546.887 332.388 546.717 332.308 546.547 332.248C546.377 332.178 546.407 332.198 546.637 332.288C546.537 332.248 546.438 332.198 546.338 332.158C545.598 331.828 544.877 331.458 544.177 331.058C543.447 330.638 542.737 330.168 542.057 329.678C542.007 329.648 541.538 329.288 541.778 329.478C542.018 329.668 541.557 329.298 541.507 329.258C541.167 328.978 540.827 328.688 540.507 328.388C539.907 327.838 539.337 327.268 538.797 326.658C538.527 326.358 538.268 326.048 538.018 325.738C537.948 325.648 537.877 325.568 537.807 325.478C537.947 325.668 537.967 325.688 537.867 325.548C537.757 325.398 537.647 325.248 537.547 325.098C536.567 323.718 535.748 322.238 535.088 320.678C534.578 319.468 532.697 319.118 531.667 319.778C530.407 320.588 530.228 321.908 530.768 323.198C533.698 330.118 539.847 335.468 546.987 337.698C548.237 338.088 549.767 337.238 550.067 335.948C550.357 334.598 549.637 333.298 548.307 332.878Z" fill="white"/>
<path d="M589.918 428.139C589.358 432.469 590.908 436.879 593.758 440.129C594.628 441.119 596.418 441.079 597.298 440.129C598.268 439.079 598.218 437.649 597.298 436.589C597.218 436.499 596.878 436.209 596.878 436.089C597.098 436.379 597.128 436.419 596.968 436.199C596.908 436.109 596.838 436.019 596.778 435.929C596.528 435.569 596.298 435.199 596.088 434.809C595.978 434.619 595.878 434.419 595.788 434.229C595.738 434.129 595.698 434.029 595.648 433.929C595.538 433.679 595.558 433.729 595.708 434.069C595.618 434.019 595.508 433.559 595.478 433.459C595.408 433.249 595.338 433.039 595.278 432.829C595.148 432.409 595.048 431.979 594.968 431.549C594.948 431.439 594.928 431.329 594.908 431.229C594.868 430.949 594.868 431.009 594.928 431.409C594.978 431.269 594.878 430.909 594.858 430.759C594.788 429.879 594.818 429.009 594.938 428.139C595.018 427.549 594.608 426.769 594.208 426.369C593.778 425.939 593.058 425.609 592.438 425.639C591.788 425.669 591.118 425.879 590.668 426.369C590.168 426.899 590.008 427.439 589.918 428.139Z" fill="white"/>
<path d="M555.229 284.79C560.909 294.34 567.419 304.22 577.159 310.04C579.429 311.4 582.029 312.76 584.629 313.32C587.779 314 591.349 313.04 592.349 309.62C593.179 306.76 591.889 303.87 590.639 301.36C589.269 298.61 587.679 295.98 585.879 293.5C583.839 290.68 581.579 287.98 579.039 285.59C576.249 282.96 572.879 280.97 568.929 281.76C567.539 282.04 566.929 283.59 567.179 284.84C568.129 289.51 571.729 293.26 576.249 294.66C579.329 295.61 580.649 290.79 577.579 289.84C574.649 288.94 572.609 286.49 572.009 283.52C571.429 284.55 570.849 285.57 570.259 286.6C572.439 286.17 574.539 288.2 575.949 289.58C577.779 291.37 579.509 293.3 581.049 295.35C582.589 297.4 583.989 299.57 585.229 301.81C586.159 303.49 587.759 305.83 587.609 307.85C587.589 308.19 587.559 308.44 587.149 308.58C586.169 308.9 584.689 308.17 583.809 307.81C581.809 307.01 579.899 305.93 578.109 304.73C574.359 302.2 571.169 298.9 568.339 295.39C565.029 291.29 562.239 286.79 559.549 282.27C557.899 279.5 553.579 282.01 555.229 284.79Z" fill="white"/>
<path d="M596.518 311.068C597.968 316.828 600.308 322.388 603.408 327.448C604.088 328.558 605.678 329.088 606.828 328.348C607.948 327.628 608.458 326.118 607.728 324.928C604.748 320.078 602.728 315.268 601.338 309.738C601.018 308.468 599.528 307.578 598.258 307.988C596.948 308.418 596.178 309.708 596.518 311.068Z" fill="white"/>
<path d="M555.531 272.109C549.791 273.009 543.711 271.839 538.591 268.959C535.781 267.379 533.261 271.699 536.071 273.279C542.421 276.849 549.701 278.059 556.871 276.929C558.201 276.719 558.941 275.049 558.621 273.849C558.221 272.429 556.871 271.899 555.531 272.109Z" fill="white"/>
<path d="M600.107 298.738C601.257 299.278 602.357 299.908 603.397 300.648C603.507 300.728 603.617 300.808 603.737 300.888C603.807 300.938 604.247 301.308 603.947 301.038C603.657 300.778 604.017 301.098 604.087 301.148C604.217 301.248 604.347 301.358 604.467 301.468C604.947 301.878 605.417 302.308 605.857 302.768C606.287 303.198 606.687 303.648 607.077 304.118C607.187 304.248 607.287 304.378 607.387 304.508C607.587 304.748 607.077 304.088 607.347 304.458C607.547 304.728 607.737 304.988 607.927 305.268C608.647 306.318 609.257 307.428 609.787 308.588C610.327 309.788 612.157 310.168 613.207 309.488C614.447 308.688 614.677 307.348 614.107 306.068C611.837 301.028 607.637 296.778 602.627 294.438C601.447 293.888 599.877 294.068 599.207 295.338C598.627 296.418 598.847 298.138 600.107 298.738Z" fill="white"/>
<path d="M440.21 269.728C445.6 277.808 452.33 284.838 460.13 290.618C463.89 293.398 467.91 295.938 472.13 297.948C474.52 299.088 477.13 299.978 479.8 299.418C481.98 298.958 483.82 297.408 484.78 295.418C486.74 291.338 485.67 286.598 484.01 282.618C482.04 277.908 479 273.808 475.75 269.908C472.66 266.198 469.4 262.638 465.49 259.768C463.61 258.388 461.57 257.268 459.39 256.408C457.25 255.568 454.34 254.578 452.17 255.808C449.47 257.338 449.18 261.008 449.6 263.758C450.02 266.528 451.38 269.098 453.06 271.308C456.36 275.678 460.79 278.878 465.94 280.728C467.4 281.258 469.22 279.868 469.1 278.318C468.85 274.928 466.74 271.228 463.25 270.298C461.37 269.798 459.18 270.498 458.53 272.478C457.92 274.348 458.82 276.208 460.7 276.818C463.77 277.818 465.08 272.988 462.03 271.998C461.96 271.978 461.89 271.958 461.82 271.928C462.19 272.138 462.56 272.358 462.92 272.568C463.03 273.048 463.15 273.538 463.26 274.018C462.81 274.388 462.36 274.748 461.91 275.118C461.93 275.178 462.24 275.268 462.29 275.328C462.57 275.628 462.94 275.808 463.21 276.148C463.71 276.758 464.03 277.548 464.09 278.328C465.14 277.528 466.2 276.718 467.25 275.918C463.77 274.668 460.68 272.538 458.21 269.798C456.93 268.378 455.76 266.748 455.06 264.968C454.75 264.188 454.5 263.338 454.43 262.498C454.38 261.978 454.26 260.518 454.71 260.098C454.84 259.978 454.43 260.238 454.63 260.248C455.01 260.288 455.41 260.398 455.79 260.498C456.73 260.748 457.65 261.048 458.54 261.458C460.24 262.238 461.86 263.238 463.34 264.388C466.46 266.798 469.12 269.798 471.66 272.808C474.34 275.978 476.89 279.298 478.73 283.038C480.12 285.848 481.45 289.418 480.58 292.488C480.26 293.618 479.65 294.478 478.34 294.618C476.5 294.808 474.56 293.638 472.99 292.818C469.44 290.958 466.03 288.818 462.8 286.448C455.65 281.188 449.43 274.608 444.51 267.228C442.75 264.538 438.42 267.038 440.21 269.728Z" fill="white"/>
<path d="M438.348 255.968C432.878 257.898 427.048 258.188 421.448 256.718C420.138 256.378 418.738 257.148 418.368 258.468C418.008 259.758 418.808 261.198 420.118 261.548C426.538 263.238 433.418 263.008 439.678 260.798C440.948 260.348 441.798 259.088 441.428 257.718C441.088 256.478 439.628 255.518 438.348 255.968Z" fill="white"/>
<path d="M485.96 302.317C484.86 308.997 487.22 316.097 492.51 320.447C493.52 321.277 495.07 321.507 496.05 320.447C496.89 319.527 497.13 317.797 496.05 316.907C495.53 316.477 495.03 316.027 494.57 315.537C494.32 315.277 494.09 315.017 493.86 314.737C493.76 314.617 493.66 314.497 493.56 314.367C493.81 314.697 493.5 314.267 493.45 314.207C493.06 313.657 492.71 313.087 492.38 312.497C492.21 312.187 492.05 311.867 491.9 311.547C491.88 311.507 491.69 311.077 491.79 311.307C491.89 311.547 491.64 310.927 491.65 310.947C491.41 310.317 491.21 309.677 491.05 309.017C490.96 308.667 490.89 308.327 490.82 307.977C490.79 307.817 490.77 307.667 490.74 307.507C490.79 307.767 490.76 307.667 490.74 307.467C490.67 306.757 490.63 306.047 490.64 305.337C490.65 305.017 490.66 304.707 490.69 304.387C490.71 304.187 490.73 303.997 490.75 303.797C490.79 303.367 490.66 304.387 490.78 303.637C490.99 302.347 490.45 300.887 489.03 300.557C487.83 300.297 486.18 300.937 485.96 302.317Z" fill="white"/>
<path d="M430.71 272.547C432.78 278.217 435.98 283.377 440.19 287.707C441.1 288.647 442.82 288.697 443.73 287.707C444.66 286.697 444.7 285.177 443.73 284.167C442.78 283.197 441.89 282.177 441.04 281.117C440.94 280.997 440.83 280.847 440.99 281.057C440.89 280.927 440.8 280.807 440.7 280.677C440.49 280.387 440.28 280.097 440.07 279.807C439.68 279.257 439.31 278.687 438.94 278.117C438.24 277.007 437.6 275.857 437.01 274.677C436.71 274.067 436.42 273.457 436.15 272.837C436.08 272.687 436.02 272.527 436.12 272.777C436.05 272.597 435.97 272.407 435.9 272.227C435.77 271.897 435.64 271.557 435.52 271.217C435.07 269.997 433.8 269.027 432.44 269.467C431.26 269.867 430.23 271.237 430.71 272.547Z" fill="white"/>
<path d="M472.279 243.45C477.619 248.76 483.929 252.97 490.889 255.85C494.229 257.23 498.769 258.04 501.329 254.77C503.259 252.31 503.258 248.12 500.158 246.57C497.288 245.14 494.749 249.45 497.639 250.89C498.169 251.15 497.459 250.43 497.709 250.88C497.549 250.59 497.698 251.029 497.718 250.909C497.738 250.739 497.618 251.35 497.608 251.37C497.708 251.1 497.509 251.57 497.459 251.65C497.309 251.86 497.648 251.62 497.238 251.88C497.448 251.75 497.119 251.93 497.079 251.95C496.849 252.04 496.579 252.07 496.339 252.09C493.909 252.27 491.109 250.57 489.029 249.51C484.149 247.01 479.729 243.78 475.839 239.92C473.539 237.64 469.999 241.18 472.279 243.45Z" fill="white"/>
<path d="M364.858 237.328C371.178 241.508 378.038 244.848 385.228 247.248C388.238 248.248 391.578 249.548 394.798 249.208C398.068 248.858 401.158 246.478 400.208 242.808C399.748 241.038 398.468 239.598 397.368 238.198C396.338 236.888 395.248 235.638 394.108 234.418C391.728 231.888 389.108 229.608 386.338 227.508C383.628 225.458 380.748 223.648 377.728 222.108C376.118 221.278 374.458 220.538 372.778 219.858C371.218 219.218 369.578 218.468 367.878 218.338C365.588 218.178 363.398 219.918 363.458 222.318C363.518 224.388 364.918 226.048 366.448 227.298C369.858 230.088 373.588 232.248 377.658 233.908C378.908 234.418 380.408 233.358 380.738 232.158C381.128 230.728 380.248 229.598 378.988 229.078C376.228 227.958 373.608 226.448 371.208 224.688C370.678 224.298 370.158 223.898 369.648 223.468C369.428 223.278 368.748 222.368 368.538 222.308C368.188 222.198 367.438 222.988 367.758 223.328C368.068 223.648 369.148 223.778 369.588 223.938C374.678 225.818 379.488 228.528 383.808 231.808C387.928 234.938 391.978 238.798 394.868 243.118C395.128 243.498 395.188 243.848 395.358 244.218C395.278 244.038 395.548 243.908 395.528 243.818C395.588 244.038 395.208 244.018 395.468 243.898C395.268 243.988 395.048 244.118 394.558 244.208C394.928 244.148 393.988 244.248 394.048 244.248C393.748 244.258 393.438 244.248 393.138 244.228C392.298 244.168 390.938 243.748 389.928 243.458C388.438 243.028 386.968 242.568 385.508 242.058C379.098 239.828 373.028 236.748 367.378 232.998C364.688 231.228 362.188 235.558 364.858 237.328Z" fill="white"/>
<path d="M415.61 227.369C422.59 231.279 430.38 233.479 438.37 233.819C439.72 233.879 440.87 232.629 440.87 231.319C440.87 229.919 439.72 228.879 438.37 228.819C431.27 228.519 424.33 226.529 418.13 223.049C415.32 221.479 412.8 225.799 415.61 227.369Z" fill="white"/>
<path d="M308.249 209.549C312.389 212.689 316.959 215.149 321.829 216.979C324.189 217.859 326.609 218.569 329.069 219.099C331.249 219.559 333.639 220.079 335.829 219.369C338.289 218.559 339.939 216.189 339.239 213.569C338.589 211.119 336.269 209.399 334.379 207.899C330.319 204.659 325.909 202.019 321.119 200.019C318.529 198.939 315.579 197.629 312.719 197.669C309.969 197.709 307.039 199.429 306.549 202.319C306.319 203.649 306.899 205.009 308.299 205.399C309.499 205.729 311.149 204.989 311.379 203.649C311.819 201.069 318.209 204.169 319.589 204.749C323.229 206.299 326.669 208.309 329.849 210.659C331.289 211.719 333.019 212.909 334.109 214.339C334.189 214.439 334.399 214.799 334.399 214.799C334.599 214.869 334.199 214.769 334.429 214.779C334.319 214.769 334.629 214.369 334.659 214.449C334.709 214.619 333.669 214.719 333.379 214.729C331.809 214.739 329.989 214.229 328.299 213.799C326.349 213.299 324.429 212.679 322.559 211.949C318.339 210.309 314.379 207.989 310.779 205.259C309.699 204.439 307.979 205.089 307.359 206.159C306.599 207.419 307.169 208.739 308.249 209.549Z" fill="white"/>
<path d="M259.107 201.969C261.697 204.399 264.747 206.239 268.117 207.359C271.237 208.399 275.917 209.279 277.867 205.759C279.807 202.269 276.837 198.669 274.037 196.799C270.977 194.769 267.577 192.929 264.097 191.759C262.017 191.059 259.587 190.919 257.667 192.139C255.707 193.389 254.697 195.559 255.177 197.839C255.457 199.159 257.007 199.929 258.257 199.589C259.627 199.209 260.287 197.839 260.007 196.509C260.027 196.779 260.027 196.759 260.027 196.459C260.047 196.589 260.027 196.709 259.947 196.819C260.107 196.579 260.107 196.539 259.957 196.719C260.067 196.589 260.177 196.479 260.307 196.369C259.957 196.659 260.977 196.159 260.507 196.279C260.767 196.209 260.937 196.189 261.307 196.219C261.887 196.249 262.687 196.539 263.367 196.799C264.067 197.069 264.757 197.379 265.427 197.709C266.997 198.449 268.527 199.269 270.007 200.169C270.377 200.399 270.747 200.629 271.107 200.859C271.287 200.979 271.467 201.099 271.647 201.219C271.887 201.389 271.917 201.409 271.767 201.279C272.047 201.489 272.317 201.739 272.557 201.989C272.637 202.069 273.177 202.729 273.017 202.499C273.077 202.579 273.527 203.409 273.357 202.999C273.417 203.149 273.457 203.289 273.497 203.449C273.477 203.159 273.467 203.149 273.487 203.449C273.547 203.149 273.547 203.139 273.477 203.429C273.497 203.299 273.567 203.199 273.667 203.129C273.457 203.339 273.437 203.359 273.627 203.199C273.367 203.339 273.347 203.349 273.577 203.239C273.287 203.299 273.267 203.319 273.517 203.289C273.347 203.309 273.177 203.319 273.017 203.319C272.917 203.319 271.977 203.229 272.407 203.299C271.647 203.189 270.887 202.989 270.157 202.769C267.377 201.949 264.767 200.429 262.657 198.439C261.677 197.519 260.097 197.459 259.117 198.439C258.177 199.369 258.117 201.039 259.107 201.969Z" fill="white"/>
<path d="M289.639 217.267C289.839 217.307 290.039 217.377 290.239 217.457C290.039 217.377 289.839 217.287 289.639 217.207C289.899 217.317 290.149 217.457 290.379 217.637C290.209 217.507 290.039 217.377 289.869 217.247C290.019 217.367 290.159 217.487 290.289 217.627C290.519 217.867 290.779 218.047 291.089 218.147C291.389 218.307 291.709 218.377 292.049 218.367C292.389 218.377 292.719 218.307 293.009 218.147C293.319 218.047 293.589 217.877 293.809 217.627C293.939 217.457 294.069 217.287 294.199 217.117C294.429 216.727 294.539 216.307 294.539 215.857C294.509 215.637 294.479 215.417 294.449 215.197C294.329 214.777 294.119 214.407 293.809 214.097C293.689 213.967 293.559 213.847 293.429 213.737C293.139 213.507 292.839 213.257 292.509 213.067C292.179 212.877 291.819 212.747 291.479 212.607C291.309 212.537 291.139 212.487 290.959 212.457C290.629 212.357 290.299 212.337 289.959 212.417C289.629 212.437 289.319 212.527 289.029 212.717C288.739 212.877 288.499 213.087 288.329 213.357C288.109 213.597 287.959 213.877 287.879 214.207C287.849 214.427 287.819 214.647 287.789 214.867C287.789 215.317 287.909 215.737 288.129 216.127C288.259 216.297 288.389 216.467 288.519 216.637C288.849 216.937 289.219 217.157 289.639 217.267Z" fill="white"/>
<path d="M34.6082 38.9681C31.1882 43.1581 29.2482 48.3681 29.3182 53.7981C29.3382 55.1081 30.4582 56.3581 31.8182 56.2981C33.1582 56.2381 34.3382 55.1981 34.3182 53.7981C34.3082 53.2181 34.3182 52.6381 34.3582 52.0581C34.3782 51.7681 34.4082 51.4781 34.4382 51.1881C34.4782 50.8981 34.4682 50.8981 34.4382 51.2081C34.4582 51.0681 34.4782 50.9182 34.5082 50.7782C34.6882 49.7082 34.9582 48.6481 35.3082 47.6181C35.3982 47.3481 35.5082 47.0781 35.6082 46.7981C35.7182 46.5281 35.7182 46.5281 35.6082 46.7881C35.6682 46.6581 35.7282 46.5181 35.7882 46.3881C35.9982 45.9281 36.2282 45.4682 36.4682 45.0282C36.7482 44.5182 37.0482 44.0281 37.3682 43.5381C37.5282 43.2981 37.6982 43.0681 37.8682 42.8281C38.0382 42.5981 38.0382 42.5981 37.8682 42.8181C37.9582 42.7081 38.0482 42.5881 38.1382 42.4781C38.9682 41.4681 39.1982 39.9181 38.1382 38.9381C37.2282 38.1281 35.4982 37.8881 34.6082 38.9681Z" fill="white"/>
<path d="M35.9182 71.4886C35.9882 75.7786 37.6382 79.8687 40.4882 83.0587C41.3682 84.0387 43.1482 84.0187 44.0282 83.0587C44.9882 82.0187 44.9582 80.5687 44.0282 79.5187C43.8882 79.3587 43.7482 79.1987 43.6082 79.0287C43.5382 78.9487 43.4682 78.8587 43.4082 78.7787C43.6382 79.0787 43.6682 79.1187 43.5082 78.8987C43.2582 78.5487 43.0182 78.1987 42.7882 77.8287C42.5682 77.4587 42.3582 77.0887 42.1682 76.7087C42.0682 76.5187 41.9882 76.3187 41.8882 76.1287C41.7782 75.8787 41.7982 75.9287 41.9482 76.2787C41.9082 76.1787 41.8682 76.0786 41.8282 75.9786C41.5182 75.1786 41.2782 74.3587 41.1082 73.5187C41.0682 73.3087 41.0282 73.0987 40.9982 72.8887C40.9582 72.6187 40.9682 72.6787 41.0182 73.0787C41.0082 72.9687 40.9982 72.8687 40.9782 72.7587C40.9382 72.3287 40.9182 71.9086 40.9082 71.4786C40.8882 70.1686 39.7782 68.9186 38.4082 68.9786C37.0882 69.0486 35.8982 70.0886 35.9182 71.4886Z" fill="white"/>
<path d="M50.9804 115.236C56.6104 122.336 64.1404 127.686 72.5704 130.946C73.8304 131.436 75.3104 130.406 75.6504 129.196C76.0404 127.786 75.1704 126.606 73.9004 126.116C66.2704 123.166 59.5904 118.076 54.5204 111.686C53.6804 110.626 51.8604 110.806 50.9804 111.686C49.9404 112.746 50.1404 114.176 50.9804 115.236Z" fill="white"/>
<path d="M115.877 143.728C120.587 146.988 125.947 149.338 131.527 150.618C133.347 151.038 135.147 149.438 134.607 147.538C133.887 145.038 131.767 142.918 129.157 142.478C127.877 142.258 126.397 142.818 126.077 144.228C125.797 145.438 126.447 147.068 127.827 147.308C128.037 147.348 128.237 147.398 128.447 147.448C128.687 147.508 128.647 147.528 128.437 147.418C128.627 147.518 128.807 147.618 128.987 147.728C129.367 147.948 128.897 147.588 129.067 147.788C129.177 147.918 129.317 148.038 129.437 148.158C129.747 148.478 129.387 147.998 129.487 148.238C129.557 148.398 129.667 148.538 129.747 148.698C129.547 148.318 129.727 148.688 129.787 148.888C130.817 147.858 131.837 146.838 132.867 145.808C131.497 145.498 130.147 145.118 128.817 144.678C128.237 144.488 127.657 144.278 127.087 144.058C126.757 143.938 126.437 143.808 126.107 143.668C125.827 143.548 125.787 143.538 125.977 143.618C125.817 143.548 125.657 143.478 125.497 143.408C123.017 142.308 120.647 140.958 118.407 139.418C117.327 138.668 115.587 139.188 114.987 140.318C114.307 141.578 114.727 142.928 115.877 143.728Z" fill="white"/>
<path d="M147.089 164.207C154.099 169.767 162.029 175.737 171.459 175.317C173.269 175.237 174.679 173.227 173.619 171.557C171.139 167.637 167.809 164.367 163.829 161.987C161.059 160.327 158.549 164.647 161.309 166.307C164.559 168.247 167.279 170.887 169.309 174.087C170.029 172.837 170.749 171.577 171.469 170.327C163.439 170.687 156.599 165.427 150.629 160.687C149.569 159.847 148.129 159.657 147.089 160.687C146.219 161.547 146.029 163.367 147.089 164.207Z" fill="white"/>
<path d="M198.198 176.638C206.818 177.488 215.238 180.288 222.688 184.718C223.618 185.268 224.617 186.188 225.617 186.578C225.737 186.658 225.858 186.738 225.978 186.818C226.138 185.318 225.978 184.898 225.508 185.558C225.228 185.738 225.018 186.018 224.728 186.198C223.448 187.008 221.807 187.068 220.337 186.958C216.497 186.678 212.567 184.598 209.677 182.158C209.677 183.338 209.677 184.518 209.677 185.698C210.127 185.258 209.877 185.258 208.927 185.698C210.257 185.898 211.618 185.368 212.008 183.948C212.328 182.768 211.608 181.068 210.258 180.868C208.718 180.638 207.188 180.888 206.138 182.158C205.338 183.128 205.028 184.758 206.138 185.698C211.618 190.348 221.727 195.068 228.297 189.758C230.087 188.318 231.398 185.978 229.938 183.838C229.327 182.938 228.308 182.358 227.408 181.768C226.438 181.138 225.457 180.528 224.457 179.948C220.707 177.788 216.717 176.008 212.607 174.638C207.937 173.068 203.097 172.108 198.188 171.618C196.837 171.488 195.688 172.858 195.688 174.118C195.697 175.598 196.848 176.508 198.198 176.638Z" fill="white"/>
<path d="M403.978 631.787C406.478 630.367 409.468 628.507 412.468 629.317C415.528 630.137 415.268 633.237 415.078 635.817C414.918 638.037 417.888 639.027 419.348 637.587C421.488 635.477 424.338 634.117 427.368 633.987C427.698 633.977 428.248 634.097 428.548 633.987C428.808 634.017 428.788 633.997 428.508 633.927C428.278 633.847 428.198 633.787 428.288 633.737C428.378 633.717 429.058 635.937 429.108 636.087C429.668 637.887 430.078 639.727 430.378 641.587C430.788 644.177 434.528 643.737 435.198 641.587C435.518 640.557 436.578 639.917 437.678 639.767C438.898 639.607 440.058 640.227 440.938 641.147C443.548 643.907 442.688 648.077 441.498 651.267C441.028 652.527 442.028 654.007 443.248 654.347C444.648 654.727 445.848 653.867 446.328 652.597C448.358 647.167 448.308 640.417 443.318 636.597C438.948 633.257 432.118 634.787 430.398 640.257C432.008 640.257 433.608 640.257 435.218 640.257C434.838 637.877 434.258 635.527 433.448 633.257C433.068 632.177 432.698 631.017 431.848 630.207C430.868 629.267 429.498 629.007 428.188 628.977C423.588 628.887 419.088 630.837 415.838 634.057C417.258 634.647 418.688 635.237 420.108 635.827C420.268 633.537 420.298 631.207 419.348 629.067C418.418 626.947 416.638 625.497 414.488 624.717C409.938 623.057 405.388 625.267 401.478 627.477C398.658 629.057 401.168 633.377 403.978 631.787Z" fill="white"/>
<path d="M399.608 581.887C400.148 581.427 400.988 581.417 401.688 581.607C402.568 581.847 403.438 582.357 403.978 583.117C405.598 585.377 404.968 588.647 404.238 591.127C403.548 593.447 406.738 595.457 408.418 593.557C411.038 590.597 415.088 589.087 419.018 589.727C420.658 589.997 423.208 590.617 423.768 592.387C424.598 595.017 424.518 598.117 424.328 600.837C424.238 602.187 425.538 603.337 426.828 603.337C428.258 603.337 429.238 602.187 429.328 600.837C429.558 597.457 429.568 593.457 428.308 590.267C427.088 587.197 423.768 585.597 420.688 584.977C414.988 583.817 408.768 585.627 404.878 590.027C406.268 590.837 407.668 591.647 409.058 592.457C410.348 588.107 410.598 582.737 407.208 579.237C404.248 576.187 399.368 575.527 396.068 578.357C395.038 579.237 395.168 580.987 396.068 581.897C397.088 582.897 398.578 582.767 399.608 581.887Z" fill="white"/>
<path d="M480.879 546.098C481.959 543.758 484.379 542.048 487.049 542.358C489.569 542.648 491.879 544.948 492.139 547.478C492.399 549.958 495.329 550.868 496.799 548.738C499.009 545.538 501.499 541.838 505.469 540.728C506.979 540.308 508.679 540.308 509.999 541.258C511.009 541.988 511.869 543.288 511.619 544.548C511.359 545.868 511.999 547.248 513.369 547.628C514.599 547.968 516.179 547.208 516.449 545.878C517.629 539.928 512.209 534.918 506.389 535.508C499.919 536.168 495.939 541.228 492.489 546.208C494.039 546.628 495.599 547.048 497.149 547.468C496.649 542.738 493.239 538.378 488.389 537.528C483.669 536.698 478.609 539.168 476.579 543.568C476.009 544.788 476.229 546.258 477.479 546.988C478.539 547.618 480.309 547.328 480.879 546.098Z" fill="white"/>
<path d="M438.47 707.618C427.17 710.748 416.22 715.198 405.94 720.838C400.99 723.558 396.11 726.508 391.58 729.878C387.39 732.998 383.34 736.688 381.08 741.498C379.76 744.318 378.78 747.888 381.84 749.998C384.04 751.518 387.28 752.118 389.87 752.618C395.81 753.768 401.83 753.708 407.8 752.878C413.84 752.038 419.73 750.338 425.47 748.308C428.45 747.248 431.41 746.098 434.35 744.928C436.82 743.948 439.48 743.128 441.52 741.348C443.96 739.218 444.44 735.838 442.26 733.328C440.36 731.148 437.11 729.928 434.32 729.488C428.16 728.518 422.04 730.368 416.29 732.428C415.02 732.888 414.17 734.128 414.54 735.508C414.88 736.738 416.34 737.708 417.62 737.258C421.94 735.708 426.48 734.158 431.12 734.208C433.15 734.228 435.19 734.608 436.99 735.578C437.51 735.858 438.58 736.338 438.74 737.008C438.69 736.778 438.63 737.148 438.65 737.118C438.45 737.388 438.24 737.608 437.96 737.838C436.21 739.208 433.75 739.828 431.71 740.638C429.21 741.628 426.69 742.588 424.16 743.488C419.06 745.298 413.85 746.848 408.51 747.748C403.5 748.598 398.27 748.838 393.22 748.138C390.78 747.798 388.36 747.218 386.03 746.418C385.79 746.338 384.95 745.848 384.71 745.888C384.4 745.938 384.9 745.918 384.77 746.178C384.68 746.358 384.81 745.708 384.82 745.638C385.02 744.588 385.62 743.548 386.14 742.638C388.28 738.888 391.63 735.968 395.09 733.488C399.18 730.558 403.5 727.918 407.89 725.478C417.98 719.878 428.7 715.518 439.81 712.428C442.9 711.588 441.58 706.758 438.47 707.618Z" fill="white"/>
<path d="M443.948 695.109C427.218 693.799 410.248 697.519 395.538 705.579C392.718 707.129 395.238 711.449 398.058 709.899C412.028 702.239 428.058 698.869 443.938 700.109C445.288 700.219 446.438 698.889 446.438 697.609C446.448 696.169 445.298 695.209 443.948 695.109Z" fill="white"/>
<path d="M151.348 120.18C154.568 120.18 154.568 115.18 151.348 115.18C148.128 115.18 148.118 120.18 151.348 120.18Z" fill="white"/>
</svg>
