<svg width="294" height="280" viewBox="0 0 294 280" fill="none" xmlns="http://www.w3.org/2000/svg">
<path d="M22.4278 223.876C21.9978 210.836 29.2078 198.736 37.6578 188.796C51.7578 172.206 70.4278 159.066 91.5478 153.776C112.668 148.486 136.238 151.626 153.968 164.266C171.698 176.906 182.538 199.446 179.118 220.946C175.488 243.826 156.678 262.316 134.968 270.406C113.258 278.496 89.1478 277.566 66.4078 273.126C48.0978 269.556 27.5478 257.696 15.9978 242.486L11.5378 234.116C-0.232173 201.906 -0.382176 165.596 11.1278 133.296C22.6278 100.996 45.6978 72.9459 75.1778 55.4359L144.028 30.746C160.598 23.586 178.288 20.7459 195.798 17.9559C227.408 12.9159 259.008 7.87594 290.618 2.83594" fill="#FF9D91"/>
<path d="M24.9276 223.877C24.5176 207.977 35.3376 194.136 45.9976 183.436C56.7376 172.656 69.6576 163.797 84.0476 158.677C98.6076 153.497 114.528 152.286 129.588 155.976C144.048 159.516 157.268 167.587 166.038 179.747C174.298 191.187 178.888 205.747 176.788 219.887C174.748 233.627 166.978 245.727 156.628 254.757C145.068 264.837 130.598 270.546 115.538 272.836C107.078 274.116 98.4376 274.277 89.9076 273.757C81.4676 273.237 72.9376 272.157 64.6876 270.247C50.2976 266.907 36.4776 259.477 25.6676 249.417C23.0676 246.997 20.3176 244.357 18.2876 241.417C17.3976 240.117 16.7476 238.586 16.0076 237.196C15.3076 235.876 14.2276 234.116 13.7576 232.956C12.2976 229.396 11.0976 224.987 10.0476 221.047C5.64756 204.527 4.20756 187.277 5.66756 170.247C7.07756 153.847 11.2776 137.607 18.1676 122.647C24.3876 109.127 32.6576 96.5465 42.6176 85.4865C47.6476 79.9065 53.0876 74.6966 58.8876 69.9266C61.7076 67.6066 64.6276 65.4065 67.6176 63.3165C69.1776 62.2365 70.7476 61.1765 72.3476 60.1565C73.0876 59.6865 73.8276 59.2165 74.5676 58.7565C74.9376 58.5265 75.3476 58.3365 75.6876 58.0765C75.8176 57.9765 76.2176 57.6865 75.8476 57.8765C76.9176 57.3165 78.2476 57.0165 79.3776 56.6065C82.2376 55.5765 85.0976 54.5565 87.9576 53.5265C96.3976 50.4965 104.838 47.4765 113.288 44.4465C121.148 41.6265 129.008 38.8065 136.868 35.9865C142.748 33.8765 148.548 31.4365 154.468 29.4665C171.528 23.7865 189.528 21.4966 207.218 18.6666C226.048 15.6666 244.888 12.6565 263.718 9.65654C272.908 8.19654 282.098 6.72652 291.278 5.25652C292.608 5.04652 293.358 3.37656 293.028 2.17656C292.638 0.756562 291.288 0.216562 289.948 0.426562C270.558 3.51656 251.178 6.60646 231.788 9.69646C222.138 11.2365 212.498 12.7766 202.848 14.3066C193.628 15.7766 184.388 17.1565 175.238 18.9665C166.328 20.7265 157.478 22.9265 148.948 26.0965C146.048 27.1765 143.988 28.1165 141.218 29.1065C134.698 31.4465 128.188 33.7765 121.668 36.1165C112.688 39.3365 103.718 42.5565 94.7376 45.7765C88.5276 48.0065 82.3076 50.2365 76.0976 52.4665C73.0776 53.5465 70.4776 55.3565 67.8076 57.1265C61.3776 61.3965 55.2676 66.1765 49.5576 71.3765C38.1476 81.7765 28.2976 93.9666 20.5076 107.297C12.2576 121.417 6.32756 136.896 3.11756 152.936C-0.372438 170.376 -0.782439 188.327 1.82756 205.917C3.11756 214.597 5.16756 223.166 7.96756 231.486C9.38756 235.686 11.4576 239.606 13.6776 243.446C15.1376 245.986 17.4576 248.266 19.4976 250.356C22.2276 253.156 25.1876 255.727 28.2776 258.117C34.5676 262.967 41.4476 267.017 48.7476 270.157C56.0276 273.277 63.4576 275.266 71.2576 276.566C80.1876 278.056 89.2376 278.997 98.2976 279.017C115.108 279.047 132.268 275.886 147.038 267.566C159.608 260.486 170.608 249.807 176.798 236.667C183.228 223.027 183.878 207.546 178.798 193.346C173.628 178.896 163.388 166.526 150.108 158.826C136.198 150.756 119.588 147.686 103.648 149.226C87.6676 150.766 72.4176 156.857 59.2376 165.927C52.6776 170.437 46.5776 175.637 41.0576 181.367C35.3476 187.287 30.0276 193.787 26.0676 201.017C22.2276 208.037 19.7376 215.837 19.9476 223.897C20.0076 227.087 25.0076 227.097 24.9276 223.877Z" fill="white"/>
<path d="M214.307 19.0771C223.697 31.2471 229.737 45.6672 231.837 60.8972C232.017 62.2372 233.737 62.9672 234.917 62.6472C236.357 62.2472 236.847 60.9171 236.667 59.5671C234.517 43.9871 228.237 29.0072 218.637 16.5472C217.817 15.4772 216.487 14.9072 215.217 15.6472C214.157 16.2772 213.487 18.0071 214.307 19.0771Z" fill="white"/>
<path d="M234.586 15.608C242.486 26.468 247.206 39.448 247.906 52.868C248.076 56.068 253.076 56.088 252.906 52.868C252.156 38.598 247.316 24.648 238.896 13.078C238.106 11.988 236.726 11.4481 235.476 12.1781C234.406 12.8181 233.786 14.508 234.586 15.608Z" fill="white"/>
<path d="M195.788 28.7954C193.218 31.6854 192.828 35.7553 194.418 39.2253C195.918 42.5053 199.528 44.4753 203.088 44.1453C206.868 43.7853 210.268 41.5254 211.408 37.7854C212.428 34.4354 211.338 30.4354 208.788 28.0354C205.328 24.7954 199.718 24.8353 196.288 28.1053C195.338 29.0053 195.308 30.7453 196.288 31.6453C197.308 32.5753 198.808 32.6153 199.828 31.6453C199.898 31.5853 200.118 31.3154 200.208 31.3054C200.128 31.3654 200.048 31.4253 199.968 31.4853C200.058 31.4153 200.148 31.3554 200.248 31.2954C200.388 31.2054 200.538 31.1154 200.688 31.0354C200.738 31.0054 200.788 30.9853 200.838 30.9553C201.088 30.8353 201.038 30.8553 200.698 30.9953C200.878 30.8153 201.428 30.7453 201.668 30.6853C201.708 30.6753 202.148 30.5553 202.168 30.5853C201.788 30.6353 201.728 30.6453 202.008 30.6153C202.118 30.6053 202.238 30.5953 202.348 30.5953C202.658 30.5853 202.968 30.6053 203.288 30.6253C203.658 30.6453 202.658 30.4853 203.208 30.6153C203.378 30.6553 203.538 30.6853 203.708 30.7253C203.868 30.7653 204.028 30.8253 204.198 30.8753C204.748 31.0353 203.718 30.6153 204.228 30.8853C204.368 30.9553 204.508 31.0253 204.648 31.1053C204.768 31.1753 205.018 31.4154 205.148 31.4254C205.058 31.3554 204.968 31.2853 204.878 31.2153C204.958 31.2753 205.028 31.3354 205.108 31.4054C205.218 31.5054 205.328 31.6053 205.428 31.7053C205.528 31.8053 205.638 31.9154 205.728 32.0354C205.758 32.0754 205.788 32.1153 205.828 32.1453C205.998 32.3453 205.958 32.2953 205.708 31.9853C205.738 32.1653 206.018 32.4453 206.118 32.6053C206.198 32.7353 206.268 32.8653 206.328 32.9953C206.368 33.0853 206.418 33.1753 206.458 33.2653C206.308 32.8953 206.278 32.8353 206.378 33.0853C206.478 33.3653 206.578 33.6453 206.648 33.9353C206.688 34.0753 206.718 34.2253 206.748 34.3753C206.758 34.4253 206.768 34.4753 206.778 34.5253C206.818 34.7953 206.808 34.7254 206.748 34.3054C206.718 34.5854 206.798 34.9153 206.798 35.1953C206.798 35.2953 206.798 35.3953 206.788 35.4953C206.778 35.5953 206.778 35.6954 206.768 35.7954C206.738 36.0654 206.748 35.9953 206.798 35.5753C206.688 35.8253 206.678 36.1753 206.598 36.4353C206.568 36.5353 206.448 36.7553 206.458 36.8553C206.508 36.7453 206.548 36.6354 206.598 36.5354C206.558 36.6254 206.518 36.7154 206.468 36.8054C206.328 37.0754 206.168 37.3253 206.008 37.5753C205.718 38.0153 206.398 37.1554 206.028 37.5354C205.888 37.6754 205.758 37.8253 205.618 37.9653C205.528 38.0453 205.418 38.1253 205.338 38.2153C205.118 38.4653 205.858 37.8653 205.438 38.1453C205.188 38.3153 204.948 38.4753 204.678 38.6153C204.548 38.6853 204.408 38.7453 204.278 38.8153C203.798 39.0553 204.838 38.6254 204.328 38.7954C203.998 38.9054 203.668 39.0153 203.328 39.0853C203.198 39.1153 203.008 39.1154 202.888 39.1654C203.418 38.9554 203.258 39.1253 202.958 39.1453C202.708 39.1653 202.458 39.1654 202.208 39.1654C202.058 39.1654 201.908 39.1453 201.758 39.1353C201.218 39.1053 202.358 39.2653 201.838 39.1453C201.498 39.0753 201.168 38.9953 200.838 38.8853C200.788 38.8653 200.748 38.8553 200.698 38.8353C200.448 38.7353 200.518 38.7654 200.888 38.9154C200.808 38.8354 200.588 38.7753 200.488 38.7153C200.358 38.6453 200.228 38.5653 200.108 38.4853C200.068 38.4553 200.028 38.4254 199.988 38.4054C199.778 38.2554 199.828 38.2953 200.138 38.5253C200.048 38.3453 199.738 38.1753 199.588 38.0253C199.518 37.9553 199.378 37.7253 199.288 37.6953C199.528 38.0053 199.568 38.0653 199.408 37.8453C199.348 37.7653 199.298 37.6853 199.238 37.6053C199.068 37.3353 198.948 36.9253 198.748 36.6953C198.798 36.8053 198.838 36.9153 198.888 37.0153C198.848 36.9253 198.818 36.8253 198.788 36.7353C198.718 36.5453 198.668 36.3554 198.618 36.1654C198.578 36.0254 198.548 35.8753 198.518 35.7253C198.498 35.6253 198.478 35.5253 198.468 35.4353C198.518 35.8553 198.528 35.9254 198.498 35.6554C198.478 35.3554 198.458 35.0653 198.468 34.7553C198.468 34.6053 198.488 34.4554 198.498 34.3054C198.528 34.0354 198.518 34.1053 198.458 34.5253C198.468 34.4253 198.488 34.3253 198.508 34.2353C198.578 33.8953 198.678 33.5653 198.778 33.2353C198.938 32.7253 198.508 33.7554 198.748 33.2854C198.838 33.1054 198.928 32.9353 199.028 32.7653C199.108 32.6353 199.188 32.5153 199.268 32.3953C199.418 32.1853 199.378 32.2354 199.148 32.5454C199.208 32.4654 199.278 32.3953 199.348 32.3153C200.218 31.3353 200.378 29.7253 199.348 28.7753C198.368 27.9253 196.718 27.7554 195.788 28.7954Z" fill="white"/>
<path d="M67.2573 87.5179C64.9073 90.0379 63.5073 93.3679 64.1473 96.8379C64.7473 100.048 67.5673 102.568 70.7673 102.928C73.9773 103.288 76.9473 100.848 78.1673 98.048C79.5373 94.898 79.2973 91.2879 77.0673 88.5979C74.9073 85.9879 70.5873 85.2079 67.7573 87.1179C66.6773 87.8479 66.0973 89.358 66.8573 90.538C67.5573 91.618 69.1173 92.2179 70.2773 91.4379C70.3773 91.3679 70.4873 91.3079 70.5973 91.2379C70.7173 91.1679 70.9673 91.1279 70.6273 91.1979C70.2073 91.2879 70.6573 91.188 70.7373 91.168C70.8273 91.138 70.9273 91.1079 71.0173 91.0879C71.0673 91.0779 71.2473 91.0579 71.3073 91.0279C70.9473 91.2379 70.8073 91.068 71.1573 91.058C71.4073 91.058 71.6473 91.0579 71.8973 91.0779C72.2373 91.0979 71.2473 90.9279 71.7473 91.0679C71.8473 91.0979 71.9473 91.1079 72.0373 91.1379C72.1973 91.1779 72.4573 91.3379 72.6073 91.3279C72.2573 91.3379 72.1773 91.128 72.4873 91.298C72.5973 91.358 72.7073 91.4179 72.8173 91.4879C72.9073 91.5379 72.9873 91.598 73.0673 91.658C73.4573 91.918 72.6873 91.2779 73.0373 91.6379C73.1773 91.7879 73.3173 91.9279 73.4573 92.0679C73.8073 92.4379 73.2273 91.6979 73.3973 92.0079C73.4473 92.1079 73.5173 92.198 73.5773 92.288C73.6473 92.408 73.7073 92.528 73.7773 92.658C73.9073 92.888 73.7373 92.8579 73.7273 92.5179C73.7373 92.7579 73.9073 93.0679 73.9673 93.3179C73.9573 93.2879 74.0373 93.6479 74.0273 93.6479C73.9973 93.6479 73.9673 93.0279 74.0073 93.5679C74.0273 93.8179 74.0273 94.0679 74.0273 94.3279C74.0273 94.4379 74.0173 94.548 74.0073 94.668C73.9773 95.168 74.0173 94.4979 74.0373 94.5079C74.0873 94.5379 73.8473 95.358 73.8373 95.418C73.8073 95.528 73.7673 95.6379 73.7373 95.7379C73.7273 95.7679 73.7173 95.7879 73.7073 95.8179C73.6073 96.0679 73.6273 96.0279 73.7673 95.6879C73.7773 95.8479 73.5473 96.148 73.4673 96.288C73.3473 96.508 73.1973 96.708 73.0573 96.928C72.8673 97.218 73.4673 96.4879 73.0873 96.8879C72.9673 97.0079 72.8573 97.1379 72.7373 97.2579C72.6573 97.3379 72.5773 97.4079 72.4873 97.4879C72.3173 97.6479 72.2473 97.548 72.6073 97.408C72.3973 97.488 72.1873 97.698 71.9773 97.808C71.5173 98.048 72.0573 97.798 72.0573 97.798C72.0573 97.808 71.7273 97.908 71.7473 97.908C71.6373 97.938 71.5373 97.9579 71.4273 97.9879C70.9073 98.1279 71.9673 97.9879 71.4473 97.9879C71.2873 97.9879 70.9773 97.9179 70.8273 97.9679C71.1573 97.8579 71.3273 98.0479 70.9673 97.9579C70.8473 97.9279 70.7273 97.8879 70.5973 97.8479C70.3773 97.7879 70.4073 97.648 70.7673 97.928C70.6973 97.868 70.5773 97.838 70.4873 97.788C70.3973 97.738 70.3073 97.6879 70.2173 97.6279C69.7073 97.2979 70.2373 97.5879 70.2173 97.6479C70.2173 97.6379 69.6773 97.1379 69.6473 97.0979C69.5873 97.0279 69.5173 96.9179 69.4373 96.8579C69.4873 96.8979 69.7673 97.3379 69.5473 96.9779C69.4173 96.7779 69.2973 96.5779 69.1873 96.3579C69.1373 96.2679 68.9473 95.978 69.1473 96.298C69.3573 96.628 69.1173 96.1879 69.0873 96.0779C69.0473 95.9479 69.0173 95.8279 68.9873 95.6979C68.9773 95.6479 68.9673 95.598 68.9573 95.538C68.9173 95.278 68.9173 95.3279 68.9773 95.6879C68.8773 95.5879 68.9573 94.928 68.9573 94.788C68.9573 94.698 69.0073 94.498 68.9873 94.428C68.9373 94.768 68.9273 94.8379 68.9573 94.6479C68.9673 94.5579 68.9873 94.4679 69.0073 94.3879C69.0673 94.0979 69.1473 93.8079 69.2473 93.5179C69.2873 93.4079 69.3273 93.288 69.3673 93.178C69.5473 92.658 69.1673 93.5579 69.4073 93.1079C69.5473 92.8379 69.6873 92.568 69.8473 92.308C69.9273 92.178 70.0073 92.048 70.0973 91.918C70.1373 91.858 70.4973 91.3479 70.2773 91.6479C70.0673 91.9279 70.3073 91.608 70.3673 91.548C70.5073 91.388 70.6473 91.2279 70.7873 91.0679C71.6773 90.1079 71.8073 88.4679 70.7873 87.5279C69.8173 86.6279 68.2073 86.4979 67.2573 87.5179Z" fill="white"/>
<path d="M135.866 181.716C140.666 184.206 145.916 186.846 149.256 191.266C153.106 196.356 152.876 202.936 152.586 208.996C152.436 212.216 157.436 212.206 157.586 208.996C157.906 202.056 157.866 194.596 153.566 188.746C149.736 183.526 144.026 180.336 138.386 177.406C135.536 175.916 133.006 180.236 135.866 181.716Z" fill="white"/>
<path d="M4.89745 185.298C17.3174 171.358 31.2974 158.727 47.0774 148.687C63.3874 138.307 81.4974 130.848 100.617 127.658C111.427 125.858 122.487 125.567 133.377 126.837C134.717 126.997 135.877 125.577 135.877 124.337C135.877 122.857 134.727 121.997 133.377 121.837C113.407 119.507 92.9774 122.597 74.1874 129.577C55.9574 136.347 39.3074 146.707 24.4574 159.197C16.2074 166.127 8.53745 173.728 1.36745 181.778C-0.772553 184.158 2.75745 187.708 4.89745 185.298Z" fill="white"/>
<path d="M7.18693 152.877C17.6769 142.787 29.3869 134.047 42.0369 126.837C54.6769 119.627 68.1569 113.978 82.1669 110.048C90.0969 107.828 98.1769 106.158 106.337 105.058C107.677 104.878 108.407 103.157 108.087 101.977C107.687 100.527 106.357 100.047 105.007 100.227C90.3169 102.207 75.8969 106.047 62.1469 111.587C48.3169 117.167 35.1669 124.347 23.0869 133.097C16.2469 138.057 9.74693 143.467 3.65693 149.327C1.32693 151.577 4.86693 155.117 7.18693 152.877Z" fill="white"/>
<path d="M12.799 207.265C17.539 189.955 28.749 174.775 43.069 164.095C50.749 158.375 59.269 153.775 68.219 150.355C77.469 146.825 87.329 144.175 97.189 143.135C102.539 142.565 107.909 142.635 113.239 143.405C118.559 144.175 123.809 145.405 129.049 146.585C138.699 148.765 148.439 151.265 156.779 156.805C160.919 159.565 164.649 162.875 168.389 166.145C172.019 169.315 175.629 172.515 179.049 175.915C185.779 182.595 191.719 190.185 194.739 199.285C200.679 217.185 195.749 236.995 183.129 250.805C181.579 252.495 179.939 254.085 178.209 255.595C177.189 256.485 177.299 258.225 178.209 259.135C179.219 260.145 180.719 260.025 181.749 259.135C196.859 245.975 204.759 225.825 201.509 205.935C199.839 195.735 195.069 186.615 188.469 178.755C181.999 171.045 174.189 164.354 166.469 157.934C162.389 154.534 158.099 151.405 153.309 149.075C148.539 146.755 143.489 145.065 138.369 143.705C133.239 142.335 128.039 141.205 122.839 140.105C117.229 138.915 111.529 137.915 105.779 137.765C95.149 137.485 84.299 139.865 74.199 143.005C64.439 146.045 54.979 150.245 46.369 155.755C30.169 166.115 16.949 181.175 10.139 199.275C9.31903 201.455 8.60903 203.685 7.98903 205.935C7.12903 209.045 11.949 210.375 12.799 207.265Z" fill="white"/>
<path d="M191.586 181.197C189.286 172.427 186.566 162.258 190.496 153.528C191.046 152.298 190.856 150.838 189.596 150.108C188.526 149.478 186.736 149.768 186.176 151.008C181.616 161.158 184.056 172.218 186.766 182.528C187.586 185.638 192.406 184.317 191.586 181.197Z" fill="white"/>
</svg>
