<svg width="32" height="30" viewBox="0 0 32 30" fill="none" xmlns="http://www.w3.org/2000/svg">
<path d="M20.912 0H11.088C2.12267 0 0 1.94578 0 10.164V19.1693C0 27.3875 2.12267 29.3333 11.088 29.3333H20.912C29.8773 29.3333 32 27.3875 32 19.1693V10.164C32 1.94578 29.8547 0 20.912 0ZM25.8347 20.9281H23.5093C22.6293 20.9281 22.3573 20.2864 20.776 18.8173C19.3987 17.5951 18.7893 17.4301 18.4507 17.4301C17.976 17.4301 17.84 17.5548 17.84 18.1549V20.0799C17.84 20.5981 17.66 20.9085 16.1693 20.9085C13.708 20.9085 10.9747 19.5421 9.056 16.995C6.16533 13.2697 5.37333 10.4744 5.37333 9.8951C5.37333 9.58466 5.50933 9.29499 6.164 9.29499H8.48933C9.076 9.29499 9.30267 9.5431 9.52933 10.1224C10.68 13.1658 12.6 15.8363 13.3907 15.8363C13.684 15.8363 13.82 15.7117 13.82 15.0297V11.8812C13.7293 10.4317 12.8933 10.3082 12.8933 9.79122C12.8933 9.54188 13.12 9.29377 13.48 9.29377H17.1387C17.636 9.29377 17.816 9.54188 17.816 10.0797V14.3244C17.816 14.7791 18.0427 14.9453 18.1773 14.9453C18.4707 14.9453 18.72 14.7791 19.2613 14.2829C20.9333 12.5644 22.1293 9.91466 22.1293 9.91466C22.288 9.60422 22.5587 9.31455 23.1467 9.31455H25.472C26.172 9.31455 26.3307 9.64455 26.172 10.1004C25.8787 11.3434 23.0333 15.0272 23.0333 15.0272C22.7853 15.4 22.6947 15.565 23.0333 15.9805C23.2813 16.291 24.0947 16.9327 24.6373 17.512C25.6307 18.5472 26.3973 19.4162 26.6013 20.0175C26.828 20.6164 26.488 20.9269 25.8333 20.9269L25.8347 20.9281Z" fill="#FFF6E5"/>
</svg>
