<svg width="549" height="111" viewBox="0 0 549 111" fill="none" xmlns="http://www.w3.org/2000/svg">
<path d="M38.0069 74.709C37.1569 75.019 36.0969 75.229 35.0369 75.439L30.8069 100.679L15.4969 106.229L14.7069 104.069L20.6069 74.989C7.36687 71.999 4.05688 61.6591 0.046875 50.6091L14.1969 45.479C17.7269 55.219 20.6469 65.4389 33.2669 61.6589L25.8669 41.249L39.9369 36.1489L47.3369 56.5591C59.4569 51.3791 55.1469 41.6589 51.6169 31.9189L65.7669 26.7891C69.7769 37.8391 73.8569 47.909 65.6069 58.679L88.7669 77.219L89.5469 79.3789L74.2369 84.929L54.8169 68.269C53.8669 68.789 52.9169 69.3091 52.0669 69.6191L59.5469 90.259L45.4769 95.3591L38.0069 74.709Z" fill="#1223AA"/>
<path d="M105.925 83.1155L94.0353 85.7053L89.9453 66.9053L95.6453 65.6653L105.225 16.9553L111.415 15.6055L141.035 55.7754L146.895 54.4954L150.995 73.2954L139.185 75.8655L137.835 69.6753L104.575 76.9253L105.925 83.1155ZM110.155 62.3354L126.065 58.8752L113.525 40.3154L110.155 62.3354Z" fill="#1223AA"/>
<path d="M185.715 17.718C177.235 18.828 172.995 19.388 164.595 20.488L165.655 28.5581L185.055 26.0081C185.625 30.3281 186.185 34.648 186.755 38.968L167.355 41.5181C167.795 44.8581 168.225 48.1181 168.675 51.5481C177.075 50.4481 181.965 49.808 190.525 48.678C191.085 52.918 191.655 57.3179 192.225 61.6379C178.855 63.3879 169.075 64.678 155.865 66.408C153.365 47.328 150.855 28.2481 148.375 9.33813C161.585 7.60813 170.635 6.41797 184.005 4.66797C184.565 8.90797 185.145 13.308 185.715 17.718Z" fill="#1223AA"/>
<path d="M251.828 0.357178L257.088 0.117188L259.668 57.7771C254.658 57.9971 249.648 58.227 244.638 58.447L243.488 32.8171L231.828 46.177L230.188 46.2471L217.448 33.9971L218.598 59.627C213.588 59.847 208.578 60.0771 203.568 60.2971L200.988 2.63696L206.408 2.39697L230.028 26.3572L251.828 0.357178Z" fill="#1223AA"/>
<path d="M335.367 31.6389C339.867 34.3589 341.767 38.7891 341.387 43.8691C340.567 53.8691 333.897 61.5389 322.177 60.6689L295.277 58.689L299.507 1.28906L324.027 3.09912C333.947 3.82912 341.337 12.1291 340.607 22.0491C340.347 25.4991 338.317 29.5489 335.367 31.6389ZM311.147 36.949L310.427 46.709L322.157 47.5691C328.057 47.9991 328.697 38.2391 322.797 37.8091L311.147 36.949ZM312.727 15.459L312.047 24.729L321.317 25.4089C327.137 25.8389 327.817 16.5689 321.917 16.1389L312.727 15.459Z" fill="#1223AA"/>
<path d="M385.458 9.88761C397.228 11.8176 408.918 20.3078 408.618 35.8478C403.668 35.0378 399.288 34.3177 394.338 33.5077C393.258 27.4177 389.377 24.1178 383.287 23.1178C374.767 21.7178 368.118 27.2176 366.578 36.6276C365.208 44.9876 369.528 53.1876 378.118 54.6776C384.288 55.6876 389.738 53.4178 392.278 47.5778C397.148 48.3778 401.608 49.1076 406.558 49.9176C401.818 65.6376 388.038 69.8776 375.948 67.8976C361.488 65.6176 348.478 53.4876 351.558 34.1576C354.808 14.8676 371.008 7.52761 385.458 9.88761Z" fill="#1223AA"/>
<path d="M458.617 40.3682C450.347 38.2082 446.207 37.128 438.007 34.988L435.947 42.8682L454.887 47.8081C453.787 52.0281 452.687 56.238 451.587 60.458L432.647 55.5181C431.797 58.7781 430.967 61.9581 430.097 65.3081C438.297 67.4481 443.067 68.6979 451.417 70.8779C450.337 75.0179 449.217 79.3081 448.117 83.5281C435.067 80.1181 425.527 77.6281 412.637 74.2681C417.497 55.6481 422.357 37.0381 427.177 18.5781C440.067 21.9381 448.897 24.248 461.947 27.658C460.857 31.778 459.737 36.0782 458.617 40.3682Z" fill="#1223AA"/>
<path d="M484.038 76.7964L467.888 90.1064L453.008 84.5964L453.778 82.5164L481.028 62.4463L474.078 33.3962L474.848 31.3164L489.188 36.6262L492.548 53.8264L492.938 53.9663L506.768 43.1362L521.028 48.4163L520.258 50.4963L496.058 68.0164L503.738 101.016L502.968 103.096L488.088 97.5864L484.498 76.9663L484.038 76.7964Z" fill="#1223AA"/>
<path d="M511.978 99.2764C513.988 95.1364 518.458 94.0063 522.528 95.9763C526.598 97.9463 528.488 102.156 526.488 106.296C524.518 110.366 520.048 111.486 515.978 109.516C511.908 107.546 510.008 103.346 511.978 99.2764ZM533.858 53.3164L548.658 60.4863L529.898 97.1663L517.018 90.9363L533.858 53.3164Z" fill="#1223AA"/>
</svg>
